<svg version="1.2" baseProfile="tiny-ps" xmlns="http://www.w3.org/2000/svg" viewBox="0 0 299 85" width="299" height="85">
	<title>Layer</title>
	<style>
		tspan { white-space:pre }
		.shp0 { fill: #fefcfc } 
		.shp1 { fill: #fefcfb } 
		.shp2 { fill: #3370ff } 
		.shp3 { fill: #fbfcfd } 
	</style>
	<g id="Layer">
		<g id="Layer">
			<g id="Layer">
				<g id="图层_1">
					<g id="Layer">
						<path id="Layer" class="shp0" d="M79.88 84.79L38.5 84.79L62.39 38.55L103.77 38.55L79.88 84.79Z" />
						<path id="Layer" class="shp1" d="M103.62 32.95L62.24 32.95L29.14 0.51L70.52 0.51L103.62 32.95Z" />
						<path id="Layer" class="shp2" d="M34.15 82.83L0.4 49.17L24.29 2.93L58.04 36.59L34.15 82.83Z" />
					</g>
				</g>
			</g>
		</g>
		<g id="Layer">
			<g id="Layer">
				<g id="Layer">
					<path id="Layer" fill-rule="evenodd" class="shp3" d="M141.25 52.24C141.37 52.5 141.43 52.76 141.43 53.01C141.43 53.46 141.25 53.85 140.88 54.17C140.52 54.48 140.1 54.64 139.63 54.64C139.31 54.64 139.01 54.56 138.74 54.39C138.47 54.22 138.25 53.96 138.09 53.6L136.32 49.64L125.91 49.64L124.14 53.6C123.98 53.96 123.76 54.22 123.49 54.39C123.22 54.56 122.91 54.64 122.57 54.64C122.12 54.64 121.7 54.48 121.33 54.17C120.96 53.85 120.77 53.46 120.77 53.01C120.77 52.76 120.83 52.5 120.95 52.24L129.11 34.72C129.28 34.33 129.55 34.03 129.92 33.82C130.28 33.61 130.67 33.51 131.09 33.51C131.5 33.51 131.89 33.61 132.25 33.82C132.62 34.03 132.89 34.33 133.07 34.72L141.25 52.24ZM131.12 37.91L127.21 46.69L135.02 46.69L131.12 37.91ZM152.04 39.77C152.55 39.73 152.96 39.84 153.25 40.1C153.55 40.35 153.7 40.74 153.7 41.25C153.7 41.78 153.57 42.18 153.31 42.43C153.06 42.69 152.59 42.86 151.92 42.93L151.04 43.02C149.87 43.14 149.02 43.53 148.48 44.2C147.94 44.87 147.67 45.71 147.67 46.72L147.67 52.92C147.67 53.49 147.49 53.93 147.13 54.24C146.78 54.55 146.33 54.7 145.8 54.7C145.27 54.7 144.84 54.55 144.49 54.24C144.14 53.93 143.97 53.49 143.97 52.92L143.97 41.49C143.97 40.94 144.14 40.51 144.49 40.21C144.84 39.92 145.27 39.77 145.78 39.77C146.29 39.77 146.7 39.91 147.02 40.2C147.33 40.49 147.49 40.9 147.49 41.43L147.49 42.61C147.86 41.74 148.42 41.07 149.16 40.6C149.9 40.13 150.72 39.86 151.63 39.8L152.04 39.77ZM164.13 51.95C165.12 52.01 165.61 52.45 165.61 53.28C165.61 53.75 165.42 54.11 165.03 54.36C164.64 54.61 164.1 54.71 163.39 54.67L162.59 54.61C159.28 54.37 157.63 52.6 157.63 49.29L157.63 42.85L156.15 42.85C155.62 42.85 155.21 42.73 154.92 42.49C154.63 42.26 154.49 41.91 154.49 41.46C154.49 41.01 154.63 40.66 154.92 40.42C155.21 40.19 155.62 40.07 156.15 40.07L157.63 40.07L157.63 37.35C157.63 36.82 157.8 36.39 158.13 36.08C158.46 35.76 158.92 35.6 159.49 35.6C160.04 35.6 160.49 35.76 160.82 36.08C161.15 36.39 161.32 36.82 161.32 37.35L161.32 40.07L163.83 40.07C164.36 40.07 164.77 40.19 165.06 40.42C165.35 40.66 165.49 41.01 165.49 41.46C165.49 41.91 165.35 42.26 165.06 42.49C164.77 42.73 164.36 42.85 163.83 42.85L161.32 42.85L161.32 49.55C161.32 51.01 161.99 51.79 163.33 51.89L164.13 51.95ZM168.05 54.24C167.7 53.93 167.53 53.49 167.53 52.92L167.53 41.52C167.53 40.95 167.7 40.51 168.05 40.21C168.39 39.92 168.83 39.77 169.36 39.77C169.89 39.77 170.34 39.92 170.69 40.21C171.04 40.51 171.22 40.95 171.22 41.52L171.22 52.92C171.22 53.49 171.04 53.93 170.69 54.24C170.34 54.55 169.89 54.7 169.36 54.7C168.83 54.7 168.39 54.55 168.05 54.24ZM167.77 36.59C167.37 36.23 167.17 35.75 167.17 35.16C167.17 34.57 167.37 34.09 167.77 33.74C168.16 33.39 168.69 33.21 169.36 33.21C170.01 33.21 170.54 33.39 170.94 33.74C171.35 34.09 171.55 34.57 171.55 35.16C171.55 35.75 171.35 36.23 170.96 36.59C170.57 36.96 170.03 37.14 169.36 37.14C168.69 37.14 168.16 36.96 167.77 36.59ZM175.07 53.49C174.44 53.11 174.12 52.58 174.12 51.89C174.12 51.5 174.23 51.18 174.45 50.93C174.66 50.68 174.93 50.56 175.24 50.56C175.58 50.56 176.04 50.72 176.63 51.03C177.26 51.33 177.84 51.56 178.36 51.71C178.88 51.87 179.55 51.95 180.36 51.95C181.19 51.95 181.83 51.81 182.29 51.53C182.76 51.26 182.99 50.87 182.99 50.38C182.99 50.05 182.9 49.78 182.71 49.58C182.52 49.39 182.19 49.21 181.7 49.04C181.22 48.87 180.49 48.68 179.5 48.46C177.75 48.11 176.49 47.6 175.73 46.95C174.97 46.3 174.59 45.41 174.59 44.26C174.59 43.39 174.85 42.61 175.36 41.91C175.87 41.21 176.58 40.67 177.47 40.29C178.37 39.9 179.39 39.71 180.53 39.71C181.36 39.71 182.16 39.81 182.93 40.02C183.7 40.23 184.39 40.53 185 40.92C185.63 41.32 185.94 41.84 185.94 42.49C185.94 42.88 185.83 43.21 185.62 43.48C185.4 43.75 185.13 43.88 184.82 43.88C184.6 43.88 184.39 43.84 184.18 43.75C183.97 43.66 183.71 43.52 183.4 43.35C182.83 43.05 182.33 42.83 181.92 42.68C181.51 42.53 181 42.46 180.39 42.46C179.66 42.46 179.08 42.61 178.66 42.9C178.23 43.2 178.02 43.61 178.02 44.12C178.02 44.61 178.24 44.98 178.67 45.24C179.1 45.49 179.94 45.75 181.18 46.01C182.5 46.28 183.54 46.6 184.29 46.95C185.04 47.31 185.57 47.75 185.9 48.28C186.23 48.81 186.39 49.49 186.39 50.32C186.39 51.66 185.83 52.73 184.72 53.54C183.61 54.35 182.12 54.76 180.27 54.76C178.12 54.76 176.39 54.34 175.07 53.49ZM200.12 41.2C201.09 42.2 201.58 43.71 201.58 45.74L201.58 52.95C201.58 53.48 201.42 53.9 201.11 54.21C200.79 54.52 200.35 54.67 199.8 54.67C199.29 54.67 198.88 54.51 198.55 54.19C198.22 53.88 198.06 53.46 198.06 52.95L198.06 52.3C197.73 53.07 197.2 53.68 196.48 54.11C195.76 54.54 194.93 54.76 193.98 54.76C193.01 54.76 192.14 54.56 191.35 54.17C190.56 53.77 189.94 53.23 189.49 52.54C189.04 51.85 188.81 51.08 188.81 50.23C188.81 49.17 189.08 48.33 189.62 47.72C190.17 47.11 191.05 46.67 192.27 46.39C193.49 46.12 195.17 45.98 197.32 45.98L198.06 45.98L198.06 45.3C198.06 44.33 197.85 43.63 197.44 43.19C197.03 42.74 196.36 42.52 195.43 42.52C194.86 42.52 194.28 42.6 193.69 42.77C193.1 42.94 192.4 43.18 191.59 43.5C191.08 43.75 190.7 43.88 190.46 43.88C190.11 43.88 189.82 43.75 189.59 43.5C189.36 43.24 189.25 42.9 189.25 42.49C189.25 42.16 189.33 41.87 189.5 41.62C189.67 41.37 189.96 41.14 190.35 40.92C191.04 40.55 191.86 40.25 192.81 40.04C193.77 39.82 194.71 39.71 195.64 39.71C197.65 39.71 199.14 40.21 200.12 41.2ZM197.13 51.11C197.75 50.45 198.06 49.6 198.06 48.55L198.06 47.93L197.53 47.93C196.21 47.93 195.18 47.99 194.45 48.11C193.72 48.22 193.2 48.43 192.89 48.73C192.58 49.02 192.42 49.43 192.42 49.94C192.42 50.57 192.64 51.08 193.08 51.49C193.53 51.9 194.07 52.1 194.72 52.1C195.71 52.1 196.51 51.77 197.13 51.11ZM217.6 41.19C218.45 42.18 218.87 43.66 218.87 45.65L218.87 52.92C218.87 53.47 218.71 53.91 218.38 54.22C218.05 54.54 217.61 54.7 217.04 54.7C216.47 54.7 216.01 54.54 215.68 54.22C215.34 53.91 215.17 53.47 215.17 52.92L215.17 45.86C215.17 44.74 214.96 43.92 214.54 43.41C214.11 42.9 213.45 42.64 212.54 42.64C211.48 42.64 210.63 42.97 209.99 43.64C209.35 44.31 209.03 45.21 209.03 46.33L209.03 52.92C209.03 53.47 208.86 53.91 208.52 54.22C208.19 54.54 207.73 54.7 207.16 54.7C206.59 54.7 206.15 54.54 205.82 54.22C205.49 53.91 205.33 53.47 205.33 52.92L205.33 41.49C205.33 40.98 205.5 40.56 205.83 40.24C206.17 39.93 206.62 39.77 207.19 39.77C207.7 39.77 208.12 39.92 208.45 40.23C208.78 40.54 208.94 40.94 208.94 41.43L208.94 42.22C209.43 41.41 210.09 40.79 210.92 40.36C211.75 39.93 212.68 39.71 213.73 39.71C215.46 39.71 216.75 40.2 217.6 41.19ZM226.98 53.49C225.47 52.62 224.32 51.38 223.51 49.76C222.7 48.15 222.3 46.26 222.3 44.09C222.3 41.92 222.7 40.04 223.51 38.43C224.32 36.82 225.47 35.59 226.98 34.72C228.49 33.85 230.25 33.42 232.26 33.42C233.56 33.42 234.78 33.61 235.92 33.99C237.07 34.38 238.08 34.93 238.97 35.66C239.22 35.86 239.4 36.07 239.5 36.28C239.6 36.5 239.65 36.77 239.65 37.08C239.65 37.51 239.53 37.88 239.29 38.18C239.06 38.47 238.77 38.62 238.44 38.62C238.04 38.62 237.63 38.48 237.22 38.2C236.37 37.57 235.59 37.14 234.86 36.89C234.13 36.64 233.33 36.52 232.44 36.52C230.39 36.52 228.83 37.16 227.78 38.44C226.73 39.72 226.2 41.6 226.2 44.09C226.2 46.59 226.73 48.48 227.78 49.76C228.83 51.04 230.39 51.68 232.44 51.68C233.29 51.68 234.07 51.55 234.79 51.3C235.5 51.04 236.31 50.61 237.22 50C237.42 49.88 237.62 49.78 237.81 49.7C238.01 49.62 238.22 49.58 238.44 49.58C238.77 49.58 239.06 49.73 239.29 50.03C239.53 50.32 239.65 50.69 239.65 51.12C239.65 51.41 239.6 51.67 239.5 51.9C239.4 52.13 239.22 52.34 238.97 52.54C238.08 53.27 237.07 53.82 235.92 54.21C234.78 54.6 233.56 54.79 232.26 54.79C230.25 54.79 228.49 54.36 226.98 53.49ZM243.18 54.24C242.83 53.93 242.66 53.49 242.66 52.92L242.66 35.28C242.66 34.71 242.83 34.27 243.18 33.98C243.53 33.68 243.96 33.53 244.49 33.53C245.02 33.53 245.47 33.68 245.82 33.98C246.18 34.27 246.36 34.71 246.36 35.28L246.36 52.92C246.36 53.49 246.18 53.93 245.82 54.24C245.47 54.55 245.02 54.7 244.49 54.7C243.96 54.7 243.53 54.55 243.18 54.24ZM252.87 53.84C251.76 53.23 250.9 52.35 250.29 51.21C249.68 50.07 249.37 48.74 249.37 47.22C249.37 45.7 249.68 44.37 250.29 43.24C250.9 42.11 251.76 41.24 252.87 40.63C253.98 40.02 255.28 39.71 256.76 39.71C258.24 39.71 259.54 40.02 260.65 40.63C261.76 41.24 262.62 42.11 263.22 43.24C263.82 44.37 264.12 45.7 264.12 47.22C264.12 48.74 263.82 50.07 263.22 51.21C262.62 52.35 261.76 53.23 260.65 53.84C259.54 54.45 258.24 54.76 256.76 54.76C255.28 54.76 253.98 54.45 252.87 53.84ZM259.48 50.71C260.11 49.92 260.43 48.75 260.43 47.22C260.43 45.7 260.11 44.54 259.48 43.75C258.85 42.95 257.94 42.55 256.76 42.55C255.58 42.55 254.67 42.95 254.03 43.75C253.39 44.54 253.07 45.7 253.07 47.22C253.07 48.75 253.38 49.92 254.01 50.71C254.64 51.5 255.55 51.89 256.73 51.89C257.93 51.89 258.85 51.5 259.48 50.71ZM279.93 40.24C280.27 40.56 280.44 40.99 280.44 41.52L280.44 52.98C280.44 53.49 280.27 53.91 279.92 54.22C279.57 54.54 279.12 54.7 278.57 54.7C278.04 54.7 277.62 54.55 277.3 54.25C276.99 53.96 276.83 53.55 276.83 53.04L276.83 52.3C276.38 53.09 275.77 53.7 275 54.12C274.23 54.55 273.36 54.76 272.4 54.76C268.85 54.76 267.08 52.77 267.08 48.79L267.08 41.52C267.08 40.99 267.25 40.56 267.58 40.24C267.91 39.93 268.36 39.77 268.91 39.77C269.48 39.77 269.94 39.93 270.27 40.24C270.6 40.56 270.77 40.99 270.77 41.52L270.77 48.82C270.77 49.84 270.98 50.6 271.39 51.09C271.8 51.58 272.45 51.83 273.34 51.83C274.37 51.83 275.19 51.49 275.81 50.81C276.43 50.13 276.74 49.23 276.74 48.11L276.74 41.52C276.74 40.99 276.91 40.56 277.24 40.24C277.58 39.93 278.02 39.77 278.57 39.77C279.14 39.77 279.6 39.93 279.93 40.24ZM297.7 34.01C298.05 34.32 298.23 34.74 298.23 35.25L298.23 52.92C298.23 53.45 298.06 53.88 297.73 54.19C297.39 54.51 296.95 54.67 296.4 54.67C295.85 54.67 295.4 54.51 295.07 54.19C294.73 53.88 294.56 53.45 294.56 52.92L294.56 52.19C294.13 53 293.5 53.63 292.69 54.08C291.87 54.53 290.94 54.76 289.89 54.76C288.65 54.76 287.54 54.44 286.57 53.81C285.6 53.18 284.84 52.29 284.29 51.14C283.75 49.99 283.48 48.66 283.48 47.16C283.48 45.66 283.75 44.35 284.29 43.23C284.84 42.1 285.59 41.24 286.55 40.63C287.52 40.02 288.63 39.71 289.89 39.71C290.94 39.71 291.86 39.93 292.67 40.36C293.48 40.79 294.1 41.4 294.53 42.19L294.53 35.19C294.53 34.7 294.69 34.3 295.02 33.99C295.35 33.68 295.79 33.53 296.34 33.53C296.89 33.53 297.34 33.69 297.7 34.01ZM293.6 50.68C294.24 49.87 294.56 48.72 294.56 47.22C294.56 45.72 294.24 44.57 293.6 43.78C292.96 42.98 292.06 42.58 290.9 42.58C289.71 42.58 288.8 42.97 288.15 43.76C287.5 44.55 287.17 45.68 287.17 47.16C287.17 48.66 287.5 49.82 288.15 50.65C288.8 51.48 289.7 51.89 290.87 51.89C292.05 51.89 292.96 51.49 293.6 50.68Z" />
				</g>
			</g>
		</g>
	</g>
</svg>