<svg data-v-52670bb1="" version="1.0" xmlns="http://www.w3.org/2000/svg" xmlns:xlink="http://www.w3.org/1999/xlink" width="100%" height="100%" viewBox="0 0 340.000000 250.000000" preserveAspectRatio="xMidYMid meet" color-interpolation-filters="sRGB" class="el-tooltip" style="margin: auto;"><rect data-v-52670bb1="" x="0" y="0" width="100%" height="100%" fill="#fff" fill-opacity="0" class="background"></rect> <rect data-v-52670bb1="" x="0" y="0" width="100%" height="100%" fill="url(#watermark)" fill-opacity="1" class="watermarklayer"></rect> <g data-v-52670bb1="" fill="#e50012" class="icon-text-wrapper icon-svg-group iconsvg" transform="translate(47.770118713378906,100.54029273986816)"><g class="iconsvg-imagesvg" transform="translate(0,0)"><rect fill="#e50012" fill-opacity="0" stroke-width="2" x="0" y="0" width="60" height="48.91941368285411" class="image-rect"></rect> <svg x="0" y="0" width="60" height="48.91941368285411" filtersec="colorsb3696510049" class="image-svg-svg primary"><svg version="1.1" id="图层_1" xmlns="http://www.w3.org/2000/svg" xmlns:xlink="http://www.w3.org/1999/xlink" x="0px" y="0px" viewBox="1.6299999952316284 0.9700000286102295 103.37000274658203 84.27999877929688" enable-background="new 0 0 106 86" xml:space="preserve">
<g>
	<polygon fill="#231815" points="81.11,85.25 39.73,85.25 63.62,39.01 105,39.01 	"></polygon>
	<polygon fill="#231815" points="104.85,33.41 63.47,33.41 30.37,0.97 71.75,0.97 	"></polygon>
	<polygon fill="#3370ff" points="35.38,83.29 1.63,49.63 25.52,3.39 59.27,37.05 	"></polygon>
</g>
</svg></svg> <!----></g> <g transform="translate(67,13.669707298278809)"><g data-gra="path-name" fill-rule="" class="tp-name iconsvg-namesvg"><g><path fill="#3370ff" d="M21.13-2.28Q21.31-1.89 21.31-1.51L21.31-1.51Q21.31-0.83 20.76-0.35Q20.22 0.12 19.51 0.12L19.51 0.12Q19.03 0.12 18.62-0.13Q18.21-0.38 17.97-0.92L17.97-0.92L16.20-4.88L5.79-4.88L4.02-0.92Q3.78-0.38 3.37-0.13Q2.96 0.12 2.45 0.12L2.45 0.12Q1.77 0.12 1.21-0.35Q0.65-0.83 0.65-1.51L0.65-1.51Q0.65-1.89 0.83-2.28L0.83-2.28L8.99-19.80Q9.25-20.39 9.80-20.70Q10.34-21.01 10.97-21.01L10.97-21.01Q11.59-21.01 12.13-20.70Q12.68-20.39 12.95-19.80L12.95-19.80L21.13-2.28ZM11.00-16.61L7.09-7.83L14.90-7.83L11.00-16.61ZM31.92-14.75Q32.69-14.81 33.13-14.42Q33.58-14.04 33.58-13.27L33.58-13.27Q33.58-12.47 33.19-12.09Q32.81-11.70 31.80-11.59L31.80-11.59L30.92-11.50Q29.17-11.32 28.36-10.32Q27.55-9.31 27.55-7.80L27.55-7.80L27.55-1.60Q27.55-0.74 27.01-0.28Q26.48 0.18 25.68 0.18L25.68 0.18Q24.89 0.18 24.37-0.28Q23.85-0.74 23.85-1.60L23.85-1.60L23.85-13.03Q23.85-13.86 24.37-14.31Q24.89-14.75 25.66-14.75L25.66-14.75Q26.42-14.75 26.90-14.32Q27.37-13.89 27.37-13.09L27.37-13.09L27.37-11.91Q27.93-13.21 29.04-13.92Q30.15-14.63 31.51-14.72L31.51-14.72L31.92-14.75ZM44.01-2.57Q45.49-2.48 45.49-1.24L45.49-1.24Q45.49-0.53 44.91-0.16Q44.33 0.21 43.27 0.15L43.27 0.15L42.47 0.09Q37.51-0.27 37.51-5.23L37.51-5.23L37.51-11.67L36.03-11.67Q35.23-11.67 34.80-12.03Q34.37-12.38 34.37-13.06L34.37-13.06Q34.37-13.74 34.80-14.10Q35.23-14.45 36.03-14.45L36.03-14.45L37.51-14.45L37.51-17.17Q37.51-17.97 38.01-18.44Q38.51-18.92 39.37-18.92L39.37-18.92Q40.20-18.92 40.70-18.44Q41.20-17.97 41.20-17.17L41.20-17.17L41.20-14.45L43.71-14.45Q44.51-14.45 44.94-14.10Q45.37-13.74 45.37-13.06L45.37-13.06Q45.37-12.38 44.94-12.03Q44.51-11.67 43.71-11.67L43.71-11.67L41.20-11.67L41.20-4.97Q41.20-2.78 43.21-2.63L43.21-2.63L44.01-2.57ZM49.24 0.18Q48.44 0.18 47.93-0.28Q47.41-0.74 47.41-1.60L47.41-1.60L47.41-13.00Q47.41-13.86 47.93-14.31Q48.44-14.75 49.24-14.75L49.24-14.75Q50.04-14.75 50.57-14.31Q51.10-13.86 51.10-13.00L51.10-13.00L51.10-1.60Q51.10-0.74 50.57-0.28Q50.04 0.18 49.24 0.18L49.24 0.18ZM49.24-17.38Q48.24-17.38 47.65-17.93Q47.05-18.47 47.05-19.36L47.05-19.36Q47.05-20.25 47.65-20.78Q48.24-21.31 49.24-21.31L49.24-21.31Q50.22-21.31 50.82-20.78Q51.43-20.25 51.43-19.36L51.43-19.36Q51.43-18.47 50.84-17.93Q50.25-17.38 49.24-17.38L49.24-17.38ZM60.15 0.24Q56.93 0.24 54.95-1.03L54.95-1.03Q54.00-1.60 54.00-2.63L54.00-2.63Q54.00-3.22 54.33-3.59Q54.65-3.96 55.12-3.96L55.12-3.96Q55.63-3.96 56.51-3.49L56.51-3.49Q57.46-3.04 58.24-2.81Q59.02-2.57 60.24-2.57L60.24-2.57Q61.48-2.57 62.17-2.99Q62.87-3.40 62.87-4.14L62.87-4.14Q62.87-4.64 62.59-4.94Q62.31-5.23 61.58-5.48Q60.86-5.73 59.38-6.06L59.38-6.06Q56.75-6.59 55.61-7.57Q54.47-8.54 54.47-10.26L54.47-10.26Q54.47-11.56 55.24-12.61Q56.01-13.66 57.35-14.23Q58.70-14.81 60.41-14.81L60.41-14.81Q61.66-14.81 62.81-14.50Q63.96-14.19 64.88-13.60L64.88-13.60Q65.82-13.00 65.82-12.03L65.82-12.03Q65.82-11.44 65.50-11.04Q65.17-10.64 64.70-10.64L64.70-10.64Q64.37-10.64 64.06-10.77Q63.75-10.91 63.28-11.17L63.28-11.17Q62.42-11.62 61.80-11.84Q61.18-12.06 60.27-12.06L60.27-12.06Q59.17-12.06 58.54-11.62Q57.90-11.17 57.90-10.40L57.90-10.40Q57.90-9.67 58.55-9.28Q59.20-8.90 61.06-8.51L61.06-8.51Q63.04-8.10 64.17-7.57Q65.29-7.03 65.78-6.24Q66.27-5.44 66.27-4.20L66.27-4.20Q66.27-2.19 64.60-0.98Q62.93 0.24 60.15 0.24L60.15 0.24ZM75.52-14.81Q78.53-14.81 80.00-13.32Q81.46-11.82 81.46-8.78L81.46-8.78L81.46-1.57Q81.46-0.77 80.99-0.31Q80.51 0.15 79.68 0.15L79.68 0.15Q78.92 0.15 78.43-0.33Q77.94-0.80 77.94-1.57L77.94-1.57L77.94-2.22Q77.44-1.06 76.36-0.41Q75.28 0.24 73.86 0.24L73.86 0.24Q72.41 0.24 71.23-0.35Q70.05-0.95 69.37-1.98Q68.69-3.01 68.69-4.29L68.69-4.29Q68.69-5.88 69.50-6.80Q70.32-7.71 72.15-8.13Q73.98-8.54 77.20-8.54L77.20-8.54L77.94-8.54L77.94-9.22Q77.94-10.67 77.32-11.33Q76.70-12 75.31-12L75.31-12Q74.45-12 73.57-11.75Q72.68-11.50 71.47-11.02L71.47-11.02Q70.70-10.64 70.34-10.64L70.34-10.64Q69.81-10.64 69.47-11.02Q69.13-11.41 69.13-12.03L69.13-12.03Q69.13-12.53 69.38-12.90Q69.64-13.27 70.23-13.60L70.23-13.60Q71.26-14.16 72.69-14.48Q74.13-14.81 75.52-14.81L75.52-14.81ZM74.60-2.42Q76.08-2.42 77.01-3.41Q77.94-4.40 77.94-5.97L77.94-5.97L77.94-6.59L77.41-6.59Q75.43-6.59 74.33-6.41Q73.24-6.24 72.77-5.79Q72.30-5.35 72.30-4.58L72.30-4.58Q72.30-3.64 72.96-3.03Q73.63-2.42 74.60-2.42L74.60-2.42ZM93.61-14.81Q96.21-14.81 97.48-13.33Q98.75-11.85 98.75-8.87L98.75-8.87L98.75-1.60Q98.75-0.77 98.26-0.30Q97.77 0.18 96.92 0.18L96.92 0.18Q96.06 0.18 95.56-0.30Q95.05-0.77 95.05-1.60L95.05-1.60L95.05-8.66Q95.05-10.34 94.42-11.11Q93.78-11.88 92.42-11.88L92.42-11.88Q90.83-11.88 89.87-10.88Q88.91-9.87 88.91-8.19L88.91-8.19L88.91-1.60Q88.91-0.77 88.40-0.30Q87.90 0.18 87.04 0.18L87.04 0.18Q86.19 0.18 85.70-0.30Q85.21-0.77 85.21-1.60L85.21-1.60L85.21-13.03Q85.21-13.80 85.71-14.28Q86.22-14.75 87.07-14.75L87.07-14.75Q87.84-14.75 88.33-14.29Q88.82-13.83 88.82-13.09L88.82-13.09L88.82-12.30Q89.56-13.51 90.80-14.16Q92.04-14.81 93.61-14.81L93.61-14.81ZM112.14 0.27Q109.12 0.27 106.86-1.03Q104.60-2.33 103.39-4.76Q102.18-7.18 102.18-10.43L102.18-10.43Q102.18-13.68 103.39-16.09Q104.60-18.50 106.86-19.80Q109.12-21.10 112.14-21.10L112.14-21.10Q114.09-21.10 115.80-20.53Q117.52-19.95 118.85-18.86L118.85-18.86Q119.23-18.56 119.38-18.24Q119.53-17.91 119.53-17.44L119.53-17.44Q119.53-16.79 119.17-16.34Q118.82-15.90 118.32-15.90L118.32-15.90Q117.72-15.90 117.10-16.32L117.10-16.32Q115.83-17.26 114.74-17.63Q113.65-18 112.32-18L112.32-18Q109.24-18 107.66-16.08Q106.08-14.16 106.08-10.43L106.08-10.43Q106.08-6.68 107.66-4.76Q109.24-2.84 112.32-2.84L112.32-2.84Q113.59-2.84 114.67-3.22Q115.74-3.61 117.10-4.52L117.10-4.52Q117.40-4.70 117.69-4.82Q117.99-4.94 118.32-4.94L118.32-4.94Q118.82-4.94 119.17-4.49Q119.53-4.05 119.53-3.40L119.53-3.40Q119.53-2.96 119.38-2.62Q119.23-2.28 118.85-1.98L118.85-1.98Q117.52-0.89 115.80-0.31Q114.09 0.27 112.14 0.27L112.14 0.27ZM124.37 0.18Q123.58 0.18 123.06-0.28Q122.54-0.74 122.54-1.60L122.54-1.60L122.54-19.24Q122.54-20.10 123.06-20.54Q123.58-20.99 124.37-20.99L124.37-20.99Q125.17-20.99 125.70-20.54Q126.24-20.10 126.24-19.24L126.24-19.24L126.24-1.60Q126.24-0.74 125.70-0.28Q125.17 0.18 124.37 0.18L124.37 0.18ZM136.64 0.24Q134.42 0.24 132.75-0.68Q131.08-1.60 130.17-3.31Q129.25-5.02 129.25-7.30L129.25-7.30Q129.25-9.58 130.17-11.28Q131.08-12.98 132.75-13.89Q134.42-14.81 136.64-14.81L136.64-14.81Q138.86-14.81 140.53-13.89Q142.20-12.98 143.10-11.28Q144.00-9.58 144.00-7.30L144.00-7.30Q144.00-5.02 143.10-3.31Q142.20-1.60 140.53-0.68Q138.86 0.24 136.64 0.24L136.64 0.24ZM136.61-2.63Q138.41-2.63 139.36-3.81Q140.31-5.00 140.31-7.30L140.31-7.30Q140.31-9.58 139.36-10.77Q138.41-11.97 136.64-11.97L136.64-11.97Q134.87-11.97 133.91-10.77Q132.95-9.58 132.95-7.30L132.95-7.30Q132.95-5.00 133.89-3.81Q134.84-2.63 136.61-2.63L136.61-2.63ZM158.45-14.75Q159.31-14.75 159.81-14.28Q160.32-13.80 160.32-13.00L160.32-13.00L160.32-1.54Q160.32-0.77 159.80-0.30Q159.28 0.18 158.45 0.18L158.45 0.18Q157.66 0.18 157.18-0.27Q156.71-0.71 156.71-1.48L156.71-1.48L156.71-2.22Q156.03-1.03 154.88-0.40Q153.72 0.24 152.28 0.24L152.28 0.24Q146.96 0.24 146.96-5.73L146.96-5.73L146.96-13.00Q146.96-13.80 147.46-14.28Q147.96-14.75 148.79-14.75L148.79-14.75Q149.65-14.75 150.15-14.28Q150.65-13.80 150.65-13.00L150.65-13.00L150.65-5.70Q150.65-4.17 151.27-3.43Q151.89-2.69 153.22-2.69L153.22-2.69Q154.76-2.69 155.69-3.71Q156.62-4.73 156.62-6.41L156.62-6.41L156.62-13.00Q156.62-13.80 157.12-14.28Q157.63-14.75 158.45-14.75L158.45-14.75ZM176.22-20.99Q177.04-20.99 177.58-20.51Q178.11-20.04 178.11-19.27L178.11-19.27L178.11-1.60Q178.11-0.80 177.61-0.33Q177.10 0.15 176.28 0.15L176.28 0.15Q175.45 0.15 174.95-0.33Q174.44-0.80 174.44-1.60L174.44-1.60L174.44-2.33Q173.79-1.12 172.57-0.44Q171.34 0.24 169.77 0.24L169.77 0.24Q167.91 0.24 166.45-0.71Q164.99-1.66 164.17-3.38Q163.36-5.11 163.36-7.36L163.36-7.36Q163.36-9.61 164.17-11.29Q164.99-12.98 166.43-13.89Q167.88-14.81 169.77-14.81L169.77-14.81Q171.34-14.81 172.55-14.16Q173.76-13.51 174.41-12.33L174.41-12.33L174.41-19.33Q174.41-20.07 174.90-20.53Q175.39-20.99 176.22-20.99L176.22-20.99ZM170.75-2.63Q172.52-2.63 173.48-3.84Q174.44-5.05 174.44-7.30L174.44-7.30Q174.44-9.55 173.48-10.74Q172.52-11.94 170.78-11.94L170.78-11.94Q169.00-11.94 168.03-10.76Q167.05-9.58 167.05-7.36L167.05-7.36Q167.05-5.11 168.03-3.87Q169.00-2.63 170.75-2.63L170.75-2.63Z" transform="translate(-0.6502463054187193, 21.31034482758621)"></path></g> <!----> <!----> <!----> <!----> <!----> <!----> <!----></g> <!----></g></g><defs v-gra="od"></defs></svg>