<svg version="1.1" xmlns="http://www.w3.org/2000/svg" viewBox="0 0 829.8251488095239 951.4441964285711" width="1659.6502976190477" height="1902.8883928571422" style="background: rgb(255, 255, 255);">
  <!-- svg-source:excalidraw -->
  
  <defs>
    <style>
      @font-face {
        font-family: "Virgil";
        src: url("https://plus.excalidraw.com/Virgil.woff2");
      }
      @font-face {
        font-family: "Cascadia";
        src: url("https://plus.excalidraw.com/Cascadia.woff2");
      }
    </style>
  </defs>
  <rect x="0" y="0" width="829.8251488095239" height="951.4441964285711" fill="#ffffff"></rect><g stroke-linecap="round" transform="translate(10 15.52734375) rotate(0 65.052734375 28.2890625)"><path d="M1.45 0.74 C26.67 -0.83, 54.25 0.61, 128.53 -1.18 M0.47 0.16 C30.86 -0.59, 61.58 -0.76, 129.81 -0.89 M129.11 -0.64 C129.43 16.36, 132.4 37.16, 131.05 56.59 M129.83 -0.74 C130.43 17.81, 129.52 35.75, 129.75 57.05 M128.63 54.85 C85.5 58.31, 39.6 57.04, 1.59 56.93 M129.62 56.22 C83.31 57.04, 37.18 57.24, 0.32 56.74 M0.02 57.71 C1.4 43.05, -0.34 31.04, 0.56 1.76 M0.78 57.27 C-0.83 37.66, -0.17 15.94, -0.5 0.03" stroke="#000000" stroke-width="1" fill="none"></path></g><g transform="translate(32.552734375 29.55078125) rotate(0 42.5 14)"><text x="42.5" y="21" font-family="Virgil, Segoe UI Emoji" font-size="20px" fill="#000000" text-anchor="middle" style="white-space: pre;" direction="ltr">用户请求1</text></g><g stroke-linecap="round" transform="translate(201.458984375 10) rotate(0 65.052734375 28.2890625)"><path d="M1.34 -0.3 C31.58 -1.42, 66.29 0.93, 130.31 -0.04 M0.28 -0.18 C40.02 -0.31, 78.27 -0.3, 129.22 0.05 M129.58 -0.71 C130.59 16.4, 130.04 28.28, 129.57 57.95 M129.32 -0.41 C130.47 19.48, 129.29 39.04, 129.15 55.99 M128.13 55.2 C89.66 58.41, 44.99 57.22, -0.92 55.24 M129.51 56.54 C94.21 57.87, 57.75 57.67, 0.91 57.52 M-1.63 55.1 C1.76 34.46, 2.35 13.9, 0.25 1.28 M-0.3 57.21 C0.56 35.28, 0.98 15.6, -0.47 0.6" stroke="#000000" stroke-width="1" fill="none"></path></g><g transform="translate(219.51171875 24.2890625) rotate(0 47 14)"><text x="47" y="21" font-family="Virgil, Segoe UI Emoji" font-size="20px" fill="#000000" text-anchor="middle" style="white-space: pre;" direction="ltr">用户请求2</text></g><g stroke-linecap="round" transform="translate(390.330078125 10.85546875) rotate(0 65.052734375 28.2890625)"><path d="M-1.19 -0.07 C38.09 -0.89, 75.04 -1.27, 131.93 1.88 M-0.82 -0.74 C49.6 -1.48, 98.81 -1.12, 130.23 0.64 M129.51 1.26 C130.54 18.56, 131.37 40.38, 129.17 57.78 M130.29 0.16 C129.28 16.5, 129.46 34.42, 129.11 57.49 M128.83 56.35 C76.9 58.53, 28.31 58.27, -1 57.91 M129.45 56.28 C102.51 56.22, 75.78 56.2, 0.8 57.35 M1.77 58.22 C0.07 35.81, -1.59 17.82, -0.13 -0.25 M-0.37 56.04 C0.36 41.31, 0.33 26.25, -0.57 0.05" stroke="#000000" stroke-width="1" fill="none"></path></g><g transform="translate(407.3828125 25.14453125) rotate(0 48 14)"><text x="48" y="21" font-family="Virgil, Segoe UI Emoji" font-size="20px" fill="#000000" text-anchor="middle" style="white-space: pre;" direction="ltr">用户请求...</text></g><g stroke-linecap="round" transform="translate(139.58984375 255.046875) rotate(0 125.19921875 46.51953125)"><path d="M1.07 -1.11 C70.52 -1.02, 143.74 0.34, 250.05 -0.54 M-0.33 0.25 C72.95 -1.72, 145.51 -1.86, 250.87 -0.65 M248.72 0.66 C251.51 36.65, 251 73.24, 251.48 93.15 M249.86 0.49 C251.72 25.02, 250.1 50.93, 249.65 93.53 M251.21 94.01 C201.79 91.05, 149.48 92.54, 1.3 94.1 M250.11 93.79 C196.07 93.57, 142.49 93.6, 0.32 92.65 M-1.21 92.2 C0.58 65.05, 0.1 37.01, -0.38 1.16 M-0.36 93.6 C0.43 62.05, 0.15 29.48, 0.87 0.19" stroke="#000000" stroke-width="1" fill="none"></path></g><g transform="translate(162.609375 286.40625) rotate(0 104.5 14)"><text x="0" y="21" font-family="Helvetica, Segoe UI Emoji" font-size="20px" fill="#000000" text-anchor="start" style="white-space: pre;" direction="ltr">PowerWeChat业务系统</text></g><g stroke-linecap="round"><g transform="translate(74.3828125 75.20703125) rotate(0 72.009765625 87.21484375)"><path d="M-1.17 -0.34 C22.87 28.45, 119.54 144.27, 143.54 173.24 M0.41 -1.56 C24.32 27.28, 118.23 144.84, 142.34 174.16" stroke="#000000" stroke-width="1" fill="none"></path></g><g transform="translate(74.3828125 75.20703125) rotate(0 72.009765625 87.21484375)"><path d="M116.07 157.9 C120.9 160.68, 127.54 165.64, 143.95 174 M115.76 158.2 C126.31 164.82, 136.39 170.75, 143.17 174.26" stroke="#000000" stroke-width="1" fill="none"></path></g><g transform="translate(74.3828125 75.20703125) rotate(0 72.009765625 87.21484375)"><path d="M132.02 144.99 C133.07 150.72, 135.87 158.78, 143.95 174 M131.71 145.29 C135.89 156.97, 139.59 168.07, 143.17 174.26" stroke="#000000" stroke-width="1" fill="none"></path></g></g><g stroke-linecap="round"><g transform="translate(265.93359375 69.63671875) rotate(0 2.568359375 91)"><path d="M0.09 0.75 C0.95 31.35, 3.4 152.95, 4.43 183.06 M-1.32 0.1 C0 30.43, 5.54 151.1, 6.77 181.5" stroke="#000000" stroke-width="1" fill="none"></path></g><g transform="translate(265.93359375 69.63671875) rotate(0 2.568359375 91)"><path d="M-3.46 152.59 C-0.34 162.16, -0.33 165.54, 5.78 181.73 M-4.56 153.45 C-0.12 164.88, 3.86 175.32, 5.89 181.13" stroke="#000000" stroke-width="1" fill="none"></path></g><g transform="translate(265.93359375 69.63671875) rotate(0 2.568359375 91)"><path d="M17.04 151.7 C15.3 161.49, 10.44 165.08, 5.78 181.73 M15.94 152.55 C12.22 164.5, 8.03 175.29, 5.89 181.13" stroke="#000000" stroke-width="1" fill="none"></path></g></g><g stroke-linecap="round"><g transform="translate(450.06640625 72.19921875) rotate(0 -66.66796875 86.68359375)"><path d="M0.57 -0.65 C-21.6 28.2, -110.71 143.54, -132.85 172.44 M-0.59 1.63 C-22.88 30.65, -111.56 144.8, -133.54 173.49" stroke="#000000" stroke-width="1" fill="none"></path></g><g transform="translate(450.06640625 72.19921875) rotate(0 -66.66796875 86.68359375)"><path d="M-125.51 145.73 C-128.97 155.69, -131.23 163.08, -131.84 171.55 M-123.64 145.79 C-128.34 155.3, -130.97 167.23, -133.72 173.77" stroke="#000000" stroke-width="1" fill="none"></path></g><g transform="translate(450.06640625 72.19921875) rotate(0 -66.66796875 86.68359375)"><path d="M-109.26 158.27 C-117.74 164.39, -125.08 167.85, -131.84 171.55 M-107.39 158.33 C-118.59 162.93, -127.6 169.93, -133.72 173.77" stroke="#000000" stroke-width="1" fill="none"></path></g></g><g stroke-linecap="round" transform="translate(150.14397321428567 444.1489955357142) rotate(0 100.25390625000006 26.861328125)"><path d="M1.48 -1.23 C81.38 -1.68, 159.4 -2.8, 199.76 -0.87 M-0.25 0.69 C62.67 -1.08, 125.12 -1.04, 201.09 0.47 M200.95 -0.31 C198.89 19.25, 201.7 40.74, 201.28 52.16 M201.26 0.87 C200.55 19.93, 199.51 39.71, 199.98 52.87 M199.83 54.9 C158.79 54.61, 112.53 55.2, 0.46 54.24 M201.07 53.27 C139.84 53.57, 77.14 53.48, -0.67 54.44 M1.9 52.29 C0.71 35.83, -0.17 20.25, -1.1 -1.74 M0.23 54.14 C0.63 39.05, 0.22 25.39, -0.57 -0.01" stroke="#000000" stroke-width="1" fill="none"></path></g><g stroke-linecap="round"><g transform="translate(254.5763660819423 357.99675592018934) rotate(0 3.3621057189725434 41.142348047575524)"><path d="M0.51 -0.74 C1.48 13.03, 5.65 68.22, 6.84 82.15 M-0.68 1.48 C0.05 15.49, 4.62 70.4, 5.95 83.61" stroke="#000000" stroke-width="1" fill="none"></path></g><g transform="translate(254.5763660819423 357.99675592018934) rotate(0 3.3621057189725434 41.142348047575524)"><path d="M-8.03 56.64 C-2.25 68.3, 3.73 76.1, 4.16 85.61 M-6.38 57.23 C-1.93 66.05, 1.78 73.35, 6.19 82.76" stroke="#000000" stroke-width="1" fill="none"></path></g><g transform="translate(254.5763660819423 357.99675592018934) rotate(0 3.3621057189725434 41.142348047575524)"><path d="M12.41 54.8 C10.33 67.25, 8.45 75.77, 4.16 85.61 M14.06 55.39 C11.87 64.77, 8.95 72.66, 6.19 82.76" stroke="#000000" stroke-width="1" fill="none"></path></g></g><g transform="translate(172.68694196428567 457.0532924107142) rotate(0 74.5 14)"><text x="74.5" y="21" font-family="Helvetica, Segoe UI Emoji" font-size="20px" fill="#000000" text-anchor="middle" style="white-space: pre;" direction="ltr">获取服务端token</text></g><g stroke-linecap="round"><g transform="translate(247.61864919106722 501.38269357082436) rotate(0 2.1954860739235187 44.539886792801326)"><path d="M-0.55 0.15 C0.21 15.13, 3.21 75.06, 3.92 89.7 M1.36 -0.82 C1.98 13.83, 2.52 72.97, 2.73 87.9" stroke="#000000" stroke-width="1" fill="none"></path></g><g transform="translate(247.61864919106722 501.38269357082436) rotate(0 2.1954860739235187 44.539886792801326)"><path d="M-7.62 59.06 C-4.26 65.75, -4.45 74.28, 3.92 88.19 M-8.14 59.76 C-4.66 66.77, -2.79 75.09, 2.01 86.92" stroke="#000000" stroke-width="1" fill="none"></path></g><g transform="translate(247.61864919106722 501.38269357082436) rotate(0 2.1954860739235187 44.539886792801326)"><path d="M12.9 58.82 C11.19 65.47, 5.94 74.07, 3.92 88.19 M12.38 59.52 C10.45 66.67, 6.91 75.06, 2.01 86.92" stroke="#000000" stroke-width="1" fill="none"></path></g></g><g stroke-linecap="round" transform="translate(101.01525297619048 595.7527901785714) rotate(0 143.52343750000006 31.69256296268503)"><path d="M145.46 -1.17 C182.69 7.78, 218.88 18.69, 286.63 31.32 M143.6 0.86 C176.47 7.49, 207.59 14.38, 287.03 32.98 M287.81 31.82 C258.06 41.68, 228.13 44.38, 144.25 61.74 M287.05 32.93 C245.94 40.27, 203.82 49.85, 144.75 62.46 M142.07 62.6 C104.64 53.84, 63.43 45.21, -1.37 31.06 M143.4 63.91 C87.51 50.3, 32.25 37.48, 0.11 32.88 M-1.17 33.66 C34.53 25.64, 66.45 16.24, 142.71 -0.04 M0.91 32.11 C32.37 23.62, 64.17 17.16, 143.82 0.51" stroke="#000000" stroke-width="1" fill="none"></path></g><g transform="translate(154.73986235119048 617.1277901785714) rotate(0 90 11)"><text x="90" y="17" font-family="Helvetica, Segoe UI Emoji" font-size="16px" fill="#000000" text-anchor="middle" style="white-space: pre;" direction="ltr">Cache.Get(key) 是否有值</text></g><g transform="translate(382.0920758928572 463.15513392857133) rotate(0 145.00000000000006 9)"><text x="0" y="14" font-family="Helvetica, Segoe UI Emoji" font-size="16px" fill="#000000" text-anchor="start" style="white-space: pre;" direction="ltr">key: powerwechat.access_token.md5xxx</text></g><g stroke-linecap="round" transform="translate(108.77176339285711 880.3191964285711) rotate(0 136.25 30.5625)"><path d="M-1.48 0.89 C67.75 -1.84, 131.79 -2.04, 273.89 -0.02 M-0.26 0.08 C65.53 -0.24, 129.54 0.39, 272.08 0.13 M274.36 -1.15 C271.45 14.25, 273.3 31.53, 273.96 61.56 M272.82 -0.19 C272.13 13.72, 271.24 25.8, 272.74 60.42 M273.03 62.43 C165.79 61.23, 62.23 60.31, 1.53 60.44 M272.23 60.35 C213.78 59.52, 154.75 58.83, 0.45 61.02 M1.9 62.43 C0.62 49.75, 0.11 36.65, 1.89 0.82 M-0.35 60.96 C0.31 42.38, -0.42 24.1, 0.72 0.06" stroke="#000000" stroke-width="1" fill="none"></path></g><g transform="translate(128.2327008928571 901.7879464285711) rotate(0 120.5 11)"><text x="0" y="17" font-family="Helvetica, Segoe UI Emoji" font-size="16px" fill="#000000" text-anchor="start" style="white-space: pre;" direction="ltr">使用token发起微信服务端API调用</text></g><g stroke-linecap="round"><g transform="translate(248.65215722472362 664.6875887926099) rotate(0 0.6198846660747108 104.42908506798085)"><path d="M0.46 0.92 C0.87 35.68, 2.03 174.16, 2.3 209.01 M-0.76 0.36 C-0.4 35.3, 1.49 175.97, 1.9 210.62" stroke="#000000" stroke-width="1" fill="none"></path></g><g transform="translate(248.65215722472362 664.6875887926099) rotate(0 0.6198846660747108 104.42908506798085)"><path d="M-7.18 184.33 C-5.34 191.9, -0.63 198.57, 0.81 209.54 M-9.62 182.37 C-5.7 193.65, -1.21 204.61, 1.65 210.86" stroke="#000000" stroke-width="1" fill="none"></path></g><g transform="translate(248.65215722472362 664.6875887926099) rotate(0 0.6198846660747108 104.42908506798085)"><path d="M13.34 184.06 C9.33 191.79, 8.19 198.54, 0.81 209.54 M10.9 182.11 C6.71 193.41, 3.1 204.47, 1.65 210.86" stroke="#000000" stroke-width="1" fill="none"></path></g></g><g transform="translate(268.74051339285734 703.3139880952383) rotate(0 8 11)"><text x="0" y="17" font-family="Helvetica, Segoe UI Emoji" font-size="16px" fill="#000000" text-anchor="start" style="white-space: pre;" direction="ltr">有</text></g><g stroke-linecap="round" transform="translate(549.2040550595239 656.6928943452384) rotate(0 135.310546875 30.71484375)"><path d="M-1.07 0.14 C101.42 0.43, 200.26 0.89, 269.93 -0.06 M0.62 0.7 C99.89 -1.5, 201.43 -1.16, 270.85 0.58 M271.45 -0.57 C270.45 11.65, 268.35 23.15, 272.51 62.24 M270.18 -0.78 C270.74 17.82, 269.1 34.63, 271.05 60.47 M271.63 62.38 C210.76 61.62, 149.48 61.45, -0.97 60.62 M270.08 61.02 C202.77 60.98, 134.95 61.34, 0 61.26 M1.04 62.64 C-1.76 50.15, -2.19 34.43, -0.4 1.69 M0.8 61.61 C-0.94 39.88, -0.1 19.34, -0.72 0.27" stroke="#000000" stroke-width="1" fill="none"></path></g><g transform="translate(561.2548363095239 677.1303943452384) rotate(0 121.5 11)"><text x="0" y="17" font-family="Helvetica, Segoe UI Emoji" font-size="16px" fill="#000000" text-anchor="start" style="white-space: pre;" direction="ltr">使用appid+secret找微信获得token</text></g><g stroke-linecap="round"><g transform="translate(341.80355220293984 641.2950015087038) rotate(0 104.54522685893886 17.61155568153589)"><path d="M-0.02 -0.7 C34.73 5.36, 173.07 29.45, 208.06 35.41 M-1.5 1.55 C33.65 7.91, 175.05 31.26, 210.24 37.05" stroke="#000000" stroke-width="1" fill="none"></path></g><g transform="translate(341.80355220293984 641.2950015087038) rotate(0 104.54522685893886 17.61155568153589)"><path d="M179.58 40.87 C188.89 42.57, 196.1 39.41, 211.04 38.84 M181.61 42.88 C190.9 41.06, 199.97 38.69, 209.57 36.26" stroke="#000000" stroke-width="1" fill="none"></path></g><g transform="translate(341.80355220293984 641.2950015087038) rotate(0 104.54522685893886 17.61155568153589)"><path d="M182.93 20.62 C191.19 27.66, 197.52 29.84, 211.04 38.84 M184.95 22.63 C193.27 27.75, 201.2 32.27, 209.57 36.26" stroke="#000000" stroke-width="1" fill="none"></path></g></g><g stroke-linecap="round"><g transform="translate(678.7343881521142 721.1694568452384) rotate(0 -0.6469527886983997 33.17577496570061)"><path d="M1.03 0.78 C0.83 11.88, 0.27 54.84, -0.2 65.92 M0.11 0.15 C-0.24 11.46, -0.09 56.35, -0.57 67.24" stroke="#000000" stroke-width="1" fill="none"></path></g><g transform="translate(678.7343881521142 721.1694568452384) rotate(0 -0.6469527886983997 33.17577496570061)"><path d="M-9.04 40.7 C-7.47 48.82, -1.43 59.91, -1.02 66.71 M-10.24 38.01 C-7.96 44.36, -6.56 51.47, -0.34 67.83" stroke="#000000" stroke-width="1" fill="none"></path></g><g transform="translate(678.7343881521142 721.1694568452384) rotate(0 -0.6469527886983997 33.17577496570061)"><path d="M11.48 41.05 C5.21 49.22, 3.4 60.17, -1.02 66.71 M10.28 38.36 C8.15 44.62, 5.13 51.65, -0.34 67.83" stroke="#000000" stroke-width="1" fill="none"></path></g></g><g stroke-linecap="round" transform="translate(553.1845238095239 796.9428943452383) rotate(0 132.048828125 27.80859375)"><path d="M1.54 -0.57 C56.01 -0.46, 113 -0.33, 262.99 0.22 M-0.57 -0.52 C96.67 0.51, 191.45 0.37, 263.32 -0.26 M265.66 1.1 C265.77 15, 263.75 29.57, 262.28 54.71 M264.17 0.78 C263.55 16.95, 263.15 33.18, 265.02 56 M265.18 56.66 C200.79 54.89, 136.98 54.19, -0.95 56.27 M263.66 54.98 C164.97 56.68, 65.94 55.46, -0.53 55.01 M-0.38 56.3 C1.95 41.86, 1.68 29.52, 0.69 -1.27 M0.8 56.47 C1.3 34.28, -0.06 13.23, -0.43 -0.19" stroke="#000000" stroke-width="1" fill="none"></path></g><g transform="translate(605.8310081845239 816.8100818452383) rotate(0 78 9)"><text x="78" y="14" font-family="Helvetica, Segoe UI Emoji" font-size="16px" fill="#000000" text-anchor="middle" style="white-space: pre;" direction="ltr">Cache.Set(key, value)</text></g><g stroke-linecap="round"><g transform="translate(645.5430102226292 855.5747666137527) rotate(0 -129.2964307065526 26.6781474700191)"><path d="M-0.04 0.36 C-43.06 9.39, -215.47 45.66, -258.64 54.46 M-1.53 -0.5 C-44.66 8.21, -216.52 43.78, -259.62 52.92" stroke="#000000" stroke-width="1" fill="none"></path></g><g transform="translate(645.5430102226292 855.5747666137527) rotate(0 -129.2964307065526 26.6781474700191)"><path d="M-233.53 37.02 C-238.75 40.3, -247.43 44, -259.15 53.15 M-233.71 37.66 C-242.63 42.76, -250.08 47.48, -260.31 52.4" stroke="#000000" stroke-width="1" fill="none"></path></g><g transform="translate(645.5430102226292 855.5747666137527) rotate(0 -129.2964307065526 26.6781474700191)"><path d="M-229.33 57.11 C-235.66 55.27, -245.41 53.85, -259.15 53.15 M-229.51 57.74 C-239.78 56.35, -248.59 54.57, -260.31 52.4" stroke="#000000" stroke-width="1" fill="none"></path></g></g></svg>