<svg xmlns="http://www.w3.org/2000/svg" viewBox="0 0 500 500"><g id="freepik--Floor--inject-73"><path d="M460,473.37c0,.15-94,.26-209.95.26s-210-.11-210-.26,94-.26,210-.26S460,473.23,460,473.37Z" style="fill:#263238"></path></g><g id="freepik--Screen--inject-73"><rect x="157.7" y="46.84" width="189.36" height="392.86" rx="19.94" style="fill:#e0e0e0"></rect><rect x="139.07" y="35.23" width="189.36" height="392.86" rx="19.94" style="fill:#fafafa"></rect><path d="M308.49,428.09l.73,0a16.25,16.25,0,0,0,2.17-.21,20,20,0,0,0,7.92-3,20.62,20.62,0,0,0,4.65-4.21,19.54,19.54,0,0,0,3.53-6.66c.15-.67.36-1.34.49-2a21,21,0,0,0,.28-2.15c.11-1.47.08-3,.08-4.59,0-3.17,0-6.54,0-10.12,0-28.6-.05-70-.09-121.1s0-112-.05-179.61q0-12.68,0-25.66V55.62a21.75,21.75,0,0,0-.92-6.41,19.64,19.64,0,0,0-13.67-13,21.12,21.12,0,0,0-3.25-.6c-1.11-.06-2.21-.11-3.34-.09H159A19.73,19.73,0,0,0,139.47,53c-.22,2.35-.11,4.78-.14,7.18v77.6c0,36.79,0,72.28,0,106.08s0,65.93,0,96q0,22.54,0,43.5,0,10.47,0,20.5c0,1.67,0,3.35,0,5l.06,1.22c0,.41.11.81.17,1.21a15.73,15.73,0,0,0,.51,2.38,19.78,19.78,0,0,0,12.6,13.23,21.5,21.5,0,0,0,2.22.62c.75.15,1.51.26,2.27.36,1.52.1,3.05.1,4.57.09h17.76l32.53,0,52.1.05L297,428l8.56,0,2.92,0s-1,0-2.92,0l-8.56,0-32.92.05-52.1,0-32.53,0H161.7c-1.52,0-3,0-4.6-.09-.77-.1-1.55-.21-2.31-.36a22.46,22.46,0,0,1-2.27-.63,20.15,20.15,0,0,1-12.84-13.46,18.13,18.13,0,0,1-.53-2.43c-.05-.41-.14-.82-.17-1.23l-.07-1.25c-.06-1.67,0-3.32,0-5q0-10,0-20.5,0-20.94,0-43.5c0-30.07,0-62.19,0-96s0-69.29,0-106.08q0-27.58,0-56.11V60.13c0-2.41-.08-4.8.14-7.24A20.25,20.25,0,0,1,159,35H307c1.12,0,2.25,0,3.38.09a22.08,22.08,0,0,1,3.34.62,20.87,20.87,0,0,1,6.13,2.79,20.64,20.64,0,0,1,7.88,10.58,22.54,22.54,0,0,1,.95,6.56q0,6.57,0,13.06V94.34c0,67.6,0,128.48-.06,179.61s-.06,92.5-.08,121.1c0,3.58,0,6.95,0,10.12,0,1.59,0,3.12-.09,4.6,0,.75-.2,1.46-.29,2.17s-.34,1.38-.51,2.05a19.68,19.68,0,0,1-3.57,6.71,21.22,21.22,0,0,1-4.69,4.21,19.73,19.73,0,0,1-8,3,13.94,13.94,0,0,1-2.18.18Z" style="fill:#263238"></path><path d="M160.67,72.12c0,1.17-.88,1.9-2.28,1.9h-1.06v1.45h-1.22V70.21h2.28C159.79,70.21,160.67,70.94,160.67,72.12Zm-1.23,0c0-.58-.38-.92-1.12-.92h-1V73h1C159.06,73,159.44,72.69,159.44,72.12Z" style="fill:#263238"></path><path d="M164.88,75.47l-1-1.47h-1.12v1.47h-1.21V70.21h2.27c1.41,0,2.29.73,2.29,1.91A1.71,1.71,0,0,1,165,73.78l1.18,1.69Zm-1.14-4.27h-1V73h1c.74,0,1.11-.34,1.11-.91S164.48,71.2,163.74,71.2Z" style="fill:#263238"></path><path d="M171.11,74.49v1H167V70.21h4v1h-2.76v1.14h2.44v.94h-2.44v1.22Z" style="fill:#263238"></path><path d="M173.29,71.19v1.39h2.44v1h-2.44v1.92h-1.21V70.21h4v1Z" style="fill:#263238"></path><path d="M180.94,74.49v1h-4.07V70.21h4v1h-2.76v1.14h2.44v.94h-2.44v1.22Z" style="fill:#263238"></path><path d="M185.25,75.47l-1-1.47h-1.12v1.47h-1.21V70.21h2.27c1.41,0,2.28.73,2.28,1.91a1.7,1.7,0,0,1-1.08,1.66l1.18,1.69Zm-1.14-4.27h-1V73h1c.75,0,1.12-.34,1.12-.91S184.86,71.2,184.11,71.2Z" style="fill:#263238"></path><path d="M191.49,74.49v1h-4.07V70.21h4v1h-2.76v1.14h2.44v.94h-2.44v1.22Z" style="fill:#263238"></path><path d="M197.27,70.21v5.26h-1l-2.62-3.19v3.19h-1.2V70.21h1l2.61,3.19V70.21Z" style="fill:#263238"></path><path d="M198.19,72.84a2.89,2.89,0,0,1,5-1.79l-.78.72a1.69,1.69,0,0,0-1.32-.61,1.68,1.68,0,0,0,0,3.36,1.67,1.67,0,0,0,1.32-.62l.78.72a2.88,2.88,0,0,1-5-1.78Z" style="fill:#263238"></path><path d="M208.09,74.49v1H204V70.21h4v1h-2.76v1.14h2.44v.94h-2.44v1.22Z" style="fill:#263238"></path><path d="M208.64,75l.41-.92a3.05,3.05,0,0,0,1.74.55c.72,0,1-.24,1-.56,0-1-3.06-.31-3.06-2.26,0-.9.72-1.64,2.22-1.64a3.47,3.47,0,0,1,1.82.47l-.37.92A3,3,0,0,0,211,71.1c-.72,0-1,.27-1,.6,0,1,3.06.3,3.06,2.23,0,.88-.73,1.63-2.23,1.63A3.74,3.74,0,0,1,208.64,75Z" style="fill:#263238"></path><path d="M162.71,104.19h.93v2.1a3.37,3.37,0,0,1-2.06.67,2.71,2.71,0,1,1,2.12-4.55l-.61.6a1.94,1.94,0,0,0-1.45-.6,1.85,1.85,0,1,0,0,3.69,2.07,2.07,0,0,0,1.08-.27Z" style="fill:#263238"></path><path d="M168.58,105.18h-3.15a1.22,1.22,0,0,0,1.3,1,1.41,1.41,0,0,0,1.09-.44l.5.58a2.25,2.25,0,0,1-3.82-1.4,2,2,0,0,1,2.07-2,2,2,0,0,1,2,2.07C168.59,105,168.59,105.09,168.58,105.18Zm-3.15-.63h2.27a1.09,1.09,0,0,0-1.13-1A1.1,1.1,0,0,0,165.43,104.55Z" style="fill:#263238"></path><path d="M173.44,104.58v2.3h-.94V104.7c0-.71-.35-1-.95-1a1.06,1.06,0,0,0-1.12,1.2v2h-.94v-4h.9v.52a1.71,1.71,0,0,1,1.38-.56A1.56,1.56,0,0,1,173.44,104.58Z" style="fill:#263238"></path><path d="M178.42,105.18h-3.14a1.22,1.22,0,0,0,1.3,1,1.39,1.39,0,0,0,1.08-.44l.51.58a2.26,2.26,0,0,1-3.83-1.4,2,2,0,0,1,2.07-2,2,2,0,0,1,2,2.07C178.44,105,178.43,105.09,178.42,105.18Zm-3.15-.63h2.27a1.08,1.08,0,0,0-1.13-1A1.1,1.1,0,0,0,175.27,104.55Z" style="fill:#263238"></path><path d="M181.66,102.83v.89l-.22,0a1.1,1.1,0,0,0-1.17,1.24v1.94h-.93v-4h.89v.59A1.58,1.58,0,0,1,181.66,102.83Z" style="fill:#263238"></path><path d="M185.78,104.53v2.35h-.88v-.49a1.41,1.41,0,0,1-1.26.54c-.92,0-1.5-.5-1.5-1.2s.45-1.19,1.67-1.19h1v-.06c0-.55-.33-.87-1-.87a2,2,0,0,0-1.22.4l-.37-.69a2.82,2.82,0,0,1,1.7-.49C185.12,102.83,185.78,103.38,185.78,104.53Zm-.94,1.1v-.47h-1c-.64,0-.81.24-.81.54s.28.55.76.55A1,1,0,0,0,184.84,105.63Z" style="fill:#263238"></path><path d="M187,101.31h.94v5.57H187Z" style="fill:#263238"></path><path d="M212.19,101.63v5.25h-.81l-2.89-3.56v3.56h-1v-5.25h.8l2.9,3.55v-3.55Z" style="fill:#e0e0e0"></path><path d="M213.17,104.88a2.14,2.14,0,1,1,2.14,2.05A2,2,0,0,1,213.17,104.88Zm3.33,0a1.19,1.19,0,1,0-1.19,1.25A1.17,1.17,0,0,0,216.5,104.88Z" style="fill:#e0e0e0"></path><path d="M220.75,106.66a1.46,1.46,0,0,1-.9.27,1.23,1.23,0,0,1-1.38-1.35v-1.93h-.66v-.75h.66V102h.94v.91h1.07v.75h-1.07v1.91a.52.52,0,0,0,.56.6.85.85,0,0,0,.52-.16Z" style="fill:#e0e0e0"></path><path d="M221.4,101.65a.6.6,0,0,1,1.2,0,.6.6,0,0,1-1.2,0Zm.13,1.22h.93v4h-.93Z" style="fill:#e0e0e0"></path><path d="M225.26,101.26a1.48,1.48,0,0,1,.84.22l-.26.7a.89.89,0,0,0-.52-.16c-.39,0-.59.21-.59.64v.24h1.1v.75h-1.07v3.23h-.94v-3.23h-.66v-.75h.66v-.25A1.3,1.3,0,0,1,225.26,101.26Zm1.68.39a.6.6,0,0,1,1.2,0,.6.6,0,0,1-1.2,0Zm.13,1.22H228v4h-.93Z" style="fill:#e0e0e0"></path><path d="M228.9,104.88a2,2,0,0,1,2.17-2,1.8,1.8,0,0,1,1.71.93l-.72.42a1.14,1.14,0,0,0-1-.56,1.26,1.26,0,0,0,0,2.51,1.13,1.13,0,0,0,1-.55l.72.42a1.82,1.82,0,0,1-1.71.93A2,2,0,0,1,228.9,104.88Z" style="fill:#e0e0e0"></path><path d="M237,104.53v2.35h-.89v-.49a1.4,1.4,0,0,1-1.26.54c-.92,0-1.49-.5-1.49-1.2s.45-1.19,1.66-1.19h1v-.06c0-.55-.33-.87-1-.87a2,2,0,0,0-1.22.4l-.36-.69a2.79,2.79,0,0,1,1.69-.49C236.28,102.83,237,103.38,237,104.53Zm-.94,1.1v-.47h-1c-.64,0-.81.24-.81.54s.28.55.76.55A1,1,0,0,0,236,105.63Z" style="fill:#e0e0e0"></path><path d="M240.55,106.66a1.46,1.46,0,0,1-.9.27,1.23,1.23,0,0,1-1.38-1.35v-1.93h-.66v-.75h.66V102h.94v.91h1.07v.75h-1.07v1.91a.52.52,0,0,0,.56.6.85.85,0,0,0,.52-.16Z" style="fill:#e0e0e0"></path><path d="M241.2,101.65a.6.6,0,0,1,1.2,0,.6.6,0,0,1-1.2,0Zm.13,1.22h.93v4h-.93Z" style="fill:#e0e0e0"></path><path d="M243.16,104.88a2.14,2.14,0,1,1,2.14,2.05A2,2,0,0,1,243.16,104.88Zm3.33,0a1.19,1.19,0,1,0-1.19,1.25A1.17,1.17,0,0,0,246.49,104.88Z" style="fill:#e0e0e0"></path><path d="M252.28,104.58v2.3h-.94V104.7c0-.71-.35-1-1-1a1.06,1.06,0,0,0-1.12,1.2v2h-.94v-4h.9v.52a1.73,1.73,0,0,1,1.38-.56A1.56,1.56,0,0,1,252.28,104.58Z" style="fill:#e0e0e0"></path><path d="M253,106.48l.36-.71a2.7,2.7,0,0,0,1.39.4c.59,0,.84-.17.84-.45,0-.76-2.47,0-2.47-1.64,0-.76.68-1.25,1.76-1.25a3.16,3.16,0,0,1,1.5.34l-.36.72a2.13,2.13,0,0,0-1.15-.3c-.57,0-.84.18-.84.45,0,.81,2.48.09,2.48,1.66,0,.75-.69,1.23-1.82,1.23A3.11,3.11,0,0,1,253,106.48Z" style="fill:#e0e0e0"></path><path d="M281.34,103.5c0,1.15-.86,1.86-2.24,1.86h-1.19v1.52h-1v-5.25h2.16C280.48,101.63,281.34,102.33,281.34,103.5Zm-1,0c0-.67-.44-1-1.3-1h-1.14v2.09h1.14C279.91,104.54,280.35,104.16,280.35,103.5Z" style="fill:#e0e0e0"></path><path d="M284.5,102.83v.89l-.22,0a1.09,1.09,0,0,0-1.16,1.24v1.94h-.94v-4h.89v.59A1.58,1.58,0,0,1,284.5,102.83Z" style="fill:#e0e0e0"></path><path d="M285.17,101.65a.6.6,0,0,1,1.2,0,.6.6,0,0,1-1.2,0Zm.12,1.22h.94v4h-.94Z" style="fill:#e0e0e0"></path><path d="M291.22,102.87l-1.72,4h-1l-1.72-4h1l1.24,3,1.29-3Z" style="fill:#e0e0e0"></path><path d="M295,104.53v2.35h-.89v-.49a1.4,1.4,0,0,1-1.26.54c-.92,0-1.49-.5-1.49-1.2s.45-1.19,1.66-1.19h1v-.06c0-.55-.33-.87-1-.87a2,2,0,0,0-1.22.4l-.36-.69a2.81,2.81,0,0,1,1.69-.49C294.36,102.83,295,103.38,295,104.53Zm-.94,1.1v-.47h-1c-.64,0-.81.24-.81.54s.29.55.77.55A1,1,0,0,0,294.09,105.63Z" style="fill:#e0e0e0"></path><path d="M295.93,104.88a2,2,0,0,1,2.17-2,1.82,1.82,0,0,1,1.72.93l-.73.42a1.14,1.14,0,0,0-1-.56,1.26,1.26,0,0,0,0,2.51,1.13,1.13,0,0,0,1-.55l.73.42a1.83,1.83,0,0,1-1.72.93A2,2,0,0,1,295.93,104.88Z" style="fill:#e0e0e0"></path><path d="M304.32,102.87l-1.87,4.33a1.56,1.56,0,0,1-1.55,1.19,1.6,1.6,0,0,1-1.07-.37l.37-.69a1,1,0,0,0,.69.28c.33,0,.53-.16.71-.56l.07-.15-1.75-4h1l1.26,3,1.27-3Z" style="fill:#e0e0e0"></path><path d="M302.29,76a.5.5,0,0,1-.5-.5V65a.5.5,0,0,1,1,0V75.47A.5.5,0,0,1,302.29,76Z" style="fill:#263238"></path><path d="M306.31,76a.51.51,0,0,1-.5-.5V71.73a.5.5,0,0,1,.5-.5.5.5,0,0,1,.5.5v3.74A.5.5,0,0,1,306.31,76Z" style="fill:#263238"></path><path d="M306.31,69.45a.51.51,0,0,1-.5-.5V65.21a.5.5,0,0,1,.5-.5.5.5,0,0,1,.5.5V69A.5.5,0,0,1,306.31,69.45Z" style="fill:#263238"></path><circle cx="306.21" cy="71.3" r="1.14" style="fill:#263238"></circle><circle cx="302.23" cy="72.96" r="1.14" style="fill:#263238"></circle><path d="M310.11,76a.51.51,0,0,1-.5-.5V65a.5.5,0,0,1,.5-.5.5.5,0,0,1,.5.5V75.47A.5.5,0,0,1,310.11,76Z" style="fill:#263238"></path><circle cx="310.05" cy="67.32" r="1.14" style="fill:#263238"></circle><path d="M322.28,115c0,.15-39.64.26-88.53.26s-88.53-.11-88.53-.26,39.63-.26,88.53-.26S322.28,114.86,322.28,115Z" style="fill:#263238"></path><path d="M190.51,116h-35a1,1,0,0,1,0-2h35a1,1,0,0,1,0,2Z" style="fill:#0063F7"></path><path d="M163.06,139.52v.82h-3.94v-5.25H163v.81H160.1v1.37h2.54v.8H160.1v1.45Z" style="fill:#263238"></path><path d="M168,138v2.3h-.94v-2.18c0-.71-.35-1.06-.95-1.06a1.07,1.07,0,0,0-1.12,1.21v2h-.94v-4H165v.52a1.74,1.74,0,0,1,1.38-.56A1.56,1.56,0,0,1,168,138Z" style="fill:#263238"></path><path d="M172.56,138v2.35h-.89v-.49a1.41,1.41,0,0,1-1.26.54c-.92,0-1.5-.5-1.5-1.2s.45-1.19,1.67-1.19h1v-.06c0-.55-.33-.87-1-.87a2,2,0,0,0-1.22.4l-.37-.69a2.85,2.85,0,0,1,1.7-.49C171.89,136.29,172.56,136.83,172.56,138Zm-.94,1.1v-.47h-1c-.64,0-.81.24-.81.53s.28.56.76.56A1,1,0,0,0,171.62,139.09Z" style="fill:#263238"></path><path d="M178,138.34a2,2,0,0,1-2,2,1.62,1.62,0,0,1-1.33-.57v.52h-.9v-5.57h.94v2a1.69,1.69,0,0,1,1.29-.53A1.94,1.94,0,0,1,178,138.34Zm-.95,0a1.19,1.19,0,1,0-1.19,1.25A1.17,1.17,0,0,0,177.06,138.34Z" style="fill:#263238"></path><path d="M178.9,134.77h.94v5.57h-.94Z" style="fill:#263238"></path><path d="M184.82,138.64h-3.14a1.22,1.22,0,0,0,1.3,1,1.42,1.42,0,0,0,1.08-.44l.51.58a2.26,2.26,0,0,1-3.83-1.4,2,2,0,0,1,2.07-2.05,2,2,0,0,1,2,2.07C184.84,138.43,184.83,138.55,184.82,138.64Zm-3.15-.63h2.27a1.08,1.08,0,0,0-1.13-1A1.1,1.1,0,0,0,181.67,138Z" style="fill:#263238"></path><path d="M187.9,135.09h2.29a2.64,2.64,0,1,1,0,5.25H187.9Zm2.25,4.43a1.81,1.81,0,1,0,0-3.61h-1.28v3.61Z" style="fill:#263238"></path><path d="M197.36,138v2.35h-.89v-.49a1.4,1.4,0,0,1-1.26.54c-.91,0-1.49-.5-1.49-1.2s.45-1.19,1.67-1.19h1v-.06c0-.55-.33-.87-1-.87a2,2,0,0,0-1.21.4l-.37-.69a2.82,2.82,0,0,1,1.7-.49C196.69,136.29,197.36,136.83,197.36,138Zm-.94,1.1v-.47h-1c-.64,0-.81.24-.81.53s.29.56.77.56A1,1,0,0,0,196.42,139.09Z" style="fill:#263238"></path><path d="M200.88,136.29v.89a.86.86,0,0,0-.22,0,1.09,1.09,0,0,0-1.16,1.24v1.94h-.94v-4h.89v.59A1.58,1.58,0,0,1,200.88,136.29Z" style="fill:#263238"></path><path d="M203.31,138.62l-.7.66v1.06h-.94v-5.57h.94v3.36l1.94-1.8h1.13L204,138l1.83,2.33H204.7Z" style="fill:#263238"></path><path d="M209.67,135.91h-1.74v-.82h4.46v.82h-1.74v4.43h-1Z" style="fill:#263238"></path><path d="M217,138v2.3H216v-2.18c0-.71-.35-1.06-.95-1.06a1.07,1.07,0,0,0-1.12,1.21v2H213v-5.57H214v2a1.79,1.79,0,0,1,1.34-.51A1.56,1.56,0,0,1,217,138Z" style="fill:#263238"></path><path d="M222,138.64h-3.14a1.21,1.21,0,0,0,1.29,1,1.43,1.43,0,0,0,1.09-.44l.51.58a2.26,2.26,0,0,1-3.83-1.4,2,2,0,0,1,2.07-2.05,2,2,0,0,1,2,2.07C222,138.43,222,138.55,222,138.64Zm-3.15-.63h2.27a1.08,1.08,0,0,0-1.13-1A1.1,1.1,0,0,0,218.81,138Z" style="fill:#263238"></path><path d="M229.58,138v2.3h-.94v-2.18c0-.71-.33-1.06-.9-1.06s-1,.41-1,1.21v2h-.94v-2.18c0-.71-.33-1.06-.9-1.06s-1.05.41-1.05,1.21v2h-.93v-4h.89v.51a1.65,1.65,0,0,1,1.31-.55,1.48,1.48,0,0,1,1.35.66,1.89,1.89,0,0,1,1.5-.66A1.54,1.54,0,0,1,229.58,138Z" style="fill:#263238"></path><path d="M234.57,138.64h-3.15a1.22,1.22,0,0,0,1.3,1,1.46,1.46,0,0,0,1.09-.44l.5.58a2.26,2.26,0,0,1-3.83-1.4,2,2,0,0,1,2.07-2.05,2,2,0,0,1,2,2.07C234.58,138.43,234.57,138.55,234.57,138.64Zm-3.16-.63h2.28a1.1,1.1,0,0,0-1.14-1A1.11,1.11,0,0,0,231.41,138Z" style="fill:#263238"></path><path d="M320.58,156.84c0,.15-39.64.27-88.52.27s-88.54-.12-88.54-.27,39.63-.26,88.54-.26S320.58,156.7,320.58,156.84Z" style="fill:#e0e0e0"></path><path d="M307,143.19H294.68a7.22,7.22,0,1,1,0-14.43H307a7.22,7.22,0,0,1,0,14.43Zm-12.35-13.43a6.22,6.22,0,1,0,0,12.43H307a6.22,6.22,0,0,0,0-12.43Z" style="fill:#0063F7"></path><path d="M294.61,141a4.87,4.87,0,1,1,4.86-4.87A4.88,4.88,0,0,1,294.61,141Zm0-8.73a3.87,3.87,0,1,0,3.86,3.86A3.87,3.87,0,0,0,294.61,132.26Z" style="fill:#0063F7"></path><path d="M163.52,178.27c0,1.15-.85,1.87-2.23,1.87H160.1v1.51h-1V176.4h2.17C162.67,176.4,163.52,177.1,163.52,178.27Zm-1,0c0-.66-.44-1.05-1.3-1.05H160.1v2.09h1.14C162.1,179.31,162.54,178.93,162.54,178.27Z" style="fill:#263238"></path><path d="M167.72,179.3v2.35h-.88v-.49a1.41,1.41,0,0,1-1.26.54c-.92,0-1.5-.5-1.5-1.2s.45-1.19,1.67-1.19h1v-.06c0-.55-.33-.87-1-.87a2,2,0,0,0-1.22.4l-.37-.69a2.82,2.82,0,0,1,1.7-.49C167.06,177.6,167.72,178.15,167.72,179.3Zm-.93,1.1v-.47h-1c-.64,0-.81.24-.81.54s.28.55.76.55A1,1,0,0,0,166.79,180.4Z" style="fill:#263238"></path><path d="M172.94,177.64V181a1.89,1.89,0,0,1-2.16,2.12,3.19,3.19,0,0,1-2-.57l.43-.7a2.42,2.42,0,0,0,1.47.48c.89,0,1.28-.41,1.28-1.22v-.21a1.76,1.76,0,0,1-1.34.53,1.94,1.94,0,1,1,0-3.87,1.75,1.75,0,0,1,1.39.58v-.54Zm-.92,1.89a1.22,1.22,0,1,0-1.22,1.15A1.13,1.13,0,0,0,172,179.53Z" style="fill:#263238"></path><path d="M177.92,180h-3.15a1.23,1.23,0,0,0,1.3,1,1.41,1.41,0,0,0,1.09-.44l.51.58a2.05,2.05,0,0,1-1.62.65,2,2,0,0,1-2.21-2,2,2,0,0,1,2.07-2.05,2,2,0,0,1,2,2.07C177.94,179.75,177.93,179.86,177.92,180Zm-3.15-.62H177a1.09,1.09,0,0,0-1.13-1A1.11,1.11,0,0,0,174.77,179.33Z" style="fill:#263238"></path><path d="M185.08,180.83v.82H180.6V181l3.09-3.78h-3v-.82H185v.65l-3.09,3.78Z" style="fill:#263238"></path><path d="M185.47,179.65a2.14,2.14,0,1,1,2.14,2A2,2,0,0,1,185.47,179.65Zm3.33,0a1.19,1.19,0,1,0-1.19,1.25A1.17,1.17,0,0,0,188.8,179.65Z" style="fill:#263238"></path><path d="M190.31,179.65a2.14,2.14,0,1,1,2.13,2A2,2,0,0,1,190.31,179.65Zm3.33,0a1.19,1.19,0,1,0-1.2,1.25A1.17,1.17,0,0,0,193.64,179.65Z" style="fill:#263238"></path><path d="M202.19,179.35v2.3h-.94v-2.18c0-.71-.33-1.05-.9-1.05s-1,.4-1,1.2v2h-.93v-2.18c0-.71-.34-1.05-.91-1.05s-1,.4-1,1.2v2h-.94v-4h.9v.51a1.65,1.65,0,0,1,1.31-.55,1.51,1.51,0,0,1,1.35.67,1.84,1.84,0,0,1,1.5-.67A1.54,1.54,0,0,1,202.19,179.35Z" style="fill:#263238"></path><path d="M320.58,198.46c0,.14-39.64.26-88.52.26s-88.54-.12-88.54-.26,39.63-.26,88.54-.26S320.58,198.31,320.58,198.46Z" style="fill:#e0e0e0"></path><rect x="287.96" y="172.11" width="25.78" height="13.42" rx="6.71" style="fill:#0063F7"></rect><path d="M311.57,179a4.37,4.37,0,1,1-4.36-4.36A4.37,4.37,0,0,1,311.57,179Z" style="fill:#fff"></path><path d="M307,230.24H294.68a6.72,6.72,0,0,1-6.72-6.72h0a6.72,6.72,0,0,1,6.72-6.71H307a6.71,6.71,0,0,1,6.71,6.71h0A6.71,6.71,0,0,1,307,230.24Z" style="fill:#0063F7"></path><path d="M311.57,223.67a4.37,4.37,0,1,1-4.36-4.36A4.36,4.36,0,0,1,311.57,223.67Z" style="fill:#fff"></path><path d="M158.68,223.11l.34-.75a3,3,0,0,0,1.73.57c.82,0,1.17-.29,1.17-.68,0-1.13-3.13-.39-3.13-2.34,0-.85.68-1.57,2.12-1.57a3.33,3.33,0,0,1,1.75.46l-.31.76a2.88,2.88,0,0,0-1.45-.41c-.81,0-1.14.32-1.14.71,0,1.12,3.12.39,3.12,2.32,0,.84-.69,1.56-2.13,1.56A3.36,3.36,0,0,1,158.68,223.11Z" style="fill:#263238"></path><path d="M163.63,218.44a.6.6,0,0,1,1.2,0,.58.58,0,0,1-.6.59A.57.57,0,0,1,163.63,218.44Zm.12,1.22h.94v4h-.94Z" style="fill:#263238"></path><path d="M168.33,223.45a1.46,1.46,0,0,1-.9.27,1.23,1.23,0,0,1-1.38-1.35v-1.93h-.66v-.75h.66v-.92H167v.92h1.07v.75H167v1.91c0,.39.19.6.55.6a.8.8,0,0,0,.53-.17Z" style="fill:#263238"></path><path d="M172.72,222h-3.14a1.21,1.21,0,0,0,1.29,1,1.45,1.45,0,0,0,1.09-.44l.51.58a2.25,2.25,0,0,1-3.83-1.41,2,2,0,0,1,2.07-2,2,2,0,0,1,2,2.07C172.74,221.76,172.73,221.87,172.72,222Zm-3.15-.63h2.27a1.08,1.08,0,0,0-1.13-1A1.1,1.1,0,0,0,169.57,221.34Z" style="fill:#263238"></path><path d="M175.8,218.41h1v5.26h-1Z" style="fill:#263238"></path><path d="M177.77,221.66a2,2,0,0,1,2.17-2,1.8,1.8,0,0,1,1.71.93l-.72.42a1.12,1.12,0,0,0-1-.56,1.26,1.26,0,0,0,0,2.51,1.12,1.12,0,0,0,1-.56l.72.42a1.83,1.83,0,0,1-1.71.94A2,2,0,0,1,177.77,221.66Z" style="fill:#263238"></path><path d="M182.07,221.66a2.14,2.14,0,1,1,2.13,2.06A2,2,0,0,1,182.07,221.66Zm3.32,0a1.19,1.19,0,1,0-1.19,1.26A1.17,1.17,0,0,0,185.39,221.66Z" style="fill:#263238"></path><path d="M191.19,221.37v2.3h-.94v-2.18c0-.71-.36-1.06-1-1.06a1.07,1.07,0,0,0-1.11,1.21v2h-.94v-4h.89v.52a1.74,1.74,0,0,1,1.38-.56A1.57,1.57,0,0,1,191.19,221.37Z" style="fill:#263238"></path><path d="M191.92,223.27l.36-.71a2.71,2.71,0,0,0,1.4.4c.59,0,.84-.17.84-.45,0-.76-2.48,0-2.48-1.64,0-.76.68-1.25,1.76-1.25a3.14,3.14,0,0,1,1.5.34l-.36.71a2.21,2.21,0,0,0-1.14-.3c-.58,0-.85.19-.85.45,0,.81,2.48.09,2.48,1.66,0,.75-.69,1.24-1.81,1.24A3.15,3.15,0,0,1,191.92,223.27Z" style="fill:#263238"></path><path d="M320.58,240.48c0,.14-39.64.26-88.52.26s-88.54-.12-88.54-.26,39.63-.27,88.54-.27S320.58,240.33,320.58,240.48Z" style="fill:#e0e0e0"></path><path d="M161.52,339.65h1v4.43h2.75v.83h-3.72Z" style="fill:#263238"></path><path d="M169.32,342.56v2.35h-.89v-.49a1.4,1.4,0,0,1-1.26.54c-.92,0-1.5-.5-1.5-1.2s.46-1.19,1.67-1.19h1v-.06c0-.55-.33-.87-1-.87a2,2,0,0,0-1.22.39l-.36-.68a2.8,2.8,0,0,1,1.69-.5C168.65,340.85,169.32,341.4,169.32,342.56Zm-.94,1.09v-.46h-1c-.64,0-.81.24-.81.53s.28.56.76.56A1,1,0,0,0,168.38,343.65Z" style="fill:#263238"></path><path d="M174.46,342.61v2.3h-.94v-2.18c0-.71-.35-1.06-1-1.06a1.07,1.07,0,0,0-1.12,1.21v2h-.94v-4h.9v.52a1.73,1.73,0,0,1,1.38-.57A1.57,1.57,0,0,1,174.46,342.61Z" style="fill:#263238"></path><path d="M179.67,340.9v3.4a1.89,1.89,0,0,1-2.16,2.12,3.2,3.2,0,0,1-1.95-.57l.42-.71a2.43,2.43,0,0,0,1.48.48c.88,0,1.27-.4,1.27-1.21v-.22a1.73,1.73,0,0,1-1.34.54,1.94,1.94,0,1,1,0-3.88,1.74,1.74,0,0,1,1.39.58v-.53Zm-.92,1.88a1.22,1.22,0,1,0-1.22,1.15A1.13,1.13,0,0,0,178.75,342.78Z" style="fill:#263238"></path><path d="M184.78,340.9v4h-.89v-.51a1.64,1.64,0,0,1-1.3.56,1.58,1.58,0,0,1-1.72-1.77V340.9h.94v2.16c0,.73.34,1.08.94,1.08a1.06,1.06,0,0,0,1.09-1.21v-2Z" style="fill:#263238"></path><path d="M189.36,342.56v2.35h-.88v-.49a1.41,1.41,0,0,1-1.26.54c-.92,0-1.5-.5-1.5-1.2s.45-1.19,1.67-1.19h1v-.06c0-.55-.33-.87-1-.87a2,2,0,0,0-1.22.39l-.37-.68a2.83,2.83,0,0,1,1.7-.5C188.7,340.85,189.36,341.4,189.36,342.56Zm-.93,1.09v-.46h-1c-.64,0-.81.24-.81.53s.28.56.76.56A1,1,0,0,0,188.43,343.65Z" style="fill:#263238"></path><path d="M194.58,340.9v3.4a1.89,1.89,0,0,1-2.16,2.12,3.25,3.25,0,0,1-2-.57l.42-.71a2.47,2.47,0,0,0,1.48.48c.89,0,1.28-.4,1.28-1.21v-.22a1.73,1.73,0,0,1-1.34.54,1.94,1.94,0,1,1,0-3.88,1.75,1.75,0,0,1,1.39.58v-.53Zm-.93,1.88a1.13,1.13,0,0,0-1.21-1.13,1.14,1.14,0,1,0,1.21,1.13Z" style="fill:#263238"></path><path d="M199.56,343.2h-3.15a1.23,1.23,0,0,0,1.3,1,1.45,1.45,0,0,0,1.09-.44l.5.58a2.25,2.25,0,0,1-3.82-1.41,2,2,0,0,1,2.07-2,2,2,0,0,1,2,2.08C199.58,343,199.57,343.11,199.56,343.2Zm-3.15-.62h2.27a1.09,1.09,0,0,0-1.13-1A1.11,1.11,0,0,0,196.41,342.58Z" style="fill:#263238"></path><path d="M307,269H294.68a7.21,7.21,0,1,1,0-14.42H307A7.21,7.21,0,1,1,307,269Zm-12.35-13.42a6.21,6.21,0,1,0,0,12.42H307a6.21,6.21,0,1,0,0-12.42Z" style="fill:#0063F7"></path><path d="M294.61,266.8a4.87,4.87,0,1,1,4.86-4.87A4.87,4.87,0,0,1,294.61,266.8Zm0-8.73a3.87,3.87,0,1,0,3.86,3.86A3.87,3.87,0,0,0,294.61,258.07Z" style="fill:#0063F7"></path><path d="M158.75,262.67a2.83,2.83,0,1,1,2.83,2.7A2.69,2.69,0,0,1,158.75,262.67Zm4.68,0a1.85,1.85,0,1,0-1.85,1.85A1.8,1.8,0,0,0,163.43,262.67Z" style="fill:#263238"></path><path d="M169.61,263.29a2,2,0,0,1-2,2.06,1.63,1.63,0,0,1-1.28-.54v1.94h-.94v-5.46h.89v.52a1.67,1.67,0,0,1,1.33-.57A2,2,0,0,1,169.61,263.29Zm-1,0a1.19,1.19,0,1,0-2.38,0,1.19,1.19,0,1,0,2.38,0Z" style="fill:#263238"></path><path d="M174.25,263.59h-3.14a1.2,1.2,0,0,0,1.29,1,1.42,1.42,0,0,0,1.09-.43l.51.58a2.07,2.07,0,0,1-1.62.65,2,2,0,0,1-2.21-2.06,2,2,0,0,1,2.07-2.05,2,2,0,0,1,2,2.07C174.27,263.39,174.26,263.5,174.25,263.59ZM171.1,263h2.27a1.08,1.08,0,0,0-1.13-1A1.11,1.11,0,0,0,171.1,263Z" style="fill:#263238"></path><path d="M179.11,263v2.3h-.93v-2.18c0-.71-.36-1.06-1-1.06a1.07,1.07,0,0,0-1.12,1.21v2h-.93v-4h.89v.52a1.73,1.73,0,0,1,1.38-.57A1.57,1.57,0,0,1,179.11,263Z" style="fill:#263238"></path><path d="M182.46,260h1v4.43h2.75v.83h-3.73Z" style="fill:#263238"></path><path d="M186.74,260.06a.58.58,0,0,1,.6-.56.55.55,0,0,1,.6.54.6.6,0,0,1-1.2,0Zm.13,1.23h.94v4h-.94Z" style="fill:#263238"></path><path d="M193,263v2.3h-.94v-2.18c0-.71-.35-1.06-1-1.06a1.07,1.07,0,0,0-1.11,1.21v2H189v-4h.89v.52a1.75,1.75,0,0,1,1.38-.57A1.57,1.57,0,0,1,193,263Z" style="fill:#263238"></path><path d="M195.81,263.58l-.69.66v1.06h-.94v-5.57h.94v3.36l1.94-1.8h1.13L196.51,263l1.83,2.33H197.2Z" style="fill:#263238"></path><path d="M198.36,264.9l.36-.71a2.76,2.76,0,0,0,1.4.39c.59,0,.84-.16.84-.44,0-.76-2.48,0-2.48-1.64,0-.76.69-1.26,1.77-1.26a3.17,3.17,0,0,1,1.5.35l-.36.71a2.25,2.25,0,0,0-1.15-.3c-.57,0-.84.19-.84.45,0,.81,2.48.09,2.48,1.66,0,.75-.69,1.24-1.82,1.24A3.24,3.24,0,0,1,198.36,264.9Z" style="fill:#263238"></path><path d="M204.63,260.06a.57.57,0,0,1,.6-.56.56.56,0,0,1,.6.54.58.58,0,0,1-.6.59A.57.57,0,0,1,204.63,260.06Zm.13,1.23h.93v4h-.93Z" style="fill:#263238"></path><path d="M210.87,263v2.3h-.94v-2.18c0-.71-.35-1.06-1-1.06a1.07,1.07,0,0,0-1.12,1.21v2h-.94v-4h.9v.52a1.73,1.73,0,0,1,1.38-.57A1.57,1.57,0,0,1,210.87,263Z" style="fill:#263238"></path><path d="M218.89,260v5.26h-.8l-2.9-3.56v3.56h-1V260H215l2.9,3.56V260Z" style="fill:#263238"></path><path d="M224,263.59h-3.15a1.21,1.21,0,0,0,1.3,1,1.45,1.45,0,0,0,1.09-.43l.5.58a2.25,2.25,0,0,1-3.83-1.41,2,2,0,0,1,2.07-2.05,2,2,0,0,1,2,2.07C224,263.39,224,263.5,224,263.59Zm-3.16-.62h2.28a1.1,1.1,0,0,0-1.14-1A1.11,1.11,0,0,0,220.81,263Z" style="fill:#263238"></path><path d="M231.06,261.29l-1.48,4h-.9l-1-2.77-1,2.77h-.9l-1.47-4h.88l1.06,3,1.11-3h.78l1.09,3,1.08-3Z" style="fill:#263238"></path><path d="M234.93,260.87h-1.75V260h4.46v.83H235.9v4.43h-1Z" style="fill:#263238"></path><path d="M241.43,263v2.35h-.88v-.49a1.45,1.45,0,0,1-1.27.54c-.91,0-1.49-.5-1.49-1.2s.45-1.2,1.67-1.2h1v-.06c0-.54-.33-.87-1-.87a2,2,0,0,0-1.22.4l-.37-.68a2.83,2.83,0,0,1,1.7-.5C240.76,261.24,241.43,261.79,241.43,263Zm-.94,1.09v-.46h-1c-.63,0-.81.24-.81.53s.29.56.77.56A1,1,0,0,0,240.49,264Z" style="fill:#263238"></path><path d="M246.89,263.29a2,2,0,0,1-2,2.06,1.67,1.67,0,0,1-1.33-.57v.52h-.89v-5.57h.94v2a1.66,1.66,0,0,1,1.28-.54A2,2,0,0,1,246.89,263.29Zm-1,0a1.19,1.19,0,1,0-2.38,0,1.19,1.19,0,1,0,2.38,0Z" style="fill:#263238"></path><path d="M320.58,282.1c0,.15-39.64.26-88.52.26s-88.54-.11-88.54-.26,39.63-.26,88.54-.26S320.58,282,320.58,282.1Z" style="fill:#e0e0e0"></path><path d="M280.39,344.26v.65h-3.81v-5.26h3.71v.66h-3v1.61H280v.64h-2.64v1.7Z" style="fill:#e0e0e0"></path><path d="M285.28,342.62v2.29h-.72V342.7c0-.78-.39-1.16-1.08-1.16a1.18,1.18,0,0,0-1.26,1.32v2.05h-.72v-4h.69v.6a1.69,1.69,0,0,1,1.44-.64A1.55,1.55,0,0,1,285.28,342.62Z" style="fill:#e0e0e0"></path><path d="M290.44,340.93v3.44a1.81,1.81,0,0,1-2.07,2,2.92,2.92,0,0,1-1.89-.59l.34-.56a2.41,2.41,0,0,0,1.53.52c.94,0,1.37-.44,1.37-1.34v-.31a1.83,1.83,0,0,1-1.44.61,1.93,1.93,0,1,1,0-3.85,1.82,1.82,0,0,1,1.48.66v-.62Zm-.71,1.88a1.37,1.37,0,0,0-2.74,0,1.37,1.37,0,0,0,2.74,0Z" style="fill:#e0e0e0"></path><path d="M291.81,339.34h.72v5.57h-.72Z" style="fill:#e0e0e0"></path><path d="M293.78,339.7a.48.48,0,0,1,.48-.48.47.47,0,1,1,0,.94A.46.46,0,0,1,293.78,339.7Zm.12,1.23h.72v4h-.72Z" style="fill:#e0e0e0"></path><path d="M295.49,344.49l.3-.57a2.57,2.57,0,0,0,1.4.41c.67,0,.95-.2.95-.54,0-.89-2.52-.12-2.52-1.7,0-.72.64-1.2,1.66-1.2a3,3,0,0,1,1.45.36l-.31.57a2.1,2.1,0,0,0-1.15-.31c-.63,0-.94.23-.94.55,0,.93,2.53.17,2.53,1.71,0,.73-.66,1.18-1.72,1.18A2.92,2.92,0,0,1,295.49,344.49Z" style="fill:#e0e0e0"></path><path d="M303.53,342.62v2.29h-.72V342.7c0-.78-.39-1.16-1.07-1.16a1.18,1.18,0,0,0-1.26,1.32v2.05h-.72v-5.57h.72v2.15a1.72,1.72,0,0,1,1.4-.6A1.54,1.54,0,0,1,303.53,342.62Z" style="fill:#e0e0e0"></path><path d="M162.49,302.88v1.6H165v.83h-2.54v2h-1v-5.26h3.84v.82Z" style="fill:#263238"></path><path d="M165.77,305.31a2.14,2.14,0,1,1,2.13,2.06A2,2,0,0,1,165.77,305.31Zm3.32,0a1.19,1.19,0,1,0-1.19,1.26A1.17,1.17,0,0,0,169.09,305.31Z" style="fill:#263238"></path><path d="M174.88,305v2.3H174v-2.18c0-.71-.36-1.06-1-1.06a1.07,1.07,0,0,0-1.12,1.21v2h-.93v-4h.89v.52a1.73,1.73,0,0,1,1.38-.57A1.57,1.57,0,0,1,174.88,305Z" style="fill:#263238"></path><path d="M178.48,307.1a1.46,1.46,0,0,1-.9.27A1.23,1.23,0,0,1,176.2,306v-1.93h-.66v-.75h.66v-.92h.94v.92h1.07v.75h-1.07V306a.52.52,0,0,0,.56.6.79.79,0,0,0,.52-.17Z" style="fill:#263238"></path><path d="M181,306.76l.34-.75a3,3,0,0,0,1.74.57c.81,0,1.16-.29,1.16-.68,0-1.13-3.12-.39-3.12-2.34,0-.85.67-1.57,2.11-1.57a3.33,3.33,0,0,1,1.75.46l-.31.76a2.88,2.88,0,0,0-1.44-.41c-.82,0-1.15.31-1.15.71,0,1.12,3.12.39,3.12,2.32,0,.84-.68,1.56-2.12,1.56A3.39,3.39,0,0,1,181,306.76Z" style="fill:#263238"></path><path d="M185.92,302.09a.6.6,0,0,1,1.2,0,.58.58,0,0,1-.6.59A.57.57,0,0,1,185.92,302.09Zm.13,1.22H187v4h-.93Z" style="fill:#263238"></path><path d="M191.34,306.57v.75h-3.46v-.59l2.2-2.67h-2.15v-.75h3.35v.59l-2.2,2.67Z" style="fill:#263238"></path><path d="M195.9,305.61h-3.15a1.22,1.22,0,0,0,1.3,1,1.45,1.45,0,0,0,1.09-.44l.5.58a2.25,2.25,0,0,1-3.82-1.41,2,2,0,0,1,2.07-2.05,2,2,0,0,1,2,2.08A2.62,2.62,0,0,1,195.9,305.61Zm-3.15-.62H195a1.08,1.08,0,0,0-1.13-1A1.1,1.1,0,0,0,192.75,305Z" style="fill:#263238"></path><path d="M281.45,305.45v-3.83l-1.9,3.19h-.34l-1.9-3.17v3.81h-.72V300.2h.61l2.2,3.69,2.16-3.69h.61v5.25Z" style="fill:#e0e0e0"></path><path d="M287.22,303.7H284a1.36,1.36,0,0,0,1.44,1.17,1.49,1.49,0,0,0,1.15-.48l.4.46a2.17,2.17,0,0,1-3.71-1.39,2,2,0,0,1,2-2,1.91,1.91,0,0,1,2,2.05A1.7,1.7,0,0,1,287.22,303.7Zm-3.23-.52h2.55a1.24,1.24,0,0,0-1.27-1.14A1.25,1.25,0,0,0,284,303.18Z" style="fill:#e0e0e0"></path><path d="M292,299.88v5.57h-.69v-.63a1.68,1.68,0,0,1-1.42.68,2,2,0,0,1,0-4.07,1.68,1.68,0,0,1,1.39.64v-2.19Zm-.71,3.58a1.34,1.34,0,1,0-2.68,0,1.34,1.34,0,1,0,2.68,0Z" style="fill:#e0e0e0"></path><path d="M293.22,300.24a.47.47,0,0,1,.49-.47.47.47,0,0,1,.49.46.49.49,0,0,1-1,0Zm.13,1.23h.72v4h-.72Z" style="fill:#e0e0e0"></path><path d="M299.15,301.47v4h-.68v-.6a1.64,1.64,0,0,1-1.35.65,1.57,1.57,0,0,1-1.72-1.74v-2.29h.72v2.21c0,.78.4,1.17,1.08,1.17a1.17,1.17,0,0,0,1.23-1.32v-2.06Z" style="fill:#e0e0e0"></path><path d="M307.13,303.16v2.29h-.72v-2.21c0-.78-.38-1.16-1-1.16a1.16,1.16,0,0,0-1.2,1.32v2.05h-.72v-2.21c0-.78-.37-1.16-1-1.16a1.16,1.16,0,0,0-1.2,1.32v2.05h-.72v-4h.69v.6a1.61,1.61,0,0,1,1.38-.64,1.5,1.5,0,0,1,1.38.74,1.79,1.79,0,0,1,1.53-.74A1.53,1.53,0,0,1,307.13,303.16Z" style="fill:#e0e0e0"></path><path d="M320.58,322.26c0,.14-39.64.26-88.52.26s-88.54-.12-88.54-.26,39.63-.26,88.54-.26S320.58,322.11,320.58,322.26Z" style="fill:#e0e0e0"></path><path d="M313,305.59a.49.49,0,0,1-.36-.15.5.5,0,0,1,0-.71l1.19-1.13-1.21-1.27a.5.5,0,0,1,.72-.69l1.56,1.64a.45.45,0,0,1,.14.36.48.48,0,0,1-.16.35l-1.56,1.47A.48.48,0,0,1,313,305.59Z" style="fill:#0063F7"></path><path d="M312.18,345a.49.49,0,0,1-.36-.15.5.5,0,0,1,0-.71L313,343l-1.21-1.27a.5.5,0,0,1,.72-.69l1.56,1.64a.47.47,0,0,1,.14.36.48.48,0,0,1-.16.35l-1.56,1.47A.48.48,0,0,1,312.18,345Z" style="fill:#0063F7"></path><path d="M230.47,407.85s.18,0,.51-.08a2.61,2.61,0,0,0,1.3-.76,2.51,2.51,0,0,0,.55-.95,4.17,4.17,0,0,0,.1-1.35c0-1,0-2.14,0-3.43,0-2.59,0-5.75,0-9.41,0-.92,0-1.87,0-2.85v-1.49a3,3,0,0,0-.22-1.44,2.44,2.44,0,0,0-2.47-1.38h-3.38l-72.18.07a2.3,2.3,0,0,0-2,1.12,2.23,2.23,0,0,0-.32,1.12V404.9a3,3,0,0,0,.12,1.14,2.29,2.29,0,0,0,1.54,1.47,4.16,4.16,0,0,0,1.14.09h13l32.45.06,21.87.08,5.95.05,1.55,0,.53,0-.53,0-1.55,0-5.95.05-21.87.08-32.45.06h-13a4.41,4.41,0,0,1-1.28-.11A2.78,2.78,0,0,1,152,406.2a3.48,3.48,0,0,1-.15-1.3v-1.24q0-5,0-10.14V387a2.75,2.75,0,0,1,.39-1.37,2.83,2.83,0,0,1,2.41-1.38l72.18.08h3.38a2.78,2.78,0,0,1,2.77,1.59,3.26,3.26,0,0,1,.24,1.58V389c0,1,0,1.93,0,2.85,0,3.66,0,6.82,0,9.41,0,1.29,0,2.43,0,3.43a4.37,4.37,0,0,1-.14,1.38,2.46,2.46,0,0,1-.59,1,2.5,2.5,0,0,1-1.36.74A1.77,1.77,0,0,1,230.47,407.85Z" style="fill:#263238"></path><path d="M180.91,396.37a2.5,2.5,0,0,1,2.62-2.53,2.43,2.43,0,0,1,1.88.77l-.46.44a1.82,1.82,0,0,0-1.39-.58,1.9,1.9,0,1,0,0,3.8,1.8,1.8,0,0,0,1.39-.6l.46.45a2.43,2.43,0,0,1-1.88.78A2.51,2.51,0,0,1,180.91,396.37Z" style="fill:#263238"></path><path d="M189.25,396.58v2.26h-.65v-.49a1.4,1.4,0,0,1-1.23.53c-.84,0-1.38-.45-1.38-1.1s.39-1.1,1.5-1.1h1.08v-.13c0-.57-.33-.9-1-.9a1.88,1.88,0,0,0-1.19.4l-.28-.51a2.46,2.46,0,0,1,1.54-.48C188.67,395.06,189.25,395.56,189.25,396.58Zm-.68,1.12v-.53h-1c-.67,0-.86.26-.86.58s.31.61.83.61A1.08,1.08,0,0,0,188.57,397.7Z" style="fill:#263238"></path><path d="M194.06,396.68v2.16h-.68v-2.08c0-.73-.36-1.09-1-1.09a1.11,1.11,0,0,0-1.18,1.24v1.93h-.68V395.1h.65v.56a1.59,1.59,0,0,1,1.35-.6A1.45,1.45,0,0,1,194.06,396.68Z" style="fill:#263238"></path><path d="M195,397a1.87,1.87,0,0,1,2-1.91,1.66,1.66,0,0,1,1.52.8l-.51.33a1.17,1.17,0,0,0-1-.54,1.32,1.32,0,0,0,0,2.64,1.17,1.17,0,0,0,1-.54l.51.33a1.66,1.66,0,0,1-1.52.8A1.88,1.88,0,0,1,195,397Z" style="fill:#263238"></path><path d="M202.7,397.19h-3a1.26,1.26,0,0,0,1.36,1.1,1.43,1.43,0,0,0,1.08-.45l.37.43A2,2,0,0,1,199,397a1.84,1.84,0,0,1,1.88-1.91,1.81,1.81,0,0,1,1.85,1.93C202.71,397.05,202.7,397.13,202.7,397.19Zm-3-.48h2.4a1.21,1.21,0,0,0-2.4,0Z" style="fill:#263238"></path><path d="M203.65,393.6h.68v5.24h-.68Z" style="fill:#263238"></path><rect x="237.94" y="384.53" width="80.96" height="23.32" rx="2.54" style="fill:#0063F7"></rect><path d="M270.35,397.6h-2.62l-.55,1.24h-.72l2.23-4.95h.7l2.25,4.95h-.74Zm-.24-.56L269,394.62,268,397Z" style="fill:#fff"></path><path d="M276.16,397a1.82,1.82,0,0,1-1.89,1.91,1.59,1.59,0,0,1-1.31-.61v1.94h-.68V395.1h.65v.59a1.59,1.59,0,0,1,1.34-.63A1.82,1.82,0,0,1,276.16,397Zm-.68,0a1.27,1.27,0,1,0-1.27,1.32A1.25,1.25,0,0,0,275.48,397Z" style="fill:#fff"></path><path d="M281,397a1.82,1.82,0,0,1-1.89,1.91,1.59,1.59,0,0,1-1.31-.61v1.94h-.68V395.1h.65v.59a1.61,1.61,0,0,1,1.34-.63A1.82,1.82,0,0,1,281,397Zm-.68,0a1.26,1.26,0,1,0-2.52,0,1.26,1.26,0,1,0,2.52,0Z" style="fill:#fff"></path><path d="M281.93,393.6h.68v5.24h-.68Z" style="fill:#fff"></path><path d="M287.21,395.1l-1.81,4.11c-.33.8-.76,1-1.34,1a1.42,1.42,0,0,1-1-.34l.29-.51a1,1,0,0,0,.67.27c.33,0,.53-.15.72-.58l.12-.26-1.66-3.73H284l1.31,3,1.29-3Z" style="fill:#fff"></path></g><g id="freepik--Plant--inject-73"><path d="M66.65,374.75a35,35,0,0,0-15.05-5.18c-2.46-.26-5.15-.18-7.13,1.31a1.45,1.45,0,0,0-.73,1.3,1.6,1.6,0,0,0,.7.89c6.12,4.67,15.39,5.26,22.21,1.68" style="fill:#0063F7"></path><path d="M66.27,374.32a74.08,74.08,0,0,1-9.73-8.55,24.66,24.66,0,0,1-6.1-11.28,4.52,4.52,0,0,1,.49-3.77c7.75,6,13.84,13.88,15.34,23.6" style="fill:#0063F7"></path><path d="M66.57,374.69a35.35,35.35,0,0,1,.18-12.77,17.31,17.31,0,0,1,6.81-10.54c1.34,3.14.76,6.74-.18,10a48.79,48.79,0,0,1-6.75,14.2" style="fill:#0063F7"></path><path d="M74.17,388.31c-4.61.56-8.63,3-12.07,6.11a22.78,22.78,0,0,0-6.91,11.86c4.52-.28,8.36-3.47,11.15-7s4.71-7.5,7.77-10.85" style="fill:#0063F7"></path><path d="M75.82,390.49a29.81,29.81,0,0,1,3.44-28.18c2.63,9.35,1.67,19.91-3.44,28.18" style="fill:#0063F7"></path><path d="M85.87,402.44a21.55,21.55,0,0,0-20.6,11.86c-.25.51-.48,1.16-.14,1.61a1.51,1.51,0,0,0,1.37.4c4.06-.26,7.65-2.7,10.62-5.48s5.56-6,8.84-8.4" style="fill:#0063F7"></path><path d="M85.55,401.79a38.35,38.35,0,0,1-.39-21.42c.76-2.76,2-5.66,4.57-7a.89.89,0,0,1,.7-.12.91.91,0,0,1,.45.51A12.93,12.93,0,0,1,92,380a37.41,37.41,0,0,1-1,6.22c-.8,3.8-1.23,7.89-3.32,11.17a23.12,23.12,0,0,0-1.32,2.45c-.4.84-.4,1.13-.76,1.79" style="fill:#0063F7"></path><path d="M112.13,405.75c-2-7.49.12-16.57,4.84-22.71.34-.45.81-.94,1.37-.88.87.08,1.1,1.23,1.06,2.11a41.1,41.1,0,0,1-7.27,21.48" style="fill:#0063F7"></path><path d="M114.52,407.39c9.1,2.37,19.54.07,27.11-5.51a21.84,21.84,0,0,0-14.67-1.8c-4.91,1.12-9.39,3.31-12.44,7.31" style="fill:#0063F7"></path><path d="M116.54,402.4c5.1-8.31,14.87-13.73,24.61-14.22-1.12,4-4.38,7-8.05,8.89s-7.77,2.67-11.81,3.46c-1.57.3-3.73.64-4.75,1.87" style="fill:#0063F7"></path><path d="M112.63,378.2a71.62,71.62,0,0,0,3.15-14.41c.38-4.91-.32-10-2.87-14.25-4.76,9.21-5.24,20-.42,29.15" style="fill:#0063F7"></path><path d="M128.66,370.1c5.57-10.12,16.93-18.2,28.42-19.34-4.43,11-16.52,19.58-28.42,19.34" style="fill:#0063F7"></path><path d="M125.16,372.08c8.3,1.27,15.38,6.57,23.14,9.79a10.49,10.49,0,0,0,5.23,1,4.1,4.1,0,0,0,2.56-7.25,11.16,11.16,0,0,0-3.8-2.3c-8.45-3.52-17.51-3.61-26.42-1.47" style="fill:#0063F7"></path><path d="M120.35,377.91c1.88.53,2.53,1.51,4,2.78a43.29,43.29,0,0,0,17.55,9c.67.17,1.55.23,1.88-.37s-.08-1.17-.45-1.64a24.17,24.17,0,0,0-10.6-7.2c-4-1.5-7.55-3.32-12.39-2.93" style="fill:#0063F7"></path><path d="M114.93,342.73a33.2,33.2,0,0,0,25.46,8.66,1.75,1.75,0,0,0,1.16-.41c.64-.7-.13-1.78-.88-2.36-7.48-5.83-16.55-8.25-25.74-5.89" style="fill:#0063F7"></path><path d="M121.36,340.38a35.49,35.49,0,0,1,31.77-5.24A25.21,25.21,0,0,1,138,341.78a48.1,48.1,0,0,1-16.63-1.4" style="fill:#0063F7"></path><path d="M118.81,324.22c-.74-7.48-.26-13.37-.78-20.88,0-.6-.17-1.32-.73-1.54-.78-.3-1.44.66-1.69,1.46a23.92,23.92,0,0,0,3.18,20.79" style="fill:#0063F7"></path><path d="M118.27,325a43.86,43.86,0,0,0,12.37-12c2.45-3.34,4.51-7.35,4-11.45a11.82,11.82,0,0,0-8.92,4.43,25,25,0,0,0-4.56,9.16c-1,3.28-1.68,6.66-2.84,9.89" style="fill:#0063F7"></path><path d="M130.43,321.66a99.65,99.65,0,0,0,30.45-18c-3.64-1.46-7.8-.58-11.44.88-8.31,3.36-15.1,9-19.17,17" style="fill:#0063F7"></path><path d="M121.69,329.13c5.62.61,11.33,1,16.91.08s10.66-3.09,15.78-5.25a1.83,1.83,0,0,0,1.08-.81,1.24,1.24,0,0,0-.39-1.35,3.13,3.13,0,0,0-1.34-.63c-5.57-1.56-11.58-.83-17.06,1a78.63,78.63,0,0,0-15,6.94" style="fill:#0063F7"></path><path d="M89.58,343c-3.83-7.75-3.58-16.78-.27-24.76,2.33,3.55,2.62,8.08,2.19,12.31s-1.71,8.58-1.8,12.83" style="fill:#0063F7"></path><path d="M74.26,335.26A34.56,34.56,0,0,0,48.6,346.19c4.78.75,9.7-.48,14-2.61a71.6,71.6,0,0,0,12-8.05" style="fill:#0063F7"></path><path d="M64,331.81c-4.69-.38-9.19-1-13.7.42a16.46,16.46,0,0,0-10.44,8.86,24.78,24.78,0,0,0,12.84-2.43A73.62,73.62,0,0,0,64,331.81" style="fill:#0063F7"></path><path d="M79.21,332c-4.21-2.76-8.54-5.57-13.45-6.72s-10.59-.3-14,3.4c4,2.33,8.79,2.61,13.39,2.61s10.26-.06,14.6,1.48" style="fill:#0063F7"></path><path d="M79.24,332.19c-7.21-7.07-9.94-19.78-7-29.45a44.9,44.9,0,0,1,7,29.45" style="fill:#0063F7"></path><path d="M99.05,312.15c1.36-3.16,2.31-6.48,3.53-9.69a28,28,0,0,1,5-8.94,13.29,13.29,0,0,1,8.93-4.62,36,36,0,0,1-17.32,23.3" style="fill:#0063F7"></path><path d="M95.46,316.32c-2.24-3.09-4.84-7.29-7.89-9.6s-7-3.71-10.74-2.82a25,25,0,0,0,18.63,12.42" style="fill:#0063F7"></path><path d="M96.18,312.4a53.22,53.22,0,0,1-3.55-11.51,17.89,17.89,0,0,1,1.8-11.7c3.95,7.48,5.23,15.5,1.95,23.3" style="fill:#0063F7"></path><path d="M99.09,289.19c2.24-7.41,9-12.87,16.35-15.37a6,6,0,0,1,2.87-.43,2.46,2.46,0,0,1,2.11,1.76c.27,1.26-.77,2.39-1.75,3.23a55.77,55.77,0,0,1-19.58,10.81" style="fill:#0063F7"></path><path d="M99.17,283.13c.28-4.78.58-9.63,2.13-14.16s4.55-8.77,8.91-10.75c.74,4.82-1.39,9.62-3.95,13.78s-5.67,8.07-7.21,12.7" style="fill:#0063F7"></path><path d="M99.05,286.42c-1.85-5.4-2-12.27-5.28-17-2.26-3.29-5.88-5.53-7.83-9a13.77,13.77,0,0,0,.46,10.24,29.5,29.5,0,0,0,6,8.56c2.4,2.56,4.44,4.48,6.67,7.19" style="fill:#0063F7"></path><path d="M99.09,445.48c-.15,0-.27-36-.28-80.47s.1-80.48.24-80.48.27,36,.28,80.48S99.23,445.48,99.09,445.48Z" style="fill:#0063F7"></path><path d="M130.57,337.55a8.62,8.62,0,0,1-1.35.51l-3.73,1.26c-3.14,1.07-7.46,2.62-12.15,4.54s-9,3.61-11.51,5.77a8.35,8.35,0,0,0-2.31,3.06c-.36.84-.42,1.36-.47,1.35s0-.13,0-.38a5.77,5.77,0,0,1,.26-1.05,8.07,8.07,0,0,1,2.26-3.26,20.05,20.05,0,0,1,5-3.1c2-.93,4.21-1.91,6.56-2.87,4.71-1.93,9.06-3.43,12.24-4.41,1.59-.5,2.88-.87,3.78-1.11A7.37,7.37,0,0,1,130.57,337.55Z" style="fill:#0063F7"></path><path d="M140.9,312.2a2.54,2.54,0,0,1-.38.4l-1.16,1.09L135,317.61,120.68,330.4c-5.61,5-10.46,9.76-13.82,13.36-1.68,1.79-3,3.27-3.91,4.31-.42.48-.76.88-1,1.19a2.59,2.59,0,0,1-.39.4,2.29,2.29,0,0,1,.31-.46c.22-.29.53-.72,1-1.26.86-1.08,2.14-2.6,3.79-4.43A182.8,182.8,0,0,1,120.33,330c5.63-5,10.75-9.45,14.47-12.68l4.43-3.79,1.22-1C140.73,312.3,140.88,312.18,140.9,312.2Z" style="fill:#0063F7"></path><path d="M114.62,335.48c-.14-.07,1-2.77,2.19-6.19s1.74-6.31,1.89-6.29a21.41,21.41,0,0,1-1.39,6.45,42.51,42.51,0,0,1-1.75,4.33A6.59,6.59,0,0,1,114.62,335.48Z" style="fill:#0063F7"></path><path d="M99.12,357.29a6.13,6.13,0,0,1-.86-1L96,353.45c-1.86-2.41-4.43-5.73-7.31-9.36s-5.53-6.89-7.45-9.24L79,332.05a6.45,6.45,0,0,1-.78-1.07,6.92,6.92,0,0,1,.93.93c.58.63,1.39,1.55,2.39,2.7,2,2.3,4.69,5.52,7.58,9.16s5.41,7,7.2,9.45c.89,1.24,1.6,2.24,2.08,2.94A6.46,6.46,0,0,1,99.12,357.29Z" style="fill:#0063F7"></path><path d="M92.22,348.42a12.63,12.63,0,0,1-2.9-5.41,15.42,15.42,0,0,1-.65-5.46l.23,0c-.11.42-.18.64-.22.63s-.05-.24,0-.67l.23,0a24.66,24.66,0,0,0,.92,5.31A37.6,37.6,0,0,0,92.22,348.42Z" style="fill:#0063F7"></path><path d="M83.3,337.21a9.49,9.49,0,0,0-2-1.17,13.52,13.52,0,0,0-5.6-.45,35.31,35.31,0,0,0-5.65.91,17.15,17.15,0,0,1-2.32.56,8,8,0,0,1,2.22-.91,25.81,25.81,0,0,1,5.71-1.08,12.2,12.2,0,0,1,5.78.63A3.56,3.56,0,0,1,83.3,337.21Z" style="fill:#0063F7"></path><path d="M81.19,334.49c0,.09-1.18-.47-3.1-1.12a31.1,31.1,0,0,0-15.59-1.19c-2,.36-3.2.73-3.23.64a3.43,3.43,0,0,1,.82-.35,18.59,18.59,0,0,1,2.34-.65A27.51,27.51,0,0,1,78.22,333a19.52,19.52,0,0,1,2.21,1A3.38,3.38,0,0,1,81.19,334.49Z" style="fill:#0063F7"></path><path d="M99.05,323a63.74,63.74,0,0,1-2.26-7.83,65.66,65.66,0,0,1-1.75-8A63.59,63.59,0,0,1,97.3,315,63.11,63.11,0,0,1,99.05,323Z" style="fill:#0063F7"></path><path d="M99.19,323a36.5,36.5,0,0,0-2.5-4.69,20.66,20.66,0,0,0-3.68-3.8,3.5,3.5,0,0,1,1.42.73A11.5,11.5,0,0,1,97.12,318,10.33,10.33,0,0,1,99.19,323Z" style="fill:#0063F7"></path><path d="M99.09,426.28c-.06,0-.17-.87-.57-2.4a34.17,34.17,0,0,0-2.41-6.24c-2.49-5.09-7-11.54-12.78-18-2.85-3.26-5.61-6.33-8-9.27a64.11,64.11,0,0,1-5.7-8.22,39.48,39.48,0,0,1-2.88-6.1c-.26-.75-.46-1.34-.56-1.74a2.46,2.46,0,0,1-.15-.63s.31.83.9,2.3a43.59,43.59,0,0,0,3,6,68.59,68.59,0,0,0,5.75,8.11c2.36,2.91,5.13,6,8,9.23,5.77,6.48,10.29,13,12.71,18.18a30.72,30.72,0,0,1,2.27,6.35,16.84,16.84,0,0,1,.32,1.81A3.37,3.37,0,0,1,99.09,426.28Z" style="fill:#0063F7"></path><path d="M127.54,394.14a13,13,0,0,1-1.49.83,33.38,33.38,0,0,0-3.87,2.56,46,46,0,0,0-5.08,4.63c-1.78,1.89-3.62,4.08-5.49,6.42-3.75,4.7-7.26,8.86-9.35,12.18a46.06,46.06,0,0,0-2.35,4,15.38,15.38,0,0,1-.82,1.5,1.33,1.33,0,0,1,.13-.43c.12-.26.27-.67.51-1.16a36.8,36.8,0,0,1,2.21-4.12c2-3.4,5.52-7.62,9.26-12.32,1.88-2.34,3.74-4.54,5.55-6.42a41.37,41.37,0,0,1,5.21-4.59,26,26,0,0,1,4-2.44c.49-.25.89-.41,1.16-.52S127.53,394.12,127.54,394.14Z" style="fill:#0063F7"></path><path d="M128.1,404.56A20.29,20.29,0,0,1,125,405a42,42,0,0,0-7.48,1.47,22.26,22.26,0,0,0-6.69,3.52c-1.55,1.19-2.27,2.18-2.35,2.12a2.61,2.61,0,0,1,.47-.73,12.31,12.31,0,0,1,1.64-1.68,20.35,20.35,0,0,1,6.77-3.72,33.12,33.12,0,0,1,7.6-1.34A18,18,0,0,1,128.1,404.56Z" style="fill:#0063F7"></path><path d="M109.35,411c-.16-.09,1.26-2.26,2.36-5.18s1.28-5.53,1.46-5.5a4.78,4.78,0,0,1,0,1.69,17.71,17.71,0,0,1-.92,4,18.93,18.93,0,0,1-1.83,3.65C109.81,410.51,109.41,411,109.35,411Z" style="fill:#0063F7"></path><path d="M136.76,366.15a2.84,2.84,0,0,1-.51.26l-1.48.68c-.65.28-1.44.63-2.32,1.1s-1.93.93-3,1.58l-1.72,1c-.59.34-1.18.75-1.81,1.14-1.27.77-2.54,1.72-3.89,2.68a74.89,74.89,0,0,0-8.13,7.15,73.07,73.07,0,0,0-6.86,8.37c-.92,1.39-1.83,2.69-2.55,4-.37.64-.76,1.24-1.08,1.85l-.92,1.75c-.61,1.11-1,2.16-1.48,3.07s-.76,1.7-1,2.36-.46,1.1-.62,1.5a2.2,2.2,0,0,1-.25.51,1.91,1.91,0,0,1,.15-.54c.14-.41.32-.92.53-1.55s.53-1.48.94-2.4.82-2,1.42-3.11l.89-1.78c.32-.62.7-1.23,1.06-1.88.72-1.31,1.61-2.63,2.53-4a69.42,69.42,0,0,1,6.89-8.46,68.2,68.2,0,0,1,8.21-7.17c1.38-1,2.66-1.91,4-2.66.64-.39,1.24-.79,1.84-1.13l1.75-.95c1.1-.64,2.15-1.09,3.06-1.53s1.71-.77,2.37-1l1.52-.58A2,2,0,0,1,136.76,366.15Z" style="fill:#0063F7"></path><path d="M114.24,381.23a3.58,3.58,0,0,1,1.23-1.84,7.8,7.8,0,0,1,5-1.91,13.64,13.64,0,0,1,5.25,1,7.44,7.44,0,0,1,2,1,13.35,13.35,0,0,1-2.11-.62,15.79,15.79,0,0,0-5.11-.85,8.15,8.15,0,0,0-4.77,1.67A15,15,0,0,0,114.24,381.23Z" style="fill:#0063F7"></path><path d="M110.87,384.71a18.55,18.55,0,0,0,1.42-4.61,18.94,18.94,0,0,0-.32-4.81c.06,0,.34.46.58,1.34a9.35,9.35,0,0,1,.25,3.53,9.49,9.49,0,0,1-1,3.38C111.31,384.33,110.92,384.74,110.87,384.71Z" style="fill:#0063F7"></path><path d="M74.2,431.44c.78,13.77,4.93,27.77,11.31,41.93h27.75c6.09-14,9.95-28,10.64-41.93Z" style="fill:#455a64"></path><path d="M119.4,453.72c0,.15-9.14.26-20.41.26s-20.41-.11-20.41-.26,9.14-.26,20.41-.26S119.4,453.58,119.4,453.72Z" style="fill:#fafafa"></path><path d="M118.78,458.71c0,.14-8.57.26-19.13.26s-19.14-.12-19.14-.26,8.57-.26,19.14-.26S118.78,458.57,118.78,458.71Z" style="fill:#fafafa"></path><path d="M86,440.48a78.78,78.78,0,0,1,0,12.79,78.78,78.78,0,0,1,0-12.79Z" style="fill:#fafafa"></path><path d="M100.83,440.48a84.41,84.41,0,0,1,0,13.24,84.41,84.41,0,0,1,0-13.24Z" style="fill:#fafafa"></path><path d="M114.79,440.37a87.75,87.75,0,0,1,0,13.5,87.75,87.75,0,0,1,0-13.5Z" style="fill:#fafafa"></path><path d="M123,440.48c0,.14-10.72.26-23.94.26s-23.94-.12-23.94-.26,10.72-.26,23.94-.26S123,440.34,123,440.48Z" style="fill:#fafafa"></path></g><g id="freepik--Character--inject-73"><polygon points="357.24 442.18 349.32 473.08 332.56 469.14 340.44 438.17 357.24 442.18" style="fill:#0063F7"></polygon><path d="M341.34,470c-.14,0,1.57-6.81,3.81-15.13s4.17-15,4.31-15-1.56,6.81-3.81,15.13S341.48,470,341.34,470Z" style="fill:#263238"></path><polygon points="349.86 470.95 333.12 466.95 332.56 469.14 349.32 473.08 349.86 470.95" style="fill:#e0e0e0"></polygon><path d="M335.08,459.24s.19-.24.6-.56a12,12,0,0,1,1.9-1.21,11.87,11.87,0,0,1,3.16-1.1,9.14,9.14,0,0,1,9.87,4.63,7.93,7.93,0,0,1,.75,2.13,2.32,2.32,0,0,1,.07.82,18.47,18.47,0,0,0-1.14-2.77,9.17,9.17,0,0,0-5.57-4.19,10.47,10.47,0,0,0-7,.82C336.05,458.58,335.13,459.31,335.08,459.24Z" style="fill:#263238"></path><g style="opacity:0.30000000000000004"><polygon points="338.19 446.98 337.33 450.39 354.14 454.26 354.8 451.7 338.19 446.98"></polygon></g><path d="M406.62,441.87l-.86,19.93s20,7.58,20.17,11.28l-38.71-.29.07-31.12Z" style="fill:#0063F7"></path><path d="M394.06,460.11a1.59,1.59,0,0,0-1.12,1.81,1.54,1.54,0,0,0,1.79,1.12,1.68,1.68,0,0,0,1.17-1.92,1.59,1.59,0,0,0-2-1" style="fill:#e0e0e0"></path><path d="M387.22,472.79v-3.12l37.46,1.42s1.73.77,1.53,2Z" style="fill:#e0e0e0"></path><path d="M406.73,461.7c0,.19-1,.27-1.9.87s-1.44,1.4-1.62,1.33.12-1.18,1.27-1.89S406.78,461.52,406.73,461.7Z" style="fill:#263238"></path><path d="M410.81,463.42c0,.18-.78.5-1.44,1.3s-.84,1.65-1,1.64-.3-1.09.53-2.07S410.81,463.24,410.81,463.42Z" style="fill:#263238"></path><path d="M413.1,468.33c-.18,0-.43-.91.06-1.95s1.39-1.45,1.47-1.29-.47.71-.87,1.57S413.29,468.31,413.1,468.33Z" style="fill:#263238"></path><path d="M406.43,457.1c-.09.17-1-.1-2,0s-1.92.4-2,.23.71-.84,2-.89S406.52,457,406.43,457.1Z" style="fill:#263238"></path><path d="M406.53,453a3.59,3.59,0,0,1-2,0,9.22,9.22,0,0,1-2-.64,9.46,9.46,0,0,1-1.11-.61,2.26,2.26,0,0,1-.59-.46.83.83,0,0,1-.08-1,1,1,0,0,1,.84-.43,2.57,2.57,0,0,1,.73.1,7.18,7.18,0,0,1,1.21.43,6.64,6.64,0,0,1,1.79,1.2c.9.84,1.21,1.55,1.14,1.59s-.52-.54-1.44-1.24a8.14,8.14,0,0,0-1.73-1,7.34,7.34,0,0,0-1.12-.35c-.41-.12-.76-.12-.87.06s-.05.1,0,.22a2.07,2.07,0,0,0,.43.34,10.23,10.23,0,0,0,2.91,1.33A14.88,14.88,0,0,1,406.53,453Z" style="fill:#263238"></path><path d="M406.28,453.32a3.18,3.18,0,0,1-.51-1.89,6.49,6.49,0,0,1,.79-3.32,1.61,1.61,0,0,1,1.26-1,.92.92,0,0,1,.81.55,2.76,2.76,0,0,1,.19.72,4.1,4.1,0,0,1,0,1.31,4.51,4.51,0,0,1-.84,2c-.77,1-1.57,1.22-1.59,1.16s.61-.46,1.2-1.43a4.44,4.44,0,0,0,.63-1.83,3.92,3.92,0,0,0,0-1.13c-.06-.41-.21-.75-.36-.71s-.53.31-.69.64a5.5,5.5,0,0,0-.49,1.05,7.05,7.05,0,0,0-.4,1.95C406.18,452.57,406.38,453.29,406.28,453.32Z" style="fill:#263238"></path><g style="opacity:0.30000000000000004"><polygon points="387.21 453.63 387.25 458.05 405.92 458.05 405.92 455.62 387.21 453.63"></polygon></g><path d="M309.34,158.79l2.13,8.75,12.62-1.66-.27-10.51c.2-.66.43-1.39.72-2.2a9.23,9.23,0,0,1,1.48-2.61,14.09,14.09,0,0,1,2.62-2.66,1.15,1.15,0,0,0-.28-2.15c-1-.07-3.74,1.54-5.81,4.61s-2.52-2.67-2.73-4.76-1.14-8.5-1.82-8.93c-1-.63-1.9.36-1.65,2.44s.57,8.37-.53,8.46l0,0a4.46,4.46,0,0,0-5.21-.12c-1.52,1-3.46,2.63-3.28,3.92A59.58,59.58,0,0,0,309.34,158.79Z" style="fill:#b78876"></path><path d="M398.43,115l.15,47.87-20.54,1-.59-11.64s-7.3,1.44-9.18-5.33c-1.2-4.33-.9-37.77-.9-37.77Z" style="fill:#b78876"></path><path d="M363.32,116.92c-.57,4.55,5.78,7.18,5.78,7.18l1.12,10.76a21.49,21.49,0,0,1,3,0c-.53-5,6-4.06,6.63-.62s-3.13,5.52-3.13,5.52c2.6,4,3.65,6.1,7.35,9.84,4,4.05,6.14,4.38,10.27,4.26l4.54-.21s1.62-3.89,2.81-13.06c.57-4.41,4-10.19,3-17.37C401.92,102.81,382.38,105,382.38,105,372.25,105.24,364.66,106.37,363.32,116.92Z" style="fill:#263238"></path><path d="M401.17,117.65a3.44,3.44,0,0,1-3.11-2.42,5.05,5.05,0,0,1,.56-4,9.69,9.69,0,0,1,2.93-3c2-1.43,4.6-2.47,7-1.78a6,6,0,0,1,4,6.3,7,7,0,0,1-5.09,5.74,8.61,8.61,0,0,1-7.62-1.75" style="fill:#263238"></path><path d="M398.82,115.07c.05-.08.73.37,2,.65a10.55,10.55,0,0,0,4.93-.14,24.73,24.73,0,0,0,4.66-1.88,9.41,9.41,0,0,1,1.93-.88,8.1,8.1,0,0,1-1.75,1.2,18.48,18.48,0,0,1-4.71,2.06,9.59,9.59,0,0,1-5.15,0A4,4,0,0,1,398.82,115.07Z" style="fill:#455a64"></path><path d="M398.7,111.35a10,10,0,0,1-.06,1.29,5.06,5.06,0,0,0,.87,2.83,5.12,5.12,0,0,0,2.35,1.8c.74.28,1.24.31,1.24.39s-.52.16-1.35,0a4.66,4.66,0,0,1-3.48-5C398.37,111.78,398.65,111.33,398.7,111.35Z" style="fill:#0063F7"></path><path d="M399.06,114.65a21.28,21.28,0,0,0,6.85-1.2,21.63,21.63,0,0,0,5.85-3.77,6,6,0,0,1-1.36,1.59,14.22,14.22,0,0,1-4.3,2.67,14,14,0,0,1-5,1A5.39,5.39,0,0,1,399.06,114.65Z" style="fill:#455a64"></path><path d="M399.6,116.6s0,.13-.16.36a7.36,7.36,0,0,1-.59,1A14.21,14.21,0,0,1,396,121a14.91,14.91,0,0,1-13.18,2.72,70,70,0,0,1-7.19-2.45,27.44,27.44,0,0,0-5.92-1.59,14.28,14.28,0,0,0-5.59.36s.11-.08.36-.17a6.87,6.87,0,0,1,1.09-.34,12.31,12.31,0,0,1,4.19-.21,26.27,26.27,0,0,1,6,1.49c2.2.77,4.56,1.77,7.15,2.41a15,15,0,0,0,7.37.09,15.26,15.26,0,0,0,5.46-2.61A18.67,18.67,0,0,0,399.6,116.6Z" style="fill:#455a64"></path><path d="M369.22,125s.12,0,.35-.09a6.88,6.88,0,0,1,1-.11,17.36,17.36,0,0,1,3.84.22c1.6.24,3.48.71,5.55,1.16a23.09,23.09,0,0,0,6.81.62A19.83,19.83,0,0,0,398.07,122a30.78,30.78,0,0,0,3.46-3.86,6.89,6.89,0,0,1-.7,1.22,18.22,18.22,0,0,1-2.51,2.91,19.52,19.52,0,0,1-11.47,5.07,22.45,22.45,0,0,1-7-.67c-2.09-.48-3.93-1-5.51-1.26a20.68,20.68,0,0,0-3.77-.39A12.55,12.55,0,0,1,369.22,125Z" style="fill:#455a64"></path><path d="M419.38,269.89c0,.06,2.28,53.75,0,103.39a807.53,807.53,0,0,1-8.57,83.12l-25.91-2.51s1.15-72.5,1.05-97c-.11-25.45,0-47.9,0-47.9S376,298.87,375,286.48s0-14.66,0-14.66Z" style="fill:#263238"></path><path d="M361.42,270.76c0,1.92-4.37,18-2.27,30.11s-23.8,145.3-23.8,145.3l24.72,7s13-44.56,21.07-84.21c7-34.44,9.14-64.72,8.82-64.61-.7.24-2.31-33.1-2.31-33.1Z" style="fill:#263238"></path><path d="M375,271.82a4.14,4.14,0,0,1-.12.72c-.09.47-.21,1.17-.34,2.09a61.6,61.6,0,0,0-.51,7.87c0,1.68.06,3.54.23,5.54a18.12,18.12,0,0,0,1.62,6.19,40.84,40.84,0,0,0,3.39,6.39,28,28,0,0,0,2.31,3.1,11.28,11.28,0,0,0,3,2.6l.13.07v.14c.1,4.83.21,10.07.32,15.49.27,14.78.52,28.16.69,37.89.06,4.81.12,8.72.15,11.47,0,1.33,0,2.37,0,3.12v.82a.94.94,0,0,1,0,.27,1.87,1.87,0,0,1,0-.27c0-.22,0-.48,0-.82,0-.75-.06-1.79-.11-3.12-.08-2.75-.18-6.66-.32-11.47-.21-9.73-.51-23.1-.84-37.88-.1-5.42-.2-10.66-.3-15.49l.14.22a11.42,11.42,0,0,1-3.12-2.72,27.48,27.48,0,0,1-2.34-3.17,40.8,40.8,0,0,1-3.4-6.48,18.66,18.66,0,0,1-1.59-6.32c-.16-2-.2-3.88-.17-5.57a55.78,55.78,0,0,1,.65-7.9c.16-.91.31-1.61.43-2.08A6.55,6.55,0,0,1,375,271.82Z" style="fill:#455a64"></path><path d="M400.35,162.28a33.06,33.06,0,0,1-12.87,3.47,39.24,39.24,0,0,1-13.11-2.38l3.09-1.66c3,.93,10.39,2.81,20.64-.5C398.67,161,400.35,162.28,400.35,162.28Z" style="fill:#0063F7"></path><path d="M357.73,172.32l-26.77,16-6.61-29.48-15.24,5.61,6.08,33.86a18.26,18.26,0,0,0,17.62,15.16H333A21.37,21.37,0,0,0,344.66,210l13.79-9Z" style="fill:#0063F7"></path><path d="M397.68,161.21s25.41,13.46,26.24,19.56,2.1,93.1,2.1,93.1l-64.6-2.48V230.64s-3.92-21.72-4.79-28.75c-1.38-11.14-.6-20.12.69-29.57L377,161.71C382.71,163.63,391.2,163.85,397.68,161.21Z" style="fill:#0063F7"></path><polygon points="467.18 286.14 465.75 249.4 410.67 261.38 418.59 299.96 467.18 286.14" style="fill:#e0e0e0"></polygon><polygon points="467.57 252.01 469.47 288.91 418.83 301.43 412.39 262.96 467.57 252.01" style="fill:#455a64"></polygon><path d="M406.54,195.23a2.15,2.15,0,0,1,.08.54c0,.42.07.95.13,1.58.09,1.38.24,3.36.45,5.81.42,4.9,1.17,11.65,2.39,19.05s2.71,14,3.89,18.8c.59,2.38,1.09,4.31,1.44,5.64l.39,1.53a1.75,1.75,0,0,1,.1.55,3.42,3.42,0,0,1-.2-.52c-.13-.4-.29-.9-.48-1.51-.42-1.31-1-3.22-1.61-5.6-1.27-4.76-2.81-11.39-4-18.81s-1.92-14.19-2.24-19.1c-.17-2.46-.27-4.45-.3-5.83,0-.64,0-1.16,0-1.58A2,2,0,0,1,406.54,195.23Z" style="fill:#263238"></path><path d="M369.69,236.14a8.63,8.63,0,0,1,.75,1.36c.22.45.5,1,.86,1.6s.74,1.32,1.25,2.05a28.52,28.52,0,0,0,1.67,2.39c.6.86,1.34,1.69,2.1,2.59a46.33,46.33,0,0,0,5.57,5.23,45.34,45.34,0,0,0,6.45,4.1c1.05.52,2.05,1,3,1.4s1.88.74,2.72,1,1.62.5,2.3.7a18,18,0,0,0,1.76.44,9.78,9.78,0,0,1,1.51.39,8,8,0,0,1-1.55-.19,16.13,16.13,0,0,1-1.79-.36c-.69-.18-1.49-.34-2.34-.63a27.46,27.46,0,0,1-2.77-1c-1-.36-2-.86-3.09-1.37A39.56,39.56,0,0,1,376,246.45c-.76-.92-1.49-1.78-2.09-2.65s-1.16-1.68-1.63-2.45-.85-1.49-1.19-2.11a15.62,15.62,0,0,1-.79-1.65A8.1,8.1,0,0,1,369.69,236.14Z" style="fill:#263238"></path><path d="M330.62,195.23c-.14,0,.24-1.61.31-3.58s-.15-3.56,0-3.58a9.84,9.84,0,0,1-.31,7.16Z" style="fill:#263238"></path><path d="M433.92,290.15l-2.16-8.74,11.95-4.36,4.63,9.45c.48.49,1,1,1.65,1.61a9.23,9.23,0,0,0,2.52,1.63,14.2,14.2,0,0,0,3.56,1.15c1.14.08,1.61,1.49.74,2s-4,.37-7.28-1.4-1,3.52-.22,5.48c.18.47.42,1.66-.32,2-1.13.5-1.84-.4-2.59-1.41a1.15,1.15,0,0,0-1.55-.47v0a4.46,4.46,0,0,1-4.56,2.51c-1.84-.21-4.29-.72-4.73-1.95A58.05,58.05,0,0,1,433.92,290.15Z" style="fill:#b78876"></path><path d="M418.08,175.56a7.28,7.28,0,0,1,6.21,4.72,54,54,0,0,1,3.32,11.94c1,7.46,3.09,35.23,3.09,35.23s16.51,55.18,16.39,55.52c0,0-5,5.35-14.2,3.8,0,0-14.8-29.74-17.62-36.94s-6.43-24.1-6.69-33.78c-.2-7.37-2.16-18.82-2.16-25.55,0-3.13,2.34-8.32,4.3-10.76C412.4,177.66,414.7,175.36,418.08,175.56Z" style="fill:#0063F7"></path><path d="M406.54,195.23a2.15,2.15,0,0,1,.08.54c0,.42.07.95.13,1.58.09,1.38.24,3.36.45,5.81.42,4.9,1.17,11.65,2.39,19.05s2.71,14,3.89,18.8c.59,2.38,1.09,4.31,1.44,5.64l.39,1.53a1.75,1.75,0,0,1,.1.55,3.42,3.42,0,0,1-.2-.52c-.13-.4-.29-.9-.48-1.51-.42-1.31-1-3.22-1.61-5.6-1.27-4.76-2.81-11.39-4-18.81s-1.92-14.19-2.24-19.1c-.17-2.46-.27-4.45-.3-5.83,0-.64,0-1.16,0-1.58A2,2,0,0,1,406.54,195.23Z" style="fill:#263238"></path><g style="opacity:0.30000000000000004"><path d="M356.21,182.45s-6.67,16.46-5,23.25l5.41-3.54S355,189,356.21,182.45Z"></path></g></g></svg>