<svg xmlns="http://www.w3.org/2000/svg" viewBox="0 0 500 500"><g id="freepik--Floor--inject-68"><ellipse id="freepik--floor--inject-68" cx="249.81" cy="342.08" rx="243.24" ry="140.43" style="fill:#f0f0f0"></ellipse></g><g id="freepik--Shadows--inject-68"><ellipse id="freepik--Shadow--inject-68" cx="374.41" cy="378.93" rx="71.61" ry="41.34" style="fill:#e0e0e0"></ellipse><path id="freepik--shadow--inject-68" d="M110.62,399.14l-16.38-9.45a4.87,4.87,0,0,0-4.43,0L77.6,396.74a5,5,0,0,1-4.44,0L31.82,372.87c-1.23-.71-1.23-1.86,0-2.56l137.06-79.14a4.89,4.89,0,0,1,4.44,0L214.67,315a1.37,1.37,0,0,1,0,2.58l-12.23,7.19a1.35,1.35,0,0,0,0,2.56l16.36,9.31a1.34,1.34,0,0,1,0,2.55L115.05,399.14A4.87,4.87,0,0,1,110.62,399.14Z" style="fill:#e0e0e0"></path></g><g id="freepik--Clouds--inject-68"><g id="freepik--clouds--inject-68"><path d="M417.9,60.66l7.27,4.2a7.85,7.85,0,0,1-.06-1V61.79c0-3.75,2.63-5.27,5.88-3.39a11.29,11.29,0,0,1,3.5,3.37c.53-4.72,4.23-6.48,8.73-3.88,4.85,2.8,8.79,9.62,8.79,15.23v3.16a8.4,8.4,0,0,1-.74,3.65l6,3.49a7.19,7.19,0,0,1,3.26,5.64c0,2.08-1.46,2.93-3.26,1.89L417.9,68.19a7.21,7.21,0,0,1-3.26-5.65C414.64,60.46,416.1,59.62,417.9,60.66Z" style="fill:#f0f0f0"></path><path d="M368.77,70.1l4,1.54V62.81c0-7,5.58-8.69,11.65-5.19h0c6.07,3.51,11,12,11,19v1.29a5.9,5.9,0,0,1,5.1.78h0a17.48,17.48,0,0,1,7.9,13.69V93l5.6,3.23a11.52,11.52,0,0,1,5.2,9c0,3.32-2.33,4.66-5.2,3L368.77,82.12a11.5,11.5,0,0,1-5.2-9C363.57,69.79,365.9,68.44,368.77,70.1Z" style="fill:#f0f0f0"></path></g></g><g id="freepik--Plants--inject-68"><g id="freepik--plants--inject-68"><path d="M432,260.12l-8-4.64s-4.78-19.87-2.87-37.74c2.67-25.13,19.22-34.59,25.51-32.42s8.11,9.48-2.3,24.45C438.19,218.6,430.65,237,432,260.12Z" style="fill:#4259ED"></path><g style="opacity:0.15"><path d="M432,260.12l-8-4.64s-4.78-19.87-2.87-37.74c2.67-25.13,19.22-34.59,25.51-32.42s8.11,9.48-2.3,24.45C438.19,218.6,430.65,237,432,260.12Z"></path></g><path d="M428.7,250.36h.07a.57.57,0,0,0,.45-.65c-4.41-23.18,3.69-49.23,13.72-60.06a.56.56,0,0,0,0-.79.56.56,0,0,0-.79,0c-10.21,11-18.47,37.51-14,61A.56.56,0,0,0,428.7,250.36Z" style="fill:#fff"></path><path d="M453.07,272.27c1.26.65,4.64-2.24,5.58-2.95a11.78,11.78,0,0,0,3.69-4.69A11,11,0,0,0,463,258a26.15,26.15,0,0,0-1-3.48c-.39-1.12-.77-2.25-1.16-3.37a8.65,8.65,0,0,1-.67-3.42c.18-2.35,2.17-4.1,4-5.61,2-1.66,4.07-3.84,3.92-6.65a10,10,0,0,0-2.78-5.77c-1.43-1.64-3.1-3.06-4.41-4.8a7,7,0,0,1-1.64-4.3,7.2,7.2,0,0,1,.82-2.78c.9-1.89,2.13-3.63,2.71-5.63s.37-4.45-1.24-5.78c-1.32-1.1-3.2-1.16-4.91-1a11,11,0,0,0-4.42,1.81c-4.34,2.71-6.63,8.13-11.27,10.28a48,48,0,0,1-5.67,1.69c-1.88.6-3.78,1.68-4.57,3.48-1.57,3.57,1.88,7.69.84,11.44-.92,3.32-4,4.73-5.66,7.77a7,7,0,0,0-.62,4.32,20.55,20.55,0,0,0,2.17,7.13,64.19,64.19,0,0,0,4.29,6.6S452.87,272.17,453.07,272.27Z" style="fill:#4259ED"></path><path d="M440.77,265.86h0a.56.56,0,0,0,.51-.61c-2-22,7.14-47,14.36-54.43a.56.56,0,0,0-.81-.77c-7.35,7.62-16.72,32.95-14.66,55.31A.55.55,0,0,0,440.77,265.86Z" style="fill:#fff"></path><path d="M443,238.68a.47.47,0,0,0,.16,0A75.06,75.06,0,0,1,459,235.25a.56.56,0,0,0,.5-.6.54.54,0,0,0-.61-.51,76.54,76.54,0,0,0-16.18,3.46.54.54,0,0,0-.33.71A.56.56,0,0,0,443,238.68Z" style="fill:#fff"></path></g></g><g id="freepik--Device--inject-68"><g id="freepik--Decvice--inject-68"><g id="freepik--device--inject-68"><path d="M196.05,50.93,83.73,115.78a8.41,8.41,0,0,0-3.79,6.58V386.88c0,2.42,1.7,3.41,3.79,2.19l112.32-64.84a8.41,8.41,0,0,0,3.79-6.58V53.12C199.84,50.7,198.14,49.72,196.05,50.93Zm-1.68,248.65c0,2.07-1.45,3.39-3.25,4.43L88.28,363.39c-1.79,1-3.25.19-3.25-1.89V142.24h0a6.48,6.48,0,0,1,3.24-5.62L191.11,77.21a2.18,2.18,0,0,1,3.26,1.88h0Z" style="fill:#4259ED"></path><g style="opacity:0.30000000000000004"><path d="M196.05,50.93,83.73,115.78a8.41,8.41,0,0,0-3.79,6.58V386.88c0,2.42,1.7,3.41,3.79,2.19l112.32-64.84a8.41,8.41,0,0,0,3.79-6.58V53.12C199.84,50.7,198.14,49.72,196.05,50.93Zm-1.68,248.65c0,2.07-1.45,3.39-3.25,4.43L88.28,363.39c-1.79,1-3.25.19-3.25-1.89V142.24h0a6.48,6.48,0,0,1,3.24-5.62L191.11,77.21a2.18,2.18,0,0,1,3.26,1.88h0Z"></path></g><path d="M194.37,299.58c0,2.07-1.45,3.39-3.25,4.43L88.28,363.39c-1.79,1-3.25.19-3.25-1.89V142.24h0a6.48,6.48,0,0,1,3.24-5.62L191.11,77.21a2.18,2.18,0,0,1,3.26,1.88h0Z" style="fill:#4259ED"></path><path d="M194.37,299.58c0,2.07-1.45,3.39-3.25,4.43L88.28,363.39c-1.79,1-3.25.19-3.25-1.89V142.24h0a6.48,6.48,0,0,1,3.24-5.62L191.11,77.21a2.18,2.18,0,0,1,3.26,1.88h0Z" style="fill:#4259ED"></path><path d="M194.37,299.58c0,2.07-1.45,3.39-3.25,4.43L88.28,363.39c-1.79,1-3.25.19-3.25-1.89V142.24h0a6.48,6.48,0,0,1,3.24-5.62L191.11,77.21a2.18,2.18,0,0,1,3.26,1.88h0Z" style="opacity:0.5"></path><path d="M88.28,363.39,191.12,304a9.32,9.32,0,0,0,1.94-1.44L85,240.19V361.5C85,363.58,86.49,364.42,88.28,363.39Z" style="fill:#4259ED"></path><path d="M88.28,363.39,191.12,304a9.32,9.32,0,0,0,1.94-1.44L85,240.19V361.5C85,363.58,86.49,364.42,88.28,363.39Z" style="opacity:0.4"></path><path d="M186.05,292.87V80.14L88.27,136.62A6.48,6.48,0,0,0,85,142.24V353.75l97.76-56.45C184.6,296.26,186.05,294.94,186.05,292.87Z" style="fill:#455a64"></path><path d="M83.26,389.31a8.49,8.49,0,0,1-7.13-.23l-4.34-2.51A8.36,8.36,0,0,1,68,380V115.48a7,7,0,0,1,.66-2.84,9.74,9.74,0,0,1,.45-.92h0l12,6.9h0A9.78,9.78,0,0,0,80.4,120a7,7,0,0,0-.46,2.35V386.89C79.94,389.12,81.39,390.13,83.26,389.31Z" style="fill:#4259ED"></path><g style="opacity:0.5"><path d="M83.26,389.31a8.49,8.49,0,0,1-7.13-.23l-4.34-2.51A8.36,8.36,0,0,1,68,380V115.48a7,7,0,0,1,.66-2.84,9.74,9.74,0,0,1,.45-.92h0l12,6.9h0A9.78,9.78,0,0,0,80.4,120a7,7,0,0,0-.46,2.35V386.89C79.94,389.12,81.39,390.13,83.26,389.31Z"></path></g><path d="M142.38,339.31h0c1.94,0,2.15,2.18,2.15,3.11a12.17,12.17,0,0,1-5.41,9.38,4.39,4.39,0,0,1-2.1.66c-1.94,0-2.15-2.18-2.15-3.11a12.17,12.17,0,0,1,5.41-9.38,4.39,4.39,0,0,1,2.1-.66m0-1.17a5.49,5.49,0,0,0-2.68.82,13.26,13.26,0,0,0-6,10.39c0,2.71,1.35,4.28,3.32,4.28a5.49,5.49,0,0,0,2.68-.82,13.26,13.26,0,0,0,6-10.39c0-2.71-1.36-4.28-3.32-4.28Z" style="fill:#263238"></path><path d="M139.81,87.26c1.4-.81,2.54-.15,2.54,1.47a5.63,5.63,0,0,1-2.54,4.41c-1.41.81-2.55.16-2.55-1.47A5.62,5.62,0,0,1,139.81,87.26Z"></path><path d="M126.12,103,153.65,87.1c1.18-.68,2.13-.19,2.13,1.08a4.52,4.52,0,0,1-2.13,3.52l-27.53,15.91c-1.17.67-2.12.19-2.12-1.08A4.54,4.54,0,0,1,126.12,103Z"></path><path d="M199.8,52.52c-.27-2-1.85-2.69-3.75-1.59L83.73,115.78a7.66,7.66,0,0,0-2.68,2.84l-12-6.9a7.65,7.65,0,0,1,2.69-2.83L184.09,44a8.41,8.41,0,0,1,7.6,0l4.36,2.5A8.5,8.5,0,0,1,199.8,52.52Z" style="fill:#4259ED"></path><g style="opacity:0.4"><path d="M199.8,52.52c-.27-2-1.85-2.69-3.75-1.59L83.73,115.78a7.66,7.66,0,0,0-2.68,2.84l-12-6.9a7.65,7.65,0,0,1,2.69-2.83L184.09,44a8.41,8.41,0,0,1,7.6,0l4.36,2.5A8.5,8.5,0,0,1,199.8,52.52Z"></path></g></g></g></g><g id="freepik--Screen--inject-68"><polygon points="214.85 91.71 105.51 154.76 105.51 381.54 111.7 385.09 221.04 321.94 221.04 95.25 214.85 91.71" style="fill:#e0e0e0"></polygon><path d="M221.05,319.39c0,2.07-1.46,3.39-3.26,4.42L115,383.19c-1.79,1-3.25.2-3.25-1.88V162h0a6.48,6.48,0,0,1,3.24-5.61L217.79,97a2.17,2.17,0,0,1,3.26,1.88h0Z" style="fill:#fafafa"></path><path d="M218.87,97.66a1.25,1.25,0,0,1,1.24,1.24V319.39c0,1.39-.86,2.5-2.79,3.61L114.49,382.38a2,2,0,0,1-1,.32c-.75,0-.86-.87-.86-1.39V162a5.56,5.56,0,0,1,2.77-4.8L218.26,97.83a1.22,1.22,0,0,1,.61-.17m0-.93a2.16,2.16,0,0,0-1.08.29L114.94,156.43A6.48,6.48,0,0,0,111.7,162V381.31c0,1.48.73,2.33,1.8,2.33a3,3,0,0,0,1.45-.45l102.84-59.38c1.8-1,3.26-2.35,3.26-4.42V98.9a2.18,2.18,0,0,0-2.18-2.17Z" style="fill:#e0e0e0"></path><path d="M217.79,97,111.7,158.3v23.87L221.05,119V95.25S219.23,96.18,217.79,97Z" style="fill:#455a64"></path><path d="M111.7,362.63v22.46l109.35-63.15V299.5Z" style="fill:#455a64"></path><polygon points="105.51 178.63 111.7 182.18 111.7 158.3 105.51 154.76 105.51 178.63" style="fill:#263238"></polygon><polygon points="221.04 95.25 214.85 91.71 105.51 154.76 111.7 158.3 221.04 95.25" style="fill:#37474f"></polygon><polygon points="111.7 362.6 105.51 359.06 105.51 381.54 111.7 385.09 111.7 362.6" style="fill:#263238"></polygon><path d="M127,156.29a.31.31,0,0,1,0-.13v-.63l-1,.57c-.06,0-.08,0-.08-.09v-.22a.49.49,0,0,1,0-.13.35.35,0,0,1,0-.12l1.05-2.87,0-.11a.23.23,0,0,1,.07-.07l.14-.07s.07,0,.09,0a.24.24,0,0,1,0,.14v2.21l.22-.12s.07,0,.08,0a.22.22,0,0,1,0,.14v.15a.35.35,0,0,1,0,.16.14.14,0,0,1-.08.09l-.22.13v.63a.35.35,0,0,1,0,.16.28.28,0,0,1-.09.1l-.17.09S127.06,156.31,127,156.29Zm0-1.34v-1.57l-.71,2Z" style="fill:#fafafa"></path><path d="M128.22,155.23a2.11,2.11,0,0,1-.29-1.29,4.24,4.24,0,0,1,.29-1.63,2,2,0,0,1,.82-1,.86.86,0,0,1,.4-.15.42.42,0,0,1,.3,0,.06.06,0,0,1,0,.06.23.23,0,0,1,0,.07l-.09.33a.14.14,0,0,1,0,.07h0a.58.58,0,0,0-.51.08,1.37,1.37,0,0,0-.55.68,3,3,0,0,0-.21,1.2,1.68,1.68,0,0,0,.2,1c.13.16.31.17.54,0l.24-.18a1.29,1.29,0,0,0,.2-.21v-1l-.42.24s-.07,0-.08,0a.22.22,0,0,1,0-.14v-.14a.35.35,0,0,1,0-.16.14.14,0,0,1,.08-.09l.66-.38s.08,0,.1,0a.28.28,0,0,1,0,.16v1.47a.53.53,0,0,1,0,.13.18.18,0,0,1,0,.09,2.09,2.09,0,0,1-.78.78C128.69,155.47,128.41,155.46,128.22,155.23Z" style="fill:#fafafa"></path><path d="M216.37,100.84a.29.29,0,0,0-.4-.13L212,103a1.53,1.53,0,0,0-.45,1.2v2.21a1.28,1.28,0,0,0,.17.71.38.38,0,0,0,.16.15.27.27,0,0,0,.23,0l3.94-2.27a1.49,1.49,0,0,0,.46-1.2v-2.22A1.27,1.27,0,0,0,216.37,100.84Zm-4.51,6a.65.65,0,0,1-.07-.33v-2.22a1.19,1.19,0,0,1,.35-.91l3.94-2.26a.13.13,0,0,1,.13,0l0,0a.66.66,0,0,1,.06.33v2.21a1.19,1.19,0,0,1-.35.92L212,106.84A.11.11,0,0,1,211.86,106.82Z" style="fill:#fafafa"></path><path d="M215.9,101.77v1.89a1,1,0,0,1-.49.84l-3.21,1.84a.08.08,0,0,1-.12-.07v-2a.86.86,0,0,1,.26-.67l3.41-2A.1.1,0,0,1,215.9,101.77Z" style="fill:#fafafa"></path><path d="M216.69,101.48c.1-.07.19.25.19.7v.41a1.62,1.62,0,0,1-.2,1l-.2.14v-2.1Z" style="fill:#fafafa"></path><path d="M136.56,150.18a1.51,1.51,0,0,1-.58,1.22c-.31.18-.57-.07-.57-.55a1.53,1.53,0,0,1,.57-1.22C136.3,149.45,136.56,149.7,136.56,150.18Z" style="fill:#fafafa"></path><path d="M136,148.18a3.51,3.51,0,0,0-1.33,2c-.05.18,0,.35.06.4h0c.11.07.27-.07.33-.3a2.45,2.45,0,0,1,.94-1.41.6.6,0,0,1,.94.33c.07.15.23.11.34-.09h0a.58.58,0,0,0,.06-.47A.87.87,0,0,0,136,148.18Z" style="fill:#fafafa"></path><path d="M136,146.77a5.39,5.39,0,0,0-2,2.92c-.06.19,0,.38,0,.44h0c.11.07.26-.07.33-.28a4.39,4.39,0,0,1,1.67-2.39,1.12,1.12,0,0,1,1.68.46c.07.13.22.09.33-.1h0a.61.61,0,0,0,0-.5A1.37,1.37,0,0,0,136,146.77Z" style="fill:#fafafa"></path><path d="M161.49,134a.15.15,0,0,1,0-.1.28.28,0,0,1,0-.13l.82-1.48a.61.61,0,0,1,.07-.1.19.19,0,0,1,.07-.08l.29-.17a.08.08,0,0,1,.08,0,.12.12,0,0,1,0,.09v3.78a.31.31,0,0,1,0,.13.24.24,0,0,1-.08.09l-.3.18a.08.08,0,0,1-.08,0,.12.12,0,0,1,0-.09v-2.89l-.54,1a.12.12,0,0,1-.07.07s-.05,0-.07,0Z" style="fill:#fafafa"></path><path d="M163.41,132.87s0-.06,0-.11a.56.56,0,0,1,0-.12l.83-1.48.06-.1a.12.12,0,0,1,.07-.07l.29-.18a.08.08,0,0,1,.08,0,.12.12,0,0,1,0,.09v3.78a.31.31,0,0,1,0,.13.24.24,0,0,1-.08.09l-.3.18a.06.06,0,0,1-.07,0,.13.13,0,0,1,0-.09V132.1l-.53,1a.17.17,0,0,1-.08.07s0,0-.07,0Z" style="fill:#fafafa"></path><path d="M165.93,131.25a.06.06,0,0,1,.08,0,.12.12,0,0,1,0,.09v.57a.28.28,0,0,1,0,.13.24.24,0,0,1-.08.09l-.35.2s-.05,0-.07,0a.12.12,0,0,1,0-.09v-.58a.35.35,0,0,1,0-.13.22.22,0,0,1,.07-.09Zm0,2.05a.06.06,0,0,1,.08,0,.13.13,0,0,1,0,.1V134a.31.31,0,0,1,0,.13.24.24,0,0,1-.08.09l-.35.2s-.05,0-.07,0a.15.15,0,0,1,0-.1v-.57a.31.31,0,0,1,0-.13.22.22,0,0,1,.07-.09Z" style="fill:#fafafa"></path><path d="M168,133a.06.06,0,0,1-.07,0,.12.12,0,0,1,0-.09v-.71l-1.18.68a.06.06,0,0,1-.07,0,.12.12,0,0,1,0-.09v-.42a.4.4,0,0,1,0-.15,1.54,1.54,0,0,1,0-.17l1.17-2.9a.49.49,0,0,1,.15-.24l.29-.17a.06.06,0,0,1,.07,0,.12.12,0,0,1,0,.09v2.34l.33-.19a.06.06,0,0,1,.07,0,.12.12,0,0,1,0,.09v.42a.35.35,0,0,1,0,.13s0,.07-.07.08l-.33.19v.71a.31.31,0,0,1,0,.13.22.22,0,0,1-.07.09Zm-.1-1.54v-1.25l-.65,1.62Z" style="fill:#fafafa"></path><path d="M169.49,128.2a.28.28,0,0,1,0-.13.22.22,0,0,1,.07-.09l1.43-.82s0,0,.07,0a.12.12,0,0,1,0,.09v.42a.31.31,0,0,1,0,.13.22.22,0,0,1-.07.09l-1.07.61,0,.78a1,1,0,0,1,.21-.2l.16-.1a.84.84,0,0,1,.4-.14.41.41,0,0,1,.31.07.66.66,0,0,1,.21.31,1.56,1.56,0,0,1,.08.53,3,3,0,0,1-.08.69,2.51,2.51,0,0,1-.22.56,1.76,1.76,0,0,1-.31.43,1.61,1.61,0,0,1-.39.31,1.11,1.11,0,0,1-.45.16.44.44,0,0,1-.31-.07.57.57,0,0,1-.19-.26,1.59,1.59,0,0,1-.07-.4.31.31,0,0,1,0-.13.35.35,0,0,1,.07-.09l.31-.17a.06.06,0,0,1,.07,0,.2.2,0,0,1,0,.08.52.52,0,0,0,.07.18.25.25,0,0,0,.12.07.24.24,0,0,0,.14,0,.44.44,0,0,0,.17-.08.93.93,0,0,0,.35-.38,1.2,1.2,0,0,0,.13-.57.4.4,0,0,0-.13-.36.3.3,0,0,0-.35,0,.52.52,0,0,0-.18.13L170,130l-.07.11-.09.07-.35.2s0,0-.07,0a.12.12,0,0,1,0-.09Z" style="fill:#fafafa"></path><polygon points="116.11 163.07 116.11 161.85 117.17 161.24 117.17 162.46 116.11 163.07" style="fill:#fafafa"></polygon><polygon points="117.7 162.16 117.7 159.72 118.75 159.11 118.75 161.55 117.7 162.16" style="fill:#fafafa"></polygon><polygon points="119.28 161.24 119.28 157.59 120.34 156.98 120.34 160.63 119.28 161.24" style="fill:#fafafa"></polygon><polygon points="120.87 160.33 120.87 155.45 121.92 154.84 121.92 159.72 120.87 160.33" style="fill:#fafafa"></polygon><polygon points="205.59 108.17 209.42 104.77 208.24 109.76 207.68 107.69 205.59 108.17" style="fill:#fafafa"></polygon><path d="M119.93,165l92.89-53.73c.73-.42,1.33-.08,1.33.77v4.13a3,3,0,0,1-1.33,2.31l-92.89,53.73c-.74.42-1.33.08-1.33-.77v-4.13A2.94,2.94,0,0,1,119.93,165Z" style="fill:#fafafa;opacity:0.5"></path><path d="M152.44,148.34a.67.67,0,0,1,.41-.1.49.49,0,0,1,.32.19,1.06,1.06,0,0,1,.21.41,2.08,2.08,0,0,1,.08.58,1.85,1.85,0,0,1,0,.25,2,2,0,0,1,0,.25,3.31,3.31,0,0,1-.08.68,3.53,3.53,0,0,1-.21.65,2.48,2.48,0,0,1-.32.55,1.33,1.33,0,0,1-.41.38,1,1,0,0,1-.26.11.67.67,0,0,1-.2,0,.29.29,0,0,1-.14,0,.44.44,0,0,1-.1-.08v.16a.34.34,0,0,1,0,.16.15.15,0,0,1-.09.1l-.35.21a.06.06,0,0,1-.08,0,.12.12,0,0,1,0-.11V148a.29.29,0,0,1,0-.16.24.24,0,0,1,.08-.11l.35-.2s.07,0,.09,0a.12.12,0,0,1,0,.11v1.51a1.82,1.82,0,0,1,.1-.19,1.35,1.35,0,0,1,.14-.22,1.37,1.37,0,0,1,.2-.22A1.06,1.06,0,0,1,152.44,148.34Zm.43,1.48a.76.76,0,0,0-.19-.56.32.32,0,0,0-.38,0,1,1,0,0,0-.38.43,1.53,1.53,0,0,0-.18.69,2.1,2.1,0,0,0,0,.27,1.86,1.86,0,0,0,0,.26.61.61,0,0,0,.18.49.31.31,0,0,0,.38,0,1,1,0,0,0,.38-.43,1.93,1.93,0,0,0,.19-.77Z" style="fill:#fafafa"></path><path d="M155.35,147.59a.86.86,0,0,0-.4.42,1.63,1.63,0,0,0-.12.68v1.85a.42.42,0,0,1,0,.15.21.21,0,0,1-.09.11l-.35.2a.08.08,0,0,1-.09,0,.19.19,0,0,1,0-.12v-3.31a.4.4,0,0,1,0-.15.26.26,0,0,1,.09-.11l.35-.2a.07.07,0,0,1,.09,0,.19.19,0,0,1,0,.12v.16a2.22,2.22,0,0,1,.25-.41,1.37,1.37,0,0,1,.36-.3l.21-.12a.05.05,0,0,1,.08,0,.12.12,0,0,1,0,.11v.47a.34.34,0,0,1,0,.16.21.21,0,0,1-.08.1Z" style="fill:#fafafa"></path><path d="M157.41,145.47a1,1,0,0,1,.45-.14.57.57,0,0,1,.36.13.81.81,0,0,1,.24.36,1.74,1.74,0,0,1,.1.55.71.71,0,0,1,0,.16v.39a.86.86,0,0,1,0,.17,3.1,3.1,0,0,1-.1.67,3.41,3.41,0,0,1-.24.63,2.54,2.54,0,0,1-.36.54,1.79,1.79,0,0,1-.45.38,1,1,0,0,1-.46.15.63.63,0,0,1-.36-.13.81.81,0,0,1-.24-.36,2,2,0,0,1-.1-.54c0-.05,0-.1,0-.16v-.4c0-.06,0-.12,0-.16a3,3,0,0,1,.1-.67,3.25,3.25,0,0,1,.24-.64,2.54,2.54,0,0,1,.36-.54A1.71,1.71,0,0,1,157.41,145.47Zm.56,1.28a1.17,1.17,0,0,0-.07-.33.39.39,0,0,0-.13-.15.25.25,0,0,0-.17,0,.46.46,0,0,0-.19.08.62.62,0,0,0-.19.14,1.2,1.2,0,0,0-.17.21,1.26,1.26,0,0,0-.14.31,2.23,2.23,0,0,0-.06.41.57.57,0,0,0,0,.14v.36a.45.45,0,0,0,0,.13,1.08,1.08,0,0,0,.06.33.27.27,0,0,0,.31.18,1,1,0,0,0,.19-.08l.19-.14a1.4,1.4,0,0,0,.17-.22,1.52,1.52,0,0,0,.13-.31,2.06,2.06,0,0,0,.07-.4v-.64Z" style="fill:#fafafa"></path><path d="M161.6,145.33l.42-2.28a.93.93,0,0,1,0-.13.14.14,0,0,1,.09-.11l.35-.2a.06.06,0,0,1,.08,0,.15.15,0,0,1,0,.12v.05l-.7,3.68a1,1,0,0,1,0,.14.2.2,0,0,1-.09.11l-.35.2q-.08,0-.09,0a.31.31,0,0,1,0-.1l-.45-1.63-.44,2.15s0,.1,0,.15a.19.19,0,0,1-.09.11l-.35.2s-.07,0-.09,0a.25.25,0,0,1,0-.09l-.7-2.87v0a.45.45,0,0,1,0-.16.35.35,0,0,1,.09-.11l.35-.2s.08,0,.09,0a.19.19,0,0,1,0,.09l.42,1.79.44-2.29a1,1,0,0,1,0-.14.22.22,0,0,1,.09-.1l.35-.21a.06.06,0,0,1,.08,0,.2.2,0,0,1,0,.09Z" style="fill:#fafafa"></path><path d="M164.56,144.05a.11.11,0,0,0-.14-.14l-.22,0-.34.08a.64.64,0,0,1-.33,0,.43.43,0,0,1-.22-.12.62.62,0,0,1-.11-.26,2.09,2.09,0,0,1,0-.38,1.86,1.86,0,0,1,.06-.45,2.18,2.18,0,0,1,.19-.48,2.38,2.38,0,0,1,.3-.43,1.6,1.6,0,0,1,.4-.33,1,1,0,0,1,.4-.15.48.48,0,0,1,.3,0,.39.39,0,0,1,.2.18.82.82,0,0,1,.08.29.34.34,0,0,1,0,.16.2.2,0,0,1-.09.11l-.36.2a.1.1,0,0,1-.1,0l-.07,0a.21.21,0,0,0-.12,0,.53.53,0,0,0-.2.08,1,1,0,0,0-.25.21.43.43,0,0,0-.1.29c0,.05,0,.09,0,.11a.11.11,0,0,0,.1,0,.83.83,0,0,0,.2,0l.33-.08a.55.55,0,0,1,.58.09.91.91,0,0,1,.16.61,1.94,1.94,0,0,1-.06.46,3.26,3.26,0,0,1-.2.48,2.66,2.66,0,0,1-.33.44,1.74,1.74,0,0,1-.43.34,1,1,0,0,1-.43.16.55.55,0,0,1-.32,0,.58.58,0,0,1-.2-.21.73.73,0,0,1-.07-.3.32.32,0,0,1,0-.16.2.2,0,0,1,.09-.11l.35-.21c.05,0,.08,0,.1,0l.08.06a.22.22,0,0,0,.12,0,.51.51,0,0,0,.24-.09l.14-.1a.81.81,0,0,0,.14-.12.49.49,0,0,0,.1-.15A.28.28,0,0,0,164.56,144.05Z" style="fill:#fafafa"></path><path d="M165.77,142.57a3.62,3.62,0,0,1,.08-.8,3.53,3.53,0,0,1,.22-.74,2.88,2.88,0,0,1,.36-.62,1.68,1.68,0,0,1,.47-.42.74.74,0,0,1,.47-.12.62.62,0,0,1,.36.18,1.18,1.18,0,0,1,.22.45,2.12,2.12,0,0,1,.08.64v.32a.41.41,0,0,1,0,.16.35.35,0,0,1-.09.11l-1.54.89a.65.65,0,0,0,0,.26.33.33,0,0,0,.12.14.25.25,0,0,0,.17,0,.53.53,0,0,0,.2-.07,1.08,1.08,0,0,0,.39-.39.92.92,0,0,1,.09-.13l.08-.07.37-.21s.07,0,.09,0,0,.06,0,.12a1.46,1.46,0,0,1-.08.29,2.29,2.29,0,0,1-.2.43,3.15,3.15,0,0,1-.33.44,1.78,1.78,0,0,1-.45.37.82.82,0,0,1-.47.13.5.5,0,0,1-.36-.19,1.08,1.08,0,0,1-.22-.47A2.67,2.67,0,0,1,165.77,142.57Zm1.13-1.72a.71.71,0,0,0-.23.19,1.53,1.53,0,0,0-.16.25c0,.09-.07.18-.1.27s0,.17,0,.25l1-.61a1.62,1.62,0,0,0,0-.2.46.46,0,0,0-.09-.17.19.19,0,0,0-.15-.06A.39.39,0,0,0,166.9,140.85Z" style="fill:#fafafa"></path><path d="M169.89,139.19a1,1,0,0,0-.4.42,1.63,1.63,0,0,0-.12.68v1.85a.32.32,0,0,1,0,.16.2.2,0,0,1-.09.11l-.35.2a.05.05,0,0,1-.08,0,.12.12,0,0,1,0-.11v-3.31a.29.29,0,0,1,0-.16.24.24,0,0,1,.08-.11l.35-.2s.07,0,.09,0a.12.12,0,0,1,0,.11V139a2.06,2.06,0,0,1,.26-.41,1.49,1.49,0,0,1,.35-.3l.21-.12a.1.1,0,0,1,.09,0,.16.16,0,0,1,0,.11v.47a.42.42,0,0,1,0,.16.35.35,0,0,1-.09.11Z" style="fill:#fafafa"></path><path d="M171.17,140.21a.1.1,0,0,1,.09,0,.16.16,0,0,1,0,.11v.7a.45.45,0,0,1,0,.16.53.53,0,0,1-.09.11l-.43.24a.08.08,0,0,1-.09,0,.21.21,0,0,1,0-.12v-.69a.41.41,0,0,1,0-.16.35.35,0,0,1,.09-.11Z" style="fill:#fafafa"></path><path d="M172.59,138.38a1.93,1.93,0,0,0,0,.25,1.63,1.63,0,0,0,0,.24,1.23,1.23,0,0,0,.06.34.38.38,0,0,0,.13.18.26.26,0,0,0,.17.05.56.56,0,0,0,.19-.07.72.72,0,0,0,.19-.14.66.66,0,0,0,.14-.15,1.51,1.51,0,0,0,.09-.18c0-.06.05-.13.08-.2l.06-.16a.31.31,0,0,1,.09-.12l.35-.2a.06.06,0,0,1,.09,0,.12.12,0,0,1,0,.11,2.83,2.83,0,0,1-.07.4,3.16,3.16,0,0,1-.2.53,2.85,2.85,0,0,1-.35.53,1.94,1.94,0,0,1-.51.43.79.79,0,0,1-.46.13.58.58,0,0,1-.35-.15,1,1,0,0,1-.24-.38,2.33,2.33,0,0,1-.1-.57,2.26,2.26,0,0,1,0-.27,2.81,2.81,0,0,1,0-.3,3.29,3.29,0,0,1,.1-.68,3.21,3.21,0,0,1,.24-.66,2.42,2.42,0,0,1,.35-.56,1.72,1.72,0,0,1,.46-.4,1,1,0,0,1,.51-.16.57.57,0,0,1,.35.13.84.84,0,0,1,.2.29,1.51,1.51,0,0,1,.07.33.28.28,0,0,1,0,.15.25.25,0,0,1-.09.11l-.35.2a.06.06,0,0,1-.09,0l-.06-.09a1,1,0,0,0-.08-.11.31.31,0,0,0-.09-.07h-.14a.87.87,0,0,0-.19.08.7.7,0,0,0-.19.16.92.92,0,0,0-.17.24,1.93,1.93,0,0,0-.13.32A2.65,2.65,0,0,0,172.59,138.38Z" style="fill:#fafafa"></path><path d="M176.06,134.71a.89.89,0,0,1,.46-.15.56.56,0,0,1,.35.13,1,1,0,0,1,.24.36,1.54,1.54,0,0,1,.1.55.76.76,0,0,1,0,.16v.4a.81.81,0,0,1,0,.16,3.1,3.1,0,0,1-.1.67,3.41,3.41,0,0,1-.24.63,3,3,0,0,1-.35.54,1.79,1.79,0,0,1-.46.38,1,1,0,0,1-.46.15.52.52,0,0,1-.36-.13.84.84,0,0,1-.24-.35,1.8,1.8,0,0,1-.1-.55.81.81,0,0,1,0-.16v-.39a.81.81,0,0,1,0-.17,3.1,3.1,0,0,1,.1-.67,3.25,3.25,0,0,1,.24-.64,2.54,2.54,0,0,1,.36-.54A1.51,1.51,0,0,1,176.06,134.71Zm.55,1.27a.82.82,0,0,0-.06-.32.36.36,0,0,0-.13-.16.25.25,0,0,0-.17,0,.64.64,0,0,0-.19.08.85.85,0,0,0-.19.14,1,1,0,0,0-.17.22.91.91,0,0,0-.13.3,1.67,1.67,0,0,0-.07.41.61.61,0,0,0,0,.14v.36a.53.53,0,0,0,0,.14.8.8,0,0,0,.07.32.27.27,0,0,0,.13.16.25.25,0,0,0,.17,0,1,1,0,0,0,.19-.08l.19-.14a1.4,1.4,0,0,0,.17-.22,1.41,1.41,0,0,0,.19-.71.53.53,0,0,0,0-.14v-.36A.61.61,0,0,0,176.61,136Z" style="fill:#fafafa"></path><path d="M178.58,133.68a1.91,1.91,0,0,1,.26-.47,1.12,1.12,0,0,1,.33-.3.63.63,0,0,1,.48-.11.51.51,0,0,1,.29.27,2.07,2.07,0,0,1,.15-.34,2.16,2.16,0,0,1,.18-.3,2.57,2.57,0,0,1,.21-.24,1.46,1.46,0,0,1,.21-.16.6.6,0,0,1,.43-.11.41.41,0,0,1,.29.19,1.19,1.19,0,0,1,.15.45,3.74,3.74,0,0,1,0,.61v1.91a.4.4,0,0,1,0,.15.26.26,0,0,1-.09.11l-.35.2a.07.07,0,0,1-.09,0,.19.19,0,0,1,0-.12v-1.87a1,1,0,0,0-.12-.61c-.08-.08-.19-.08-.33,0a.82.82,0,0,0-.32.36,1.78,1.78,0,0,0-.14.73V136a.32.32,0,0,1,0,.16.24.24,0,0,1-.08.11l-.36.2a.05.05,0,0,1-.08,0,.12.12,0,0,1,0-.11v-1.88a1,1,0,0,0-.12-.6c-.08-.09-.19-.08-.34,0a.89.89,0,0,0-.32.38,1.71,1.71,0,0,0-.13.75v1.88a.28.28,0,0,1,0,.15.2.2,0,0,1-.09.11l-.35.2a.07.07,0,0,1-.09,0,.21.21,0,0,1,0-.12v-3.31a.5.5,0,0,1,0-.16.3.3,0,0,1,.09-.1l.35-.21a.07.07,0,0,1,.09,0,.12.12,0,0,1,0,.11Z" style="fill:#fafafa"></path><path d="M211.47,113.18c0-.16-.15-.13-.22,0l-.36.87c-.61-.07-1.35.53-1.85,1.58-.64,1.37-.64,3,0,3.61a.93.93,0,0,0,1.18.07,3.26,3.26,0,0,0,1.17-1.42.46.46,0,0,0,0-.46c-.08-.08-.22,0-.3.17-.48,1-1.27,1.48-1.75,1a2.64,2.64,0,0,1,0-2.69c.34-.73.84-1.16,1.27-1.18l-.27.65c-.07.18,0,.34.1.26l1.07-.69a.37.37,0,0,0,.12-.29Z" style="fill:#fafafa"></path><path d="M121.16,374.19a.51.51,0,0,1-.36-.15l-3-2.94a.5.5,0,0,1-.11-.59L120.7,364a.51.51,0,0,1,.68-.25.52.52,0,0,1,.24.68l-2.9,6.15,2.8,2.68a.52.52,0,0,1,0,.73A.54.54,0,0,1,121.16,374.19Z" style="fill:#fafafa"></path><path d="M137.85,364.7a.59.59,0,0,1-.22-.05.52.52,0,0,1-.24-.69l2.9-6.14-2.8-2.69a.51.51,0,0,1,.71-.73l3.06,2.94a.5.5,0,0,1,.11.59l-3.06,6.47A.5.5,0,0,1,137.85,364.7Z" style="fill:#fafafa"></path><path d="M164.12,349.74a.92.92,0,0,1-.49-.13,1.18,1.18,0,0,1-.53-1.06v-5.39a2.61,2.61,0,0,1,1.1-2.13l.88-.51a.41.41,0,0,1,.41.71l-.88.51a1.82,1.82,0,0,0-.69,1.42v5.39c0,.21.06.32.12.35s.18,0,.36-.07l4.67-2.7a2,2,0,0,0,.89-1.54V339.2a.51.51,0,0,0-.12-.4.31.31,0,0,0-.24.06l-1,.56a.42.42,0,0,1-.56-.15.41.41,0,0,1,.15-.56l1-.56a1.07,1.07,0,0,1,1.06-.06,1.22,1.22,0,0,1,.53,1.11v5.39a2.83,2.83,0,0,1-1.3,2.25l-4.66,2.7A1.5,1.5,0,0,1,164.12,349.74Z" style="fill:#fafafa"></path><path d="M166.94,344.22a.42.42,0,0,1-.41-.41v-8.24a.41.41,0,0,1,.41-.41.41.41,0,0,1,.41.41v8.24A.41.41,0,0,1,166.94,344.22Z" style="fill:#fafafa"></path><path d="M164.9,339.64a.46.46,0,0,1-.2-.05.42.42,0,0,1-.16-.56l2.08-3.67a.44.44,0,0,1,.25-.19.4.4,0,0,1,.32.05l2.08,1.26a.41.41,0,0,1,.13.56.4.4,0,0,1-.56.14l-1.72-1-1.87,3.29A.4.4,0,0,1,164.9,339.64Z" style="fill:#fafafa"></path><path d="M182.51,339.37h-.11a.37.37,0,0,1-.25-.35v-9.53a.37.37,0,0,1,.06-.21c1.95-2.86,4-4,6-3.37a.36.36,0,0,1,.26.35v9.53a.37.37,0,0,1-.14.3.35.35,0,0,1-.33.05c-1.68-.49-3.42.55-5.18,3.08A.34.34,0,0,1,182.51,339.37Zm.37-9.78v8.31c1.59-2,3.22-2.84,4.85-2.58v-8.78C186.16,326.21,184.52,327.23,182.88,329.59Z" style="fill:#fafafa"></path><path d="M188.1,336.15l-.11,0a.38.38,0,0,1-.26-.35v-9.53a.31.31,0,0,1,.07-.2c1.95-2.86,4-4,6-3.37a.35.35,0,0,1,.26.35v9.53a.35.35,0,0,1-.15.29.37.37,0,0,1-.32.06c-1.68-.5-3.43.54-5.18,3.08A.37.37,0,0,1,188.1,336.15Zm.37-9.78v8.31c1.59-2,3.21-2.85,4.85-2.58v-8.79Q190.94,322.82,188.47,326.37Z" style="fill:#fafafa"></path><path d="M204.55,324.79a1,1,0,0,1-.51-.14,1.22,1.22,0,0,1-.55-1.12V317.3a3.13,3.13,0,0,1,1.45-2.5l5.39-3.12a1.12,1.12,0,0,1,1.8,1v.93a.35.35,0,0,1-.35.35.35.35,0,0,1-.35-.35v-.93c0-.26-.07-.45-.2-.52a.59.59,0,0,0-.55.09l-5.39,3.11a2.46,2.46,0,0,0-1.1,1.9v6.23a.44.44,0,0,0,.75.43l.8-.47a.36.36,0,0,1,.48.13.35.35,0,0,1-.13.48l-.8.46A1.51,1.51,0,0,1,204.55,324.79Z" style="fill:#fafafa"></path><path d="M206.62,326a1,1,0,0,1-.51-.13,1.21,1.21,0,0,1-.54-1.12V318.5A3.12,3.12,0,0,1,207,316l5.4-3.12a1.22,1.22,0,0,1,1.24-.09,1.21,1.21,0,0,1,.55,1.13v6.23a3.15,3.15,0,0,1-1.44,2.5l-5.4,3.11A1.46,1.46,0,0,1,206.62,326Zm6.53-12.62a.75.75,0,0,0-.39.13l-5.4,3.11h0a2.46,2.46,0,0,0-1.09,1.9v6.23a.58.58,0,0,0,.19.51.61.61,0,0,0,.55-.08l5.4-3.12a2.46,2.46,0,0,0,1.09-1.89v-6.23c0-.26-.07-.45-.2-.52A.24.24,0,0,0,213.15,313.36Zm-6,2.94Z" style="fill:#fafafa"></path><path d="M192.82,209.72a19.83,19.83,0,0,0-6.15-8.85,14.48,14.48,0,0,0-9.12-3.1,22.65,22.65,0,0,0-11.18,3.39,44.47,44.47,0,0,0-11.17,9.52,69.25,69.25,0,0,0-9.13,13.63,78.93,78.93,0,0,0-6.15,15.95,65.26,65.26,0,0,0-2.25,16.49,39.43,39.43,0,0,0,2.25,13.89,20,20,0,0,0,6.15,8.85,14.37,14.37,0,0,0,9.13,3.1,22.59,22.59,0,0,0,11.17-3.39,44.28,44.28,0,0,0,11.18-9.51,70,70,0,0,0,9.12-13.63,78.07,78.07,0,0,0,6.15-16,64.78,64.78,0,0,0,2.26-16.49A39.2,39.2,0,0,0,192.82,209.72Zm-.63,15.56a55.11,55.11,0,0,1-.74,8.84l-8.63,5A69.25,69.25,0,0,0,183.6,229a51.15,51.15,0,0,0-.69-8.55l8.19-4.72A38.79,38.79,0,0,1,192.19,225.28Zm-7.56-20.46a17.85,17.85,0,0,1,5.41,7.62l-7.9,4.56c-.29-1.07-.62-2.09-1-3.08a24.59,24.59,0,0,0-5.37-8.58,20.05,20.05,0,0,0-3.41-2.77A13.67,13.67,0,0,1,184.63,204.82Zm-16.81.43a17.27,17.27,0,0,1,5.76,3.91,22.47,22.47,0,0,1,4.91,7.84c.21.57.42,1.16.6,1.76l-11.27,6.51Zm12.12,16.94a44.5,44.5,0,0,1,.77,8.51,62.84,62.84,0,0,1-.86,10.11l-12,6.95V229.2ZM152.42,247a60.69,60.69,0,0,1,.76-9.38l11.75-6.79v18.57l-11.66,6.72A47,47,0,0,1,152.42,247Zm12.51-39.73v19.64L154,233.23c.18-.79.38-1.58.58-2.37a83.59,83.59,0,0,1,4.87-13.45A87.17,87.17,0,0,1,164.93,207.3Zm-16.81,18.6A57,57,0,0,1,160.89,209c-1.1,2-2.32,4.29-3.54,6.94A90.9,90.9,0,0,0,152,230.76q-.55,2.13-1,4.23l-8.28,4.78A70.25,70.25,0,0,1,148.12,225.9Zm-6.47,18.41,8.57-4.95a65.16,65.16,0,0,0-.69,9.34,51.45,51.45,0,0,0,.78,9.17l-9,5.2a40.62,40.62,0,0,1-.74-8A56.08,56.08,0,0,1,141.65,244.31Zm6.47,31.23a18.54,18.54,0,0,1-5.93-9.06l8.9-5.14c.26,1,.55,1.91.88,2.82a30.05,30.05,0,0,0,5.34,9.39,24.37,24.37,0,0,0,4.19,3.92C156.46,279.08,151.82,278.44,148.12,275.54Zm11.47-5.71a27.68,27.68,0,0,1-4.94-8.69c-.18-.51-.36-1-.52-1.55l10.8-6.24v21.08A22.09,22.09,0,0,1,159.59,269.83Zm8.23,3.37V251.69L179,245.23c-.15.69-.32,1.38-.49,2.07a97.74,97.74,0,0,1-4.9,14.34A111.34,111.34,0,0,1,167.82,273.2Zm16.81-18.74a56.92,56.92,0,0,1-12.91,17c1.24-2.34,2.67-5.24,4.1-8.57a104.27,104.27,0,0,0,5.33-15.56c.33-1.29.63-2.57.89-3.83l8.52-4.92A70.44,70.44,0,0,1,184.63,254.46Z" style="fill:#4259ED"></path></g><g id="freepik--Browsers--inject-68"><g id="freepik--Icon--inject-68"><path d="M287.63,43.42a6.57,6.57,0,0,0-3-5.15l-2.43-1.4a6.57,6.57,0,0,0-6,0L240.67,57.49a6.6,6.6,0,0,0-3,5.15v41.19a6.57,6.57,0,0,0,3,5.15l2.42,1.4a6.57,6.57,0,0,0,5.95,0l35.62-20.62a6.56,6.56,0,0,0,3-5.15Z" style="fill:#4259ED"></path><path d="M237.69,103.83a6.6,6.6,0,0,0,3,5.16l2.42,1.39a6.61,6.61,0,0,0,5.44.24c-1.4.53-2.46-.26-2.46-2V67.48a6.11,6.11,0,0,1,.87-2.94l-8.37-4.83a6.06,6.06,0,0,0-.88,2.93Z" style="opacity:0.2"></path><path d="M287.53,42.58c-.34-1.27-1.49-1.67-2.87-.88L249,62.33a5.85,5.85,0,0,0-2.1,2.22l-8.37-4.83a6,6,0,0,1,2.1-2.22l35.61-20.63a6.63,6.63,0,0,1,6,0l2.43,1.4A6.57,6.57,0,0,1,287.53,42.58Z" style="fill:#fff;opacity:0.5"></path><path d="M261.81,96.49c-5.81,0-9.71-5.29-9.71-13.16,0-10.13,6-21.53,13.68-26a12.12,12.12,0,0,1,6.07-1.8c5.8,0,9.71,5.29,9.71,13.16,0,10.13-6,21.53-13.69,26A12.15,12.15,0,0,1,261.81,96.49Z" style="fill:#fafafa"></path><path d="M271.85,57a10.79,10.79,0,0,0-5.37,1.61c-7.16,4.14-13,15.24-13,24.75,0,7.15,3.26,11.77,8.32,11.77a10.84,10.84,0,0,0,5.36-1.6c7.17-4.14,13-15.24,13-24.76C280.17,61.58,276.9,57,271.85,57Z" style="fill:#4259ED"></path><path d="M262,93.56c-4.27,0-7.27-4-7.27-10.57,0-8.88,5.41-19.2,12.07-23a9.69,9.69,0,0,1,4.79-1.45c4.28,0,7.27,3.95,7.27,10.57,0,8.88-5.4,19.21-12.06,23A9.65,9.65,0,0,1,262,93.56Z" style="fill:#fafafa"></path><polygon points="265.49 75.03 266.83 76.03 268.17 77.03 274.66 60.97 265.49 75.03" style="fill:#4259ED"></polygon><polygon points="259 91.09 268.17 77.03 266.83 76.03 265.49 75.03 259 91.09 259 91.09 259 91.09 259 91.09 259 91.09" style="fill:#e0e0e0"></polygon></g><g id="freepik--icon--inject-68"><path d="M287.63,117.91a6.59,6.59,0,0,0-3-5.15l-2.43-1.4a6.57,6.57,0,0,0-6,0L240.67,132a6.6,6.6,0,0,0-3,5.15v41.19a6.6,6.6,0,0,0,3,5.16l2.42,1.39a6.57,6.57,0,0,0,5.95,0l35.62-20.62a6.56,6.56,0,0,0,3-5.15Z" style="fill:#4259ED"></path><path d="M237.69,178.32a6.6,6.6,0,0,0,3,5.16l2.42,1.39a6.61,6.61,0,0,0,5.44.24c-1.4.53-2.46-.26-2.46-2V142a6.11,6.11,0,0,1,.87-2.94l-8.37-4.83a6.06,6.06,0,0,0-.88,2.93Z" style="opacity:0.2"></path><path d="M287.53,117.07c-.34-1.27-1.49-1.67-2.87-.88L249,136.82a5.85,5.85,0,0,0-2.1,2.22l-8.37-4.83a6,6,0,0,1,2.1-2.22l35.61-20.63a6.63,6.63,0,0,1,6,0l2.43,1.4A6.57,6.57,0,0,1,287.53,117.07Z" style="fill:#fff;opacity:0.5"></path><path d="M266.88,167.09c.75-2.31,3.45-10.67,4.68-13.67a17.39,17.39,0,0,0,1.6-6.4c0-2.38-.77-4.18-2.13-5l7.38-4.26a16.48,16.48,0,0,1,.83,5.48C279.24,152.37,273.71,163,266.88,167.09Z" style="fill:#fff"></path><path d="M266.88,167.09c.75-2.31,3.45-10.67,4.68-13.67a17.39,17.39,0,0,0,1.6-6.4c0-2.38-.77-4.18-2.13-5l7.38-4.26a16.48,16.48,0,0,1,.83,5.48C279.24,152.37,273.71,163,266.88,167.09Z" style="fill:#4259ED"></path><path d="M279.24,143.21c0,9.16-5.53,19.82-12.36,23.88.75-2.31,3.45-10.67,4.68-13.67a17.39,17.39,0,0,0,1.6-6.4c0-2.38-.77-4.18-2.13-5l7.38-4.26A16.48,16.48,0,0,1,279.24,143.21Z" style="fill:#fff"></path><path d="M266.67,142.24c-2.79,1.64-5.21,5.54-5.94,9.46l-3.44-6.16a31,31,0,0,1,4.32-7,20.33,20.33,0,0,1,5.35-4.69,8.71,8.71,0,0,1,6.62-1.25,6.71,6.71,0,0,1,4,3.22Z" style="fill:#fff"></path><path d="M257.29,145.54a31,31,0,0,1,4.32-7,20.33,20.33,0,0,1,5.35-4.69,8.71,8.71,0,0,1,6.62-1.25,6.71,6.71,0,0,1,4,3.22l-10.87,6.42c-2.79,1.64-5.21,5.54-5.94,9.46Z" style="fill:#4259ED"></path><path d="M277.54,135.82l-10.87,6.42c-2.79,1.64-5.21,5.54-5.94,9.46l-3.44-6.16a31,31,0,0,1,4.32-7,20.33,20.33,0,0,1,5.35-4.69,8.71,8.71,0,0,1,6.62-1.25A6.71,6.71,0,0,1,277.54,135.82Z" style="fill:#fff"></path><path d="M264.75,168.11a6.89,6.89,0,0,1-6.52-.54c-2.46-1.7-3.82-5.15-3.82-9.73a28.9,28.9,0,0,1,1.78-9.57c.91,1.5,3.83,6.29,4.69,8.32a4.65,4.65,0,0,0,2.66,2.79,4.06,4.06,0,0,0,3.42-.54,8.43,8.43,0,0,0,1.33-1Z" style="fill:#fff"></path><path d="M258.23,167.57c-2.46-1.7-3.82-5.15-3.82-9.73a28.9,28.9,0,0,1,1.78-9.57c.91,1.5,3.83,6.29,4.69,8.32a4.65,4.65,0,0,0,2.66,2.79,4.06,4.06,0,0,0,3.42-.54,8.43,8.43,0,0,0,1.33-1l-3.54,10.24A6.89,6.89,0,0,1,258.23,167.57Z" style="fill:#4259ED"></path><path d="M268.29,157.87l-3.54,10.24a6.89,6.89,0,0,1-6.52-.54c-2.46-1.7-3.82-5.15-3.82-9.73a28.9,28.9,0,0,1,1.78-9.57c.91,1.5,3.83,6.29,4.69,8.32a4.65,4.65,0,0,0,2.66,2.79,4.06,4.06,0,0,0,3.42-.54A8.43,8.43,0,0,0,268.29,157.87Z" style="fill:#fff"></path><path d="M270.94,148.16c0,3-1.84,6.55-4.11,7.86s-4.12-.08-4.12-3.11,1.84-6.55,4.12-7.87S270.94,145.12,270.94,148.16Z" style="fill:#fff"></path></g><g id="freepik--icon--inject-68"><path d="M287.63,192.4a6.59,6.59,0,0,0-3-5.15l-2.43-1.4a6.57,6.57,0,0,0-6,0l-35.61,20.62a6.6,6.6,0,0,0-3,5.15v41.19a6.6,6.6,0,0,0,3,5.16l2.42,1.39a6.57,6.57,0,0,0,5.95,0l35.62-20.62a6.56,6.56,0,0,0,3-5.15Z" style="fill:#4259ED"></path><path d="M237.69,252.81a6.6,6.6,0,0,0,3,5.16l2.42,1.39a6.61,6.61,0,0,0,5.44.24c-1.4.53-2.46-.26-2.46-2V216.46a6.11,6.11,0,0,1,.87-2.94l-8.37-4.83a6.06,6.06,0,0,0-.88,2.93Z" style="opacity:0.2"></path><path d="M287.53,191.56c-.34-1.27-1.49-1.67-2.87-.88L249,211.31a5.85,5.85,0,0,0-2.1,2.22l-8.37-4.83a6,6,0,0,1,2.1-2.22l35.61-20.63a6.63,6.63,0,0,1,6,0l2.43,1.4A6.57,6.57,0,0,1,287.53,191.56Z" style="fill:#fff;opacity:0.5"></path><path d="M254.42,230.82c.44-9.16,5.67-19.2,12.32-23,7.65-4.41,12.5,0,12.5,9.93v4.17l-17.18,9.92c0,2.59,1.4,5.16,5.33,3.95s7.93-6.38,9.28-8.11v7.57a29.6,29.6,0,0,1-8.29,7.35c-5.12,3-11.08,1.5-11.08-7.33a25,25,0,0,1,6.46-16.63,14.36,14.36,0,0,0-1.7,6.5l9.51-5.49c0-3.62-.58-4.61-1.33-5.18s-3.26-1.41-8.41,4.19S255.13,228.56,254.42,230.82Z" style="fill:#fff"></path></g></g><g id="freepik--Character--inject-68"><g id="freepik--character--inject-68"><path d="M352.32,380.13c-.06,2.23-2.15,7.83-2.15,7.83s-1.44,1.74-5,2.18l.71-8.38Z" style="fill:#263238"></path><polygon points="345.14 390.14 338.64 385.87 338.64 379.08 345.55 385.3 345.14 390.14"></polygon><path d="M342.21,369.25l.32-1.39c-1.1.21-4.77,7.74-9.1,12.3-4,4.17-9.91,5.48-12.18,7.14-3,2.23.37,7.09,7.85,7.5,3.71.2,9.62-.61,11.7-2.58s3.75-6.19,5.4-7.61,5-2.66,6.12-4.48c.62-1,.72-3.48.65-5.6-.07-2-.13-4.1-.8-4.07-.05.22-.3,1.16-.3,1.16-.33.92-1.67,1.74-5.48.89C344.67,372.12,341.69,371.12,342.21,369.25Z" style="fill:#455a64"></path><path d="M422.05,344.73c1,1.76,1.78,13.34,1.78,13.34s-3.18,3.66-4.88,4.69l-3.82-11.28Z" style="fill:#263238"></path><polygon points="418.95 362.76 409.93 359.58 407.31 352.06 416.64 355.84 418.95 362.76"></polygon><path d="M415.49,337.67c.65-.59,1.48.66,3.14,2.52A24,24,0,0,1,422,344.5c.94,1.91-1.84,6.12-3.64,8.42s-2.28,4.5-2.67,8c-.47,4.25,0,6.93-5.66,10.12-4.52,2.55-13.08,2.13-14.75.17-2.85-3.36,5.08-6.62,7-12.6,2.64-8.26,3-9.65,3.42-15.58Z" style="fill:#455a64"></path><path d="M346.09,223.58c3.82,2.66,6,6,23.8,4.26L372,279.05s14.18,9.88,18.18,16.32,22.74,38.51,22.74,38.51h0l2.69,3.94c1.67,2.45.82,4.41-1.63,6.07s-5.28,2.45-7.17.39l-2.31-2.52s-45.82-44.45-47.39-47.13-5-9.3-8.13-22.76C345,254.6,345.39,242.46,346.09,223.58Z" style="fill:#ffa8a7"></path><path d="M346.14,254.11A125.44,125.44,0,0,0,349,271.87c3.08,13.46,6.57,20.08,8.13,22.76a49,49,0,0,0,3.76,4.11h0c3.25,3.35,8.25,8.35,13.74,13.77-.27-6.87-1.36-14.6-1.36-14.6,2.57-3.36,6.07-9,7.82-11.89l0,0-.79-.66-.18-.15-.64-.51-.23-.19-.59-.47-.22-.18-.56-.44-.23-.17-.56-.44-.19-.15-.6-.46-.11-.08-.66-.5h0c-.45-.35-.87-.66-1.25-.94l-.05,0-.48-.35-.11-.07-.35-.26-.13-.09-.28-.21-.09-.06-.24-.17-.07-.05-.19-.13,0,0-.13-.09h0l0,0-1.45-35.39Z" style="fill:#f28f8f"></path><path d="M346.09,223.58a161.87,161.87,0,0,0-1.69,24.49c0,5.11.51,14.77.51,14.77a32.61,32.61,0,0,0,24.23,1.9L368.68,232S356.5,229.87,346.09,223.58Z" style="fill:#37474f"></path><path d="M341.74,370.31l.15-1c1.87-9.28,6.45-61,8.09-74.89,1.78-15.05,8.7-51.24,8.7-51.24s-7.57-12.64-12.59-19.56c4.71,6.81,32.39,6.79,35.42-5,1.7,5,9.09,10.71,8,26.24-1.35,19.8-19.25,53-19.25,53,.23,2.69,1.37,14-1.2,24-4,15.8-15.21,43.29-16.5,47.11l-.88,3.24C349.65,374.16,342.69,373,341.74,370.31Z" style="fill:#ffa8a7"></path><path d="M346.09,223.58s6.85,4.18,17.32,2.86a38.36,38.36,0,0,0,18.1-7.81,58.76,58.76,0,0,1,5.05,8.57c1.59,3.08,4,10.85,3.61,16.6-.85,13.2-6.64,26.74-6.64,26.74a11.53,11.53,0,0,1-5.72-7.17s-6.06,5.4-13.92,5.65-11-2.22-11-2.22l3.18-21.93A48.27,48.27,0,0,1,346.09,223.58Z" style="fill:#455a64"></path><path d="M361.57,126c-3.45,0-6.72.29-9.72,1.89-3-1.1-8.39-1.31-12.5,4.47-3.08,4.34-2.28,12.11,1,16.18a8.31,8.31,0,0,1-.75,1.87,9.46,9.46,0,0,1-3.28,3.37c-2.39,1.44-5.44,1.82-7.4,3.82a6.18,6.18,0,0,0-.24,8.1,5.63,5.63,0,0,0-4.58,5c-.17,2.44,1.85,5.23,3.82,5.6-3.07,3-2.31,8.89.54,12.31s6.86,4.25,11.36,2.82c.36,1.44-.77-1.28.54-.62a11.24,11.24,0,0,0,4.28,1,27.91,27.91,0,0,0,20-6.6c2.54-2.17,5.4-3.93,7.79-6.32a34.69,34.69,0,0,0,6.1-8.28,33.55,33.55,0,0,0,4-15.62v-8.1A20.91,20.91,0,0,0,361.57,126Z" style="fill:#4259ED"></path><path d="M361.57,126c-3.45,0-6.72.29-9.72,1.89-3-1.1-8.39-1.31-12.5,4.47-3.08,4.34-2.28,12.11,1,16.18a8.31,8.31,0,0,1-.75,1.87,9.46,9.46,0,0,1-3.28,3.37c-2.39,1.44-5.44,1.82-7.4,3.82a6.18,6.18,0,0,0-.24,8.1,5.63,5.63,0,0,0-4.58,5c-.17,2.44,1.85,5.23,3.82,5.6-3.07,3-2.31,8.89.54,12.31s6.86,4.25,11.36,2.82c.36,1.44-.77-1.28.54-.62a11.24,11.24,0,0,0,4.28,1,27.91,27.91,0,0,0,20-6.6c2.54-2.17,5.4-3.93,7.79-6.32a34.69,34.69,0,0,0,6.1-8.28,33.55,33.55,0,0,0,4-15.62v-8.1A20.91,20.91,0,0,0,361.57,126Z" style="opacity:0.5"></path><path d="M341.58,182.47c-2.75,6.61-6.6,17.5-8.9,24.14l-11.08-13h-9.31S323.45,217.5,330.17,223c4.48,3.67,7.28,1,8.39-1.31h0c0-.07,1.9-3.35,4.35-8.3,3.18-6.42,6.58-13.46,6.58-13.46l7.31-27.46C351,172,345.09,174.08,341.58,182.47Z" style="fill:#ffa8a7"></path><path d="M332.68,206.61a40.4,40.4,0,0,1,3.41,4.65s-1.33-4.45-3-6Z" style="fill:#f28f8f"></path><path d="M371.12,172.46l7.58.27a21.55,21.55,0,0,1,3.24,1.06c3.38,1.75,3.77,5.06,3.94,9,.18,4.32-.2,8-4.17,14.86l-3.65,8.5s.08,2.76.2,4.76c0,.42,3.22,7.39,3.25,7.71.47,6.43-23.88,16-35.87,6.17,0-.25.51-9.73.5-10-.24-5.19-.48-10.1-.48-10.1-6.52-6.4-5.16-13.29-2.87-17.87,4.58-9.18,10.39-14.56,14.43-14.36Z" style="fill:#4259ED"></path><path d="M374.36,210.51c.41,4.15,3.37,10.16-.27,15.23,4.53-2.08,7.59-4.8,7.42-7.11,0-.32-3.23-7.29-3.25-7.71-.12-2-.2-4.76-.2-4.76l3.65-8.5c3.89-6.73,4.33-10.38,4.18-14.58L380,189.5C375.7,197.92,373.77,204.39,374.36,210.51Z" style="opacity:0.1"></path><path d="M404.46,210.32c-9.41-24.09-13.24-34.07-20.1-36.91-2.64-1.09-7.1-.73-7.1-.73-1.68,3.09-3.27,13.37,3.79,20.24,0,0,9.16,13.76,12.13,20.62-.74,6.63-1.33,15.51-3.46,20.11a3.89,3.89,0,0,1-2.22,2c-2.65,1-3.3,2.4-5.38,3.85-1.62,1.13-2.9,1.24-2.77,1.72a2.66,2.66,0,0,0,2.95,1.59,11.74,11.74,0,0,0,3.17-.93,20.46,20.46,0,0,1-4.26,4.68c-3.93,3.26-4.38,5.64,2.59,7,4.37.87,8.17-1,12.54-9.24a67.48,67.48,0,0,0,4.29-9.42A89.62,89.62,0,0,0,404.76,216C405,213.2,405.07,211.87,404.46,210.32Z" style="fill:#ffa8a7"></path><path d="M378.56,148.05c-2.12-2.09-5.52-1.47-7,1.5,0,0-2.92-.1-9.89-2.51-5.72-2-12.34-6.38-13.43-11.69-2.11,3.3-3.49,10.78-2.91,19.41.72,10.68,4.44,12.38,6.23,13s5.17.71,8.4,0l.41,5.36S342.55,187.5,357,187.18c11.62-.27,16.61-14.26,16.61-14.26V158.36a4.69,4.69,0,0,0,5.21-1.25A7.14,7.14,0,0,0,378.56,148.05Z" style="fill:#ffa8a7"></path><path d="M349.9,144.93l-3.42,1.64a1.82,1.82,0,0,1,.82-2.52A2,2,0,0,1,349.9,144.93Z" style="fill:#263238"></path><path d="M358.35,150.62a1.56,1.56,0,1,0,1.68-1.5A1.58,1.58,0,0,0,358.35,150.62Z" style="fill:#263238"></path><path d="M347.13,150.24a1.46,1.46,0,1,0,1.57-1.4A1.49,1.49,0,0,0,347.13,150.24Z" style="fill:#263238"></path><polygon points="354.36 148.83 354.49 157.69 349.22 156.71 354.36 148.83" style="fill:#f28f8f"></polygon><path d="M359.13,159.76l-3.8,1.11a1.94,1.94,0,0,0,2.42,1.42A2.08,2.08,0,0,0,359.13,159.76Z" style="fill:#f28f8f"></path><path d="M360,167.75c3.1-.59,9.42-2.84,10.27-5.44a6.51,6.51,0,0,1-2.06,3.38c-1.82,1.77-8.06,4-8.06,4Z" style="fill:#f28f8f"></path><path d="M309.49,176.23h0l.89-.92h0a1.1,1.1,0,0,1,1-.21l10.73,1.82a3.87,3.87,0,0,1,2.56,2l9.64,21a1,1,0,0,1,0,1.13h0l-.91.95h0a1.12,1.12,0,0,1-1,.22l-10.73-1.83a3.8,3.8,0,0,1-2.56-2l-9.65-21A1,1,0,0,1,309.49,176.23Z" style="fill:#455a64"></path><path d="M333.39,200.79l-9.65-21a3.85,3.85,0,0,0-2.56-2L310.45,176c-1-.17-1.46.44-1,1.35l9.65,21a3.8,3.8,0,0,0,2.56,2l10.73,1.83C333.34,202.31,333.81,201.71,333.39,200.79Z" style="fill:#263238"></path><path d="M322.38,178.35a3.93,3.93,0,0,1,1.37,1.48l9.64,21a1,1,0,0,1,0,1.1l.86-.9h0a1,1,0,0,0,0-1.12l-9.64-21a3.65,3.65,0,0,0-1.27-1.4Z" style="fill:#37474f"></path><path d="M314.57,197c-4.44-5.1-4.32-11.48-2.28-13.32l1.36,2.95s6.79,1.51,10.05,1.26,5.94-1,6.83-.4c1.9,1.34,2.44,7-3,9.1C322.93,198.31,314.57,197,314.57,197Z" style="fill:#ffa8a7"></path></g></g></svg>