<?xml version="1.0" encoding="UTF-8" standalone="no"?>
<svg xmlns="http://www.w3.org/2000/svg" xmlns:xlink="http://www.w3.org/1999/xlink" id="Layer_1" viewBox="0 0 3424.7 3432.3" width="3424.7" height="3432.3"><style>.st0{fill:#e0e0e0}.st1{clip-path:url(#SVGID_2_)}.st2{clip-path:url(#SVGID_4_)}.st3{clip-path:url(#SVGID_6_);fill:#204bff}.st4{clip-path:url(#SVGID_8_)}.st5{clip-path:url(#SVGID_12_)}.st6{clip-path:url(#SVGID_13_)}.st7{clip-path:url(#SVGID_14_)}.st8{clip-path:url(#SVGID_16_)}.st9{clip-path:url(#SVGID_19_)}.st10{clip-path:url(#SVGID_20_)}.st11{clip-path:url(#SVGID_22_)}.st12{clip-path:url(#SVGID_24_)}.st13{clip-path:url(#SVGID_28_)}.st14{clip-path:url(#SVGID_29_)}.st15{clip-path:url(#SVGID_30_)}.st16{clip-path:url(#SVGID_32_)}.st17{clip-path:url(#SVGID_35_)}.st18{clip-path:url(#SVGID_36_)}.st19{clip-path:url(#SVGID_41_)}.st20{clip-path:url(#SVGID_42_)}.st21{clip-path:url(#SVGID_43_)}</style><path class="st0" d="M1716.4 34c548 0 612.8 2.2 829.3 11.9 200.1 9.1 308.6 42.6 381.1 70.6 95.8 37.1 164.1 81.7 236 153.5 71.8 71.8 116.2 140.2 153.5 236 28.2 72.3 61.5 181 70.6 381.1 9.9 216.5 11.9 281.3 11.9 829.3 0 547.8-2 612.8-11.9 829.3-9.1 200.1-42.6 308.8-70.6 381.1-37.3 95.8-81.7 164.1-153.5 235.9-71.8 71.8-140.2 116.2-236 153.5-72.3 28.2-181 61.5-381.1 70.6-216.3 9.9-281.3 11.9-829.3 11.9-547.8 0-612.8-1.9-829.1-11.9-200.1-9.1-308.8-42.4-381.1-70.6-95.8-37.3-164.1-81.7-236-153.5-71.8-71.8-116.4-140.1-153.5-235.9-28.2-72.3-61.5-181-70.6-381.1-10-216.3-12-281.2-12-829.2s2.2-612.8 11.9-829.3c9.1-200.1 42.6-308.6 70.6-381.1C153.9 410.3 198.4 342 270.1 270c71.8-71.8 140.1-116.4 236-153.5 72.3-28.2 181-61.5 381.1-70.6C1103.6 36 1168.6 34 1716.4 34m0-25c-550.5 0-615.2 2.1-830.3 11.9-204.4 9.3-315.3 43.5-389 72.3-99 38.3-169.9 84.4-244.6 159.1C178 327.1 131.9 397.9 93.3 497c-28.8 74.6-63 186.1-72.3 389-9.8 219.7-11.9 285.2-11.9 830.4 0 551 2.1 615.7 12 830.4 9.3 204.3 43.5 315.2 72.3 389 38.3 99 84.4 169.9 159.1 244.5 74.5 74.4 145.3 120.5 244.6 159.1 73.7 28.8 184.6 63 389 72.3 212.9 9.8 277.2 11.9 830.2 11.9 550.7 0 615.4-2.1 830.4-11.9 204.4-9.3 315.3-43.5 389-72.3 99.4-38.7 170.3-84.8 244.6-159.1 74.3-74.3 120.4-145.2 159.1-244.5 28.8-74.4 63-185.8 72.3-389 9.8-215.2 11.9-280 11.9-830.4s-2.1-615.2-11.9-830.4c-9.3-204.4-43.5-315.3-72.3-389-38.7-99.4-84.8-170.3-159.1-244.6-74.8-74.7-145.7-120.8-244.6-159.1-74.6-28.8-186.2-63-389-72.3-219.5-10-285-12-830.3-12z" style="fill: #e0e0e0;"/><defs><path id="SVGID_1_" d="M1716.5 1884.3c-10.2 9.8-20.3 19.3-30 28.9-47.9 47.3-95.3 95-143.6 141.9-50.4 48.9-99.9 98.8-153.9 144-70.5 59-148.3 105.6-235.9 134.8-34 11.3-68.9 18.9-104.4 24.5-47.2 7.4-94.7 7.9-142 5.1-62.4-3.7-123-17.8-181.5-40.7-83.4-32.7-156.3-80.9-219.5-144-66.2-66.1-116-143.1-148.9-230.8-13.7-36.4-23.4-73.8-30.7-112-9.7-50.6-11.6-101.7-9-152.8 1.5-29.3 7.2-58.4 12.1-87.5 6.2-37.3 17.9-73.1 31.7-108.2 28.6-72.8 69.5-137.9 121.9-195.9 54.7-60.5 118.6-109.2 191.6-145.7 49.6-24.8 101.8-42.7 156.2-53.1 47.8-9.1 96.1-13.4 144.8-10.4 20.9 1.3 41.9 1.3 62.6 3.8 28.9 3.4 57.4 9.3 85.4 17.2 115.8 32.6 214.9 94.4 301.7 176.1 73.7 69.4 145.9 140.6 218.6 211.1 22 21.3 43.5 43.2 65.3 64.7 2.1 2.1 4.3 4 7.4 6.7 2.9-2.6 5.7-4.8 8.2-7.3 47.8-47.3 95.2-95.2 143.5-141.9 54.3-52.4 108.4-105.2 164.6-155.5 72-64.4 153.8-113.2 245.6-144.3 34.7-11.7 70.2-19.9 106.5-25.1 37.5-5.4 75.1-6.7 112.8-6.1 42.2.7 83.9 6.2 125.2 15.7 91 21 172.9 60.8 246 118.5 92.4 72.8 160.5 164 203.9 273.4 14.6 36.9 25.7 74.9 32.9 113.8 6.4 34.1 10.9 68.5 10.7 103.4-.2 30.6.8 61.3-3.5 91.7-5.3 38.1-12.5 75.8-23.9 112.6-27.1 87.2-70.2 165.4-130.2 234.2-72.1 82.7-159.3 143.9-262.3 182.1-33.3 12.4-67.6 20.9-102.5 27.7-54 10.6-108.5 11.9-162.9 8.8-77.4-4.4-151.4-24.4-221.6-57.8-75.9-36.1-144.1-83.6-204.7-141.6-77.5-74.2-154.1-149.2-231.1-224-16.9-16.4-33.5-33.1-50.3-49.6-1.6-2.1-3.9-3.9-6.8-6.4zm-161.8-161.1c-2.6-2.8-4.5-5.1-6.6-7.1-86.9-84.9-173.6-169.9-260.8-254.5-39.3-38.1-81.8-72.2-129.7-99.1-37.7-21.2-77.5-36.9-119.9-45.3-40.9-8.1-82.2-9.3-123.8-5.3-41.2 4-80.8 13.9-118.9 30-136.1 57.5-234.2 190.9-248.2 339.8-5.1 54.4-.8 107.6 14.8 159.6 29 96.7 86 173.3 169.9 229.3 53 35.4 111.4 56.6 175.1 63.4 37.1 4 74 3.8 110.7-1.5 57.3-8.3 110-29.3 159.2-59.8 42.2-26.2 79.9-57.9 115.4-92.2 69.4-67 138.4-134.4 207.4-201.7 18.4-18.1 36.4-36.5 55.4-55.6zm323.8-.3c3.3 3.5 5.3 5.7 7.4 7.8 78.5 76.9 156.7 154.1 235.8 230.5 27.6 26.7 56.2 52.8 86.2 76.7 66.1 52.6 139.9 88.4 225.3 96.5 56.8 5.4 112.7.9 167.3-16 75.9-23.6 139-66.6 190.1-127.2 63.8-75.7 95.8-163.7 98.3-262.3 1.1-44.7-5.8-88.6-19.6-131.3-32.6-100.5-94.3-178.2-184.8-232.5-77-46.2-160.7-61.7-249.7-53.2-54.8 5.2-105.8 21.9-153.9 47.9-51.1 27.6-95.7 63.9-137.1 104-77.3 74.9-154.3 150.2-231.4 225.3-11.2 10.9-22.2 22-33.9 33.8z"/></defs><clipPath id="SVGID_2_"><use xlink:href="#SVGID_1_" overflow="visible"/></clipPath><g class="st1" style="clip-path: url(#SVGID_2_);"><defs><path id="SVGID_3_" d="M-5486.5-5486.5H8926.3V8919.3H-5486.5z"/></defs><clipPath id="SVGID_4_"><use xlink:href="#SVGID_3_" overflow="visible"/></clipPath><g class="st2" style="clip-path: url(#SVGID_4_);"><defs><path id="SVGID_5_" d="M-5486.5-5486.5H8926.3V8919.3H-5486.5z"/></defs><clipPath id="SVGID_6_"><use xlink:href="#SVGID_5_" overflow="visible"/></clipPath><path class="st3" d="M-5486.5-5486.5H8919.3V8919.3H-5486.5z" style="clip-path: url(#SVGID_6_); fill: #204bff;"/><g><defs><path id="SVGID_7_" d="M-5486.5-5486.5H8926.3V8919.3H-5486.5z"/></defs><clipPath id="SVGID_8_"><use xlink:href="#SVGID_7_" overflow="visible"/></clipPath><g class="st4" style="clip-path: url(#SVGID_8_);"><defs><path id="SVGID_9_" d="M-3313-3123.1H8926.3V7653.1H-3313z"/></defs><defs><path id="SVGID_10_" d="M-3313-3123.1H8926.3V7653.1H-3313z"/></defs><defs><path id="SVGID_11_" d="M-5486.5-5486.5H8926.3V8919.3H-5486.5z"/></defs><clipPath id="SVGID_12_"><use xlink:href="#SVGID_9_" overflow="visible"/></clipPath><clipPath id="SVGID_13_" class="st5" style="clip-path: url(#SVGID_12_);"><use xlink:href="#SVGID_10_" overflow="visible"/></clipPath><clipPath id="SVGID_14_" class="st6" style="clip-path: url(#SVGID_13_);"><use xlink:href="#SVGID_11_" overflow="visible"/></clipPath><g class="st7" style="clip-path: url(#SVGID_14_);"><defs><path id="SVGID_15_" d="M-3313-3123H8926.3V7653.2H-3313z"/></defs><clipPath id="SVGID_16_"><use xlink:href="#SVGID_15_" overflow="visible"/></clipPath><g><defs><path id="SVGID_17_" d="M-3313-3123.1H8926.3V7653.1H-3313z"/></defs><defs><path id="SVGID_18_" d="M-5486.5-5486.5H8926.3V8919.3H-5486.5z"/></defs><clipPath id="SVGID_19_"><use xlink:href="#SVGID_17_" overflow="visible"/></clipPath><clipPath id="SVGID_20_" class="st9" style="clip-path: url(#SVGID_19_);"><use xlink:href="#SVGID_18_" overflow="visible"/></clipPath><g class="st10" style="clip-path: url(#SVGID_20_);"><defs><path id="SVGID_21_" d="M-4551-2532.2H7238.1V8834.9H-4551z"/></defs><clipPath id="SVGID_22_"><use xlink:href="#SVGID_21_" overflow="visible"/></clipPath><g><defs><path id="SVGID_23_" d="M-5486.5-5486.5H8926.3V8919.3H-5486.5z"/></defs><clipPath id="SVGID_24_"><use xlink:href="#SVGID_23_" overflow="visible"/></clipPath><g class="st12" style="clip-path: url(#SVGID_24_);"><defs><path id="SVGID_25_" d="M-3116-365.7h8047v8047h-8047z"/></defs><defs><path id="SVGID_26_" d="M-3116-365.7h8047v8047h-8047z"/></defs><defs><path id="SVGID_27_" d="M-5486.5-5486.5H8926.3V8919.3H-5486.5z"/></defs><clipPath id="SVGID_28_"><use xlink:href="#SVGID_25_" overflow="visible"/></clipPath><clipPath id="SVGID_29_" class="st13" style="clip-path: url(#SVGID_28_);"><use xlink:href="#SVGID_26_" overflow="visible"/></clipPath><clipPath id="SVGID_30_" class="st14" style="clip-path: url(#SVGID_29_);"><use xlink:href="#SVGID_27_" overflow="visible"/></clipPath><g class="st15" style="clip-path: url(#SVGID_30_);"><defs><path id="SVGID_31_" d="M-3116-365.7h8047v8047h-8047z"/></defs><clipPath id="SVGID_32_"><use xlink:href="#SVGID_31_" overflow="visible"/></clipPath><g><defs><path id="SVGID_33_" d="M-3116-365.7h8047v8047h-8047z"/></defs><defs><path id="SVGID_34_" d="M-5486.5-5486.5H8926.3V8919.3H-5486.5z"/></defs><clipPath id="SVGID_35_"><use xlink:href="#SVGID_33_" overflow="visible"/></clipPath><clipPath id="SVGID_36_" class="st17" style="clip-path: url(#SVGID_35_);"><use xlink:href="#SVGID_34_" overflow="visible"/></clipPath><g class="st18" style="clip-path: url(#SVGID_36_);"><defs><path id="SVGID_37_" d="M-1990.6 956.7h6499.5v6499.5h-6499.5z"/></defs><defs><path id="SVGID_38_" d="M-5486.5-5486.5H8926.3V8919.3H-5486.5z"/></defs><defs><path id="SVGID_39_" d="M-1990.6 956.7h6499.5v6499.5h-6499.5z"/></defs><defs><path id="SVGID_40_" d="M-5486.5-5486.5H8926.3V8919.3H-5486.5z"/></defs><clipPath id="SVGID_41_"><use xlink:href="#SVGID_37_" overflow="visible"/></clipPath><clipPath id="SVGID_42_" class="st19" style="clip-path: url(#SVGID_41_);"><use xlink:href="#SVGID_38_" overflow="visible"/></clipPath><clipPath id="SVGID_43_" class="st20" style="clip-path: url(#SVGID_42_);"><use xlink:href="#SVGID_39_" overflow="visible"/></clipPath><clipPath id="SVGID_44_" class="st21" style="clip-path: url(#SVGID_43_);"><use xlink:href="#SVGID_40_" overflow="visible"/></clipPath></g></g></g></g></g></g></g></g></g></g></g></g>
	<metadata>
		<rdf:RDF xmlns:rdf="http://www.w3.org/1999/02/22-rdf-syntax-ns#" xmlns:rdfs="http://www.w3.org/2000/01/rdf-schema#" xmlns:dc="http://purl.org/dc/elements/1.1/">
			<rdf:Description about="https://iconscout.com/legal#licenses" dc:title="boomerang-14-company-brand-logo" dc:description="boomerang-14-company-brand-logo" dc:publisher="Iconscout" dc:date="2017-07-12" dc:format="image/svg+xml" dc:language="en">
				<dc:creator>
					<rdf:Bag>
						<rdf:li>Icon Mafia</rdf:li>
					</rdf:Bag>
				</dc:creator>
			</rdf:Description>
		</rdf:RDF>
    </metadata></svg>
