<?xml version="1.0" encoding="UTF-8" standalone="no"?>
<svg xmlns="http://www.w3.org/2000/svg" width="1760" height="2500" viewBox="0 0 704.064 1000"><path d="M351.455 294.781c-75.701 0-145.648 24.077-203.103 64.682V74.048C148.351 33.156 115.206 0 74.304 0S.256 33.156.256 74.048v545.421c-.727 9.233.089 62.72 2.534 77.904C27.12 868.388 173.74 1000 351.455 1000c194.75 0 352.609-157.858 352.609-352.609-.001-194.751-157.859-352.61-352.609-352.61zm0 555.713c-112.174 0-203.103-90.93-203.103-203.104s90.929-203.103 203.103-203.103 203.104 90.929 203.104 203.103c-.001 112.174-90.93 203.104-203.104 203.104z"/>
	<metadata>
		<rdf:RDF xmlns:rdf="http://www.w3.org/1999/02/22-rdf-syntax-ns#" xmlns:rdfs="http://www.w3.org/2000/01/rdf-schema#" xmlns:dc="http://purl.org/dc/elements/1.1/">
			<rdf:Description about="https://iconscout.com/legal#licenses" dc:title="box-icon-company-brand-logo" dc:description="box-icon-company-brand-logo" dc:publisher="Iconscout" dc:date="2017-07-12" dc:format="image/svg+xml" dc:language="en">
				<dc:creator>
					<rdf:Bag>
						<rdf:li>Icon Mafia</rdf:li>
					</rdf:Bag>
				</dc:creator>
			</rdf:Description>
		</rdf:RDF>
    </metadata></svg>
