<?xml version="1.0" encoding="UTF-8" standalone="no"?>
<svg xmlns="http://www.w3.org/2000/svg" xmlns:xlink="http://www.w3.org/1999/xlink" id="Layer_1" viewBox="0 0 3424.7 3432.3" width="3424.7" height="3432.3"><style>.st0{fill:#e0e0e0}.st1{clip-path:url(#SVGID_2_)}.st2{clip-path:url(#SVGID_4_)}.st3{clip-path:url(#SVGID_6_);fill:#204bff}.st4{clip-path:url(#SVGID_8_)}.st5{clip-path:url(#SVGID_12_)}.st6{clip-path:url(#SVGID_13_)}.st7{clip-path:url(#SVGID_14_)}.st8{clip-path:url(#SVGID_16_)}.st9{clip-path:url(#SVGID_19_)}.st10{clip-path:url(#SVGID_20_)}.st11{clip-path:url(#SVGID_22_)}.st12{clip-path:url(#SVGID_24_)}.st13{clip-path:url(#SVGID_28_)}.st14{clip-path:url(#SVGID_29_)}.st15{clip-path:url(#SVGID_30_)}.st16{clip-path:url(#SVGID_32_)}.st17{clip-path:url(#SVGID_35_)}.st18{clip-path:url(#SVGID_36_)}.st19{clip-path:url(#SVGID_41_)}.st20{clip-path:url(#SVGID_42_)}.st21{clip-path:url(#SVGID_43_)}</style><path class="st0" d="M1716.4 34c548 0 612.8 2.2 829.3 11.9 200.1 9.1 308.6 42.6 381.1 70.6 95.8 37.1 164.1 81.7 236 153.5 71.8 71.8 116.2 140.2 153.5 236 28.2 72.3 61.5 181 70.6 381.1 9.9 216.5 11.9 281.3 11.9 829.3 0 547.8-2 612.8-11.9 829.3-9.1 200.1-42.6 308.8-70.6 381.1-37.3 95.8-81.7 164.1-153.5 235.9-71.8 71.8-140.2 116.2-236 153.5-72.3 28.2-181 61.5-381.1 70.6-216.3 9.9-281.3 11.9-829.3 11.9-547.8 0-612.8-1.9-829.1-11.9-200.1-9.1-308.8-42.4-381.1-70.6-95.8-37.3-164.1-81.7-236-153.5-71.8-71.8-116.4-140.1-153.5-235.9-28.2-72.3-61.5-181-70.6-381.1-10-216.3-12-281.2-12-829.2s2.2-612.8 11.9-829.3c9.1-200.1 42.6-308.6 70.6-381.1C153.9 410.3 198.4 342 270.1 270c71.8-71.8 140.1-116.4 236-153.5 72.3-28.2 181-61.5 381.1-70.6C1103.6 36 1168.6 34 1716.4 34m0-25c-550.5 0-615.2 2.1-830.3 11.9-204.4 9.3-315.3 43.5-389 72.3-99 38.3-169.9 84.4-244.6 159.1C178 327.1 131.9 397.9 93.3 497c-28.8 74.6-63 186.1-72.3 389-9.8 219.7-11.9 285.2-11.9 830.4 0 551 2.1 615.7 12 830.4 9.3 204.3 43.5 315.2 72.3 389 38.3 99 84.4 169.9 159.1 244.5 74.5 74.4 145.3 120.5 244.6 159.1 73.7 28.8 184.6 63 389 72.3 212.9 9.8 277.2 11.9 830.2 11.9 550.7 0 615.4-2.1 830.4-11.9 204.4-9.3 315.3-43.5 389-72.3 99.4-38.7 170.3-84.8 244.6-159.1 74.3-74.3 120.4-145.2 159.1-244.5 28.8-74.4 63-185.8 72.3-389 9.8-215.2 11.9-280 11.9-830.4s-2.1-615.2-11.9-830.4c-9.3-204.4-43.5-315.3-72.3-389-38.7-99.4-84.8-170.3-159.1-244.6-74.8-74.7-145.7-120.8-244.6-159.1-74.6-28.8-186.2-63-389-72.3-219.5-10-285-12-830.3-12z" style="fill: #e0e0e0;"/><defs><path id="SVGID_1_" d="M2961.9 1716.8c0 109.5.3 219.1-.1 328.6-.2 41.8-1.4 83.7-3.1 125.5-1.6 39.5-3.4 79.1-6.8 118.5-2.6 30-7.7 59.9-12.1 89.8-6.4 44-18.3 86.7-32.8 128.7-22.3 64.7-52.3 125.4-94.2 179.8-60.9 78.9-134.3 143.2-224.2 187.5-52.4 25.8-107.2 45-164.1 58.2-31.3 7.3-62.8 12.5-94.6 16.6-43.7 5.6-87.6 8.4-131.7 9.6-42.2 1.2-84.3 3.6-126.5 4.3-58.3 1.1-116.6 1.5-174.9 1.5-172 .1-343.9.2-515.9-.3-45.9-.2-91.8-2.8-137.7-4.3-16-.6-32.1-1.1-48.1-2.2-22.7-1.6-45.4-3.3-68-5.6-20.8-2.1-41.5-4.5-62.1-7.6-18.4-2.8-36.7-6.2-54.9-10.3-35.3-8-69.9-18.3-103.9-30.9-70.1-25.8-134.2-61.6-191-110.3-64.2-55-117.8-118.6-156.4-194.3-23.4-46-41.5-94.1-55-144-10-36.8-17.7-73.9-22.4-111.7-3.4-27.4-6-54.9-7.7-82.4-2.5-41.7-3.8-83.5-5.8-125.3-5.7-120.7-2.9-241.4-3.3-362.1-.4-131.2-.3-262.4.3-393.7.2-44.8 2.5-89.6 4.4-134.4 1.4-32.4 2.8-64.9 5.8-97.2 2.8-30.8 7.2-61.5 11.5-92.1 5.4-38.5 15.5-75.9 27-112.9 42.4-137 122.1-247.5 237-332.8 54.5-40.4 114.9-69.3 179.1-90.8 36.1-12.1 72.8-21.9 110.3-28.6 27.5-4.9 55.3-8.9 83.1-11.3 41.6-3.6 83.4-5.6 125.1-7.8 22-1.2 44-1.7 66-2.2 197.3-5.2 394.7-1.7 592.1-2.5 44.1-.2 88.2-.2 132.3.4 42.6.6 85.2 1.5 127.7 3.1 40.3 1.6 80.6 3.4 120.7 6.9 29.7 2.6 59.1 7.7 88.6 12 49.6 7.3 97.5 21.2 144.5 38.2 106.8 38.6 195.9 102.5 269.6 188.5 49.9 58.3 86.5 124.2 112.8 196 13.9 37.9 25.2 76.5 32.8 116.1 6.3 32.9 10.9 66.2 14.1 99.6 3.8 39.4 5.5 78.9 7.7 118.4 1.3 23.1 2 46.3 2.3 69.4 1.4 133.4 2.7 266.8 4 400.3-.4.1-1 .1-1.5.1zm-1361.7 1024V692.6h-13c-106.9.1-213.8.1-320.6 5.1-38.8 1.8-77.6 4-116.3 6.8-44.8 3.2-88.8 11.1-131.9 24-61.9 18.5-118.8 46.2-167.2 90-46.1 41.8-82.3 90.3-106.4 147.9-28.3 67.7-40.7 138.7-45.9 211.2-2.9 39.1-4.5 78.4-5.6 117.6-1.8 66.1-3.3 132.3-3.7 198.4-.7 106.5-.2 213.1-.4 319.6-.3 132 1.2 263.9 6.8 395.7 1.3 29.8 3.4 59.7 6.9 89.4 4 34.1 9.8 67.9 19.1 101.1 18.3 65.9 46.2 126.8 92.6 178.2 40.6 45 87.5 80.9 143.4 105.2 69.1 29.9 141.9 42.9 216.3 48.4 41.4 3 82.8 4.9 124.3 5.8 83 1.8 165.9 2.6 248.9 3.8 17.1.2 34.3 0 52.7 0zm226.5-911v911h12.7c51.6-.4 103.2-.2 154.7-1.2 71.7-1.4 143.5-3.2 215.2-5.7 28.7-1 57.5-3.3 86-6.6 34.1-4 67.9-9.8 101.1-19 67.1-18.6 128.8-47.2 180.7-94.8 43.8-40.2 78.8-86.4 102.5-141.3 29.2-67.4 42.2-138.3 48-210.7 3.4-42.8 5.6-85.8 6.4-128.8 1.7-97.9 2.3-195.8 3.2-293.8 0-2.9-.4-5.7-.7-9-303.6-.1-606.6-.1-909.8-.1zm.3-1137.1c-2.4 24.8-1.3 902.7 1 910.5 21.6 2.2 901 1.1 909.4-1.3v-9.8c0-106.9-.1-213.8-5-320.6-1.8-39.5-4-79.1-6.9-118.6-3.3-44.8-11.2-88.8-24-131.8-18.4-61.5-45.9-118.1-89.4-166.2-44.1-48.8-95.7-86.2-157.1-110.5-62.8-24.9-128.3-36.6-195.1-42-45.4-3.7-91-5.8-136.6-6.6-94.9-1.7-189.8-2.2-284.8-3.1H1827z"/></defs><clipPath id="SVGID_2_"><use xlink:href="#SVGID_1_" overflow="visible"/></clipPath><g class="st1" style="clip-path: url(#SVGID_2_);"><defs><path id="SVGID_3_" d="M-5486.5-5486.5H8926.3V8919.3H-5486.5z"/></defs><clipPath id="SVGID_4_"><use xlink:href="#SVGID_3_" overflow="visible"/></clipPath><g class="st2" style="clip-path: url(#SVGID_4_);"><defs><path id="SVGID_5_" d="M-5486.5-5486.5H8926.3V8919.3H-5486.5z"/></defs><clipPath id="SVGID_6_"><use xlink:href="#SVGID_5_" overflow="visible"/></clipPath><path class="st3" d="M-5486.5-5486.5H8919.3V8919.3H-5486.5z" style="clip-path: url(#SVGID_6_); fill: #204bff;"/><g><defs><path id="SVGID_7_" d="M-5486.5-5486.5H8926.3V8919.3H-5486.5z"/></defs><clipPath id="SVGID_8_"><use xlink:href="#SVGID_7_" overflow="visible"/></clipPath><g class="st4" style="clip-path: url(#SVGID_8_);"><defs><path id="SVGID_9_" d="M-3313-3123.1H8926.3V7653.1H-3313z"/></defs><defs><path id="SVGID_10_" d="M-3313-3123.1H8926.3V7653.1H-3313z"/></defs><defs><path id="SVGID_11_" d="M-5486.5-5486.5H8926.3V8919.3H-5486.5z"/></defs><clipPath id="SVGID_12_"><use xlink:href="#SVGID_9_" overflow="visible"/></clipPath><clipPath id="SVGID_13_" class="st5" style="clip-path: url(#SVGID_12_);"><use xlink:href="#SVGID_10_" overflow="visible"/></clipPath><clipPath id="SVGID_14_" class="st6" style="clip-path: url(#SVGID_13_);"><use xlink:href="#SVGID_11_" overflow="visible"/></clipPath><g class="st7" style="clip-path: url(#SVGID_14_);"><defs><path id="SVGID_15_" d="M-3313-3123H8926.3V7653.2H-3313z"/></defs><clipPath id="SVGID_16_"><use xlink:href="#SVGID_15_" overflow="visible"/></clipPath><g><defs><path id="SVGID_17_" d="M-3313-3123.1H8926.3V7653.1H-3313z"/></defs><defs><path id="SVGID_18_" d="M-5486.5-5486.5H8926.3V8919.3H-5486.5z"/></defs><clipPath id="SVGID_19_"><use xlink:href="#SVGID_17_" overflow="visible"/></clipPath><clipPath id="SVGID_20_" class="st9" style="clip-path: url(#SVGID_19_);"><use xlink:href="#SVGID_18_" overflow="visible"/></clipPath><g class="st10" style="clip-path: url(#SVGID_20_);"><defs><path id="SVGID_21_" d="M-4551-2532.2H7238.1V8834.9H-4551z"/></defs><clipPath id="SVGID_22_"><use xlink:href="#SVGID_21_" overflow="visible"/></clipPath><g><defs><path id="SVGID_23_" d="M-5486.5-5486.5H8926.3V8919.3H-5486.5z"/></defs><clipPath id="SVGID_24_"><use xlink:href="#SVGID_23_" overflow="visible"/></clipPath><g class="st12" style="clip-path: url(#SVGID_24_);"><defs><path id="SVGID_25_" d="M-3116-365.7h8047v8047h-8047z"/></defs><defs><path id="SVGID_26_" d="M-3116-365.7h8047v8047h-8047z"/></defs><defs><path id="SVGID_27_" d="M-5486.5-5486.5H8926.3V8919.3H-5486.5z"/></defs><clipPath id="SVGID_28_"><use xlink:href="#SVGID_25_" overflow="visible"/></clipPath><clipPath id="SVGID_29_" class="st13" style="clip-path: url(#SVGID_28_);"><use xlink:href="#SVGID_26_" overflow="visible"/></clipPath><clipPath id="SVGID_30_" class="st14" style="clip-path: url(#SVGID_29_);"><use xlink:href="#SVGID_27_" overflow="visible"/></clipPath><g class="st15" style="clip-path: url(#SVGID_30_);"><defs><path id="SVGID_31_" d="M-3116-365.7h8047v8047h-8047z"/></defs><clipPath id="SVGID_32_"><use xlink:href="#SVGID_31_" overflow="visible"/></clipPath><g><defs><path id="SVGID_33_" d="M-3116-365.7h8047v8047h-8047z"/></defs><defs><path id="SVGID_34_" d="M-5486.5-5486.5H8926.3V8919.3H-5486.5z"/></defs><clipPath id="SVGID_35_"><use xlink:href="#SVGID_33_" overflow="visible"/></clipPath><clipPath id="SVGID_36_" class="st17" style="clip-path: url(#SVGID_35_);"><use xlink:href="#SVGID_34_" overflow="visible"/></clipPath><g class="st18" style="clip-path: url(#SVGID_36_);"><defs><path id="SVGID_37_" d="M-1990.6 956.7h6499.5v6499.5h-6499.5z"/></defs><defs><path id="SVGID_38_" d="M-5486.5-5486.5H8926.3V8919.3H-5486.5z"/></defs><defs><path id="SVGID_39_" d="M-1990.6 956.7h6499.5v6499.5h-6499.5z"/></defs><defs><path id="SVGID_40_" d="M-5486.5-5486.5H8926.3V8919.3H-5486.5z"/></defs><clipPath id="SVGID_41_"><use xlink:href="#SVGID_37_" overflow="visible"/></clipPath><clipPath id="SVGID_42_" class="st19" style="clip-path: url(#SVGID_41_);"><use xlink:href="#SVGID_38_" overflow="visible"/></clipPath><clipPath id="SVGID_43_" class="st20" style="clip-path: url(#SVGID_42_);"><use xlink:href="#SVGID_39_" overflow="visible"/></clipPath><clipPath id="SVGID_44_" class="st21" style="clip-path: url(#SVGID_43_);"><use xlink:href="#SVGID_40_" overflow="visible"/></clipPath></g></g></g></g></g></g></g></g></g></g></g></g>
	<metadata>
		<rdf:RDF xmlns:rdf="http://www.w3.org/1999/02/22-rdf-syntax-ns#" xmlns:rdfs="http://www.w3.org/2000/01/rdf-schema#" xmlns:dc="http://purl.org/dc/elements/1.1/">
			<rdf:Description about="https://iconscout.com/legal#licenses" dc:title="layout-company-brand-logo" dc:description="layout-company-brand-logo" dc:publisher="Iconscout" dc:date="2017-07-12" dc:format="image/svg+xml" dc:language="en">
				<dc:creator>
					<rdf:Bag>
						<rdf:li>Icon Mafia</rdf:li>
					</rdf:Bag>
				</dc:creator>
			</rdf:Description>
		</rdf:RDF>
    </metadata></svg>
